<svg width="400" height="124" viewBox="0 0 400 124" fill="none" xmlns="http://www.w3.org/2000/svg">
<path d="M167.44 75.1558C165.721 74.4904 162.897 73.371 159.411 71.9309C155.918 70.442 151.741 68.6698 147.291 66.7745C138.372 62.9151 128.08 58.75 119.681 56.1127C110.016 53.0019 99.7575 50.7748 89.2349 50.4192L87.2636 50.3582C86.6065 50.3378 85.9454 50.3849 85.2973 50.3941L81.3616 50.5142C80.0451 50.5121 78.748 50.7241 77.4454 50.8486L73.5448 51.2806L69.7032 51.9872C68.4354 52.2493 67.1305 52.4125 65.8886 52.7826L62.1382 53.7658C61.5232 53.9416 60.8783 54.0768 60.2723 54.2822L58.4543 54.8982C48.6998 58.0835 39.7005 62.6985 31.5047 68.1268C23.3281 73.5951 15.9656 79.8772 9.26628 86.6156C7.13327 88.6936 4.40897 91.6263 2.45344 94.1603C0.559507 96.7464 -0.585415 98.9035 0.446471 99.5079C2.65729 100.784 7.92979 96.5822 15.0863 89.6004C23.7873 81.1729 33.4904 73.4835 44.4153 67.5426C45.7473 66.752 47.1675 66.112 48.569 65.4223C49.9693 64.752 51.3511 64.0321 52.8203 63.4724C54.2698 62.8825 55.6989 62.272 57.1574 61.7117L61.6185 60.2197C67.6196 58.424 73.8163 57.1435 80.0877 56.7677C89.2576 56.1122 98.4792 57.2796 107.459 59.4101C116.459 61.5611 125.201 64.7806 133.849 68.2849C142.497 71.8084 151.056 75.7139 159.883 79.3063C168.711 82.8699 177.779 86.2252 187.322 88.4961C191.6 89.5001 195.963 90.3543 200.39 90.8447C204.818 91.3254 209.306 91.5291 213.795 91.3649C218.342 91.1365 222.84 90.4502 227.19 89.3678C231.523 88.2165 235.708 86.6499 239.678 84.712C243.618 82.7336 247.304 80.314 250.646 77.5251C253.987 74.7361 256.811 71.4124 259.07 67.7837C259.591 66.8472 260.195 65.9545 260.631 64.9839L261.899 62.0502C262.528 60.0265 263.223 57.9971 263.437 55.8902C264.165 51.7042 263.774 47.4602 262.948 43.4417C262.142 39.6469 260.894 36.0094 259.466 32.4965C258.731 30.7387 258.055 29.0524 257.068 27.1729C256.109 25.3629 255.006 23.6216 253.659 21.9721C252.324 20.3232 250.79 18.7399 248.878 17.3465C246.986 15.9738 244.622 14.7178 241.734 14.3011C240.312 14.0796 238.797 14.1429 237.367 14.4146C236.647 14.5356 235.995 14.7962 235.324 15.0073C234.652 15.2281 234.058 15.5889 233.424 15.8991C232.801 16.2099 232.264 16.7001 231.7 17.1112C231.155 17.5526 230.723 18.0975 230.249 18.611C229.839 19.1476 229.502 19.7274 229.154 20.2968C228.904 20.8721 228.641 21.4661 228.433 22.0536C227.697 24.4096 227.71 26.6852 227.992 28.8027C228.296 30.9215 228.909 32.9235 229.71 34.8498C230.512 36.7568 231.531 38.6382 232.744 40.357C233.922 41.9286 235.033 43.5446 236.269 45.0712C241.185 51.2246 246.966 56.8205 253.405 61.7012C264.507 70.1355 277.562 76.4423 291.446 80.1083C305.339 83.8038 320.064 84.6168 334.214 82.8201C340.878 82.0131 348.93 80.748 355.879 78.4482C356.595 78.2108 357.377 77.9579 358.202 77.6884C359.028 77.4189 359.859 77.0723 360.742 76.7385C361.615 76.4041 362.521 76.0524 363.449 75.7019C364.366 75.3412 365.267 74.9116 366.176 74.5116C367.085 74.102 367.995 73.6925 368.883 73.2912C369.751 72.8501 370.598 72.4076 371.423 71.9832C372.247 71.5491 373.038 71.1419 373.786 70.7418C374.502 70.3108 375.186 69.8972 375.813 69.5189C376.879 68.8477 377.997 68.2088 379.065 67.499C380.122 66.7886 381.189 66.098 382.253 65.4654C383.493 64.766 384.512 63.9855 385.458 63.3264C386.395 62.6474 387.24 62.0597 387.922 61.4815C389.267 60.3044 390.176 59.372 390.639 58.674C391.576 57.2788 390.75 56.8321 388.395 57.0575C387.364 57.15 387.516 56.0557 385.234 57.389C385.145 57.4416 384.954 57.5559 384.865 57.599C383.072 58.5262 381.269 59.4336 379.586 60.4838C377.813 61.422 376.152 62.483 374.418 63.4913C370.952 65.479 367.471 67.5432 363.673 69.1333C345.22 77.1357 323.853 79.9673 303.612 76.4977C283.371 73.0088 264.39 63.5076 250.205 50.0083C245.858 45.8736 241.922 41.3476 238.564 36.566C237.056 34.3647 235.913 31.8564 235.308 29.3708C235.026 28.1342 234.875 26.8957 234.901 25.7358C234.97 24.5978 235.227 23.5582 235.687 22.7439C236.146 21.9295 236.775 21.3384 237.707 20.9301C238.628 20.5115 239.59 20.3083 240.534 20.3945C242.464 20.608 244.756 21.9662 246.593 23.897C248.475 25.7822 250.028 28.1217 251.21 30.526L251.641 31.4425L252.076 32.4465L252.916 34.4526C253.46 35.7923 253.952 37.1287 254.411 38.4631C256.375 44.3413 257.16 50.2934 256.224 55.9574L256.24 55.8615C255.609 58.8047 254.561 61.6839 252.86 64.2913C252.141 65.6514 251.054 66.8441 250.146 68.1153L248.518 69.8753C248.241 70.1684 247.986 70.4723 247.699 70.755L245.084 73.1233L243.218 74.5398L242.278 75.2574L241.268 75.9029L239.258 77.1946C236.444 78.7571 233.537 80.2462 230.397 81.3146C227.315 82.4931 224.051 83.2734 220.775 83.9078C219.122 84.1176 217.482 84.4637 215.805 84.5365L213.312 84.7245L209.488 84.7837L208.206 84.7353L205.654 84.6486C203.948 84.4777 202.247 84.4136 200.556 84.1662L198.019 83.8385L195.497 83.415C193.818 83.1586 192.148 82.7576 190.485 82.4247C183.84 80.9388 177.392 78.884 171.128 76.6371C170.155 76.3072 168.875 75.6975 167.44 75.1558Z" fill="white"/>
<path d="M376.019 56.6798C375.29 56.6341 372.705 56.4501 371.041 56.5123C367.197 56.6261 363.394 56.9527 359.486 56.8857C358.876 56.8796 357.863 57.0369 357.5 54.9409C357.125 52.7612 357.625 51.3665 358.75 51.2594C361.484 51.0318 364.235 51.2485 366.895 50.7084C370.819 49.9077 374.815 50.2472 378.759 50.4325C380.542 50.5337 382.307 50.7041 384.075 50.9597C384.958 51.0782 385.835 51.2259 386.719 51.3537C387.618 51.5174 388.422 51.6188 389.429 51.814C390.32 51.9884 391.295 52.2171 392.373 52.6969C392.912 52.9415 393.472 53.2591 394.011 53.694C394.549 54.1195 395.078 54.6888 395.482 55.305C396.403 56.73 396.651 58.3008 396.663 59.4877C396.681 60.7211 396.519 61.6956 396.368 62.5543C395.829 65.5045 394.537 68.2507 393.381 70.9486C393.113 71.5868 393.19 72.5073 392.873 73.2002C392.615 73.7798 392.184 74.7364 391.762 75.2353C391.575 75.4528 391.367 75.6543 391.33 75.9259C391.133 77.1812 390.305 77.1118 388.3 75.6833C387.854 75.368 387.186 75.1517 386.974 74.7451C386.962 74.7279 386.948 74.692 386.936 74.6748C385.967 73.3137 386.91 72.8719 387.206 72.0966C388.633 68.3227 389.73 64.3688 390.268 60.43C390.436 59.3024 390.317 58.5497 390.188 58.4449C390.117 58.3507 390.029 58.2685 389.762 58.1362C389.497 58.0132 389.111 57.9079 388.626 57.8455C388.092 57.7712 387.446 57.97 386.774 57.6593L386.784 57.6673C386.054 57.6122 385.312 57.6157 384.603 57.5101C381.894 57.059 379.026 56.9544 376.409 56.6135C376.321 56.5978 376.172 56.686 376.019 56.6798Z" fill="white"/>
</svg>
