<svg width="22" height="14" viewBox="0 0 22 14" fill="none" xmlns="http://www.w3.org/2000/svg">
<path fill-rule="evenodd" clip-rule="evenodd" d="M0.5 7C0.5 6.80109 0.579018 6.61032 0.71967 6.46967C0.860322 6.32902 1.05109 6.25 1.25 6.25H18.9395L14.219 1.531C14.0782 1.39017 13.9991 1.19916 13.9991 1C13.9991 0.800838 14.0782 0.609831 14.219 0.469001C14.3598 0.328171 14.5508 0.249054 14.75 0.249054C14.9492 0.249054 15.1402 0.328171 15.281 0.469001L21.281 6.469C21.3508 6.53867 21.4063 6.62143 21.4441 6.71255C21.4819 6.80367 21.5013 6.90135 21.5013 7C21.5013 7.09865 21.4819 7.19633 21.4441 7.28745C21.4063 7.37857 21.3508 7.46133 21.281 7.531L15.281 13.531C15.1402 13.6718 14.9492 13.7509 14.75 13.7509C14.5508 13.7509 14.3598 13.6718 14.219 13.531C14.0782 13.3902 13.9991 13.1992 13.9991 13C13.9991 12.8008 14.0782 12.6098 14.219 12.469L18.9395 7.75H1.25C1.05109 7.75 0.860322 7.67098 0.71967 7.53033C0.579018 7.38968 0.5 7.19891 0.5 7Z" fill="white"/>
</svg>
