<svg width="40" height="40" viewBox="0 0 40 40" fill="none" xmlns="http://www.w3.org/2000/svg">
<path d="M11.4 28.6C11.7667 28.9667 12.2333 29.15 12.8 29.15C13.3667 29.15 13.8333 28.9667 14.2 28.6L20 22.8L25.85 28.65C26.2167 29.0167 26.6753 29.1913 27.226 29.174C27.7753 29.158 28.2333 28.9667 28.6 28.6C28.9667 28.2333 29.15 27.7667 29.15 27.2C29.15 26.6333 28.9667 26.1667 28.6 25.8L22.8 20L28.65 14.15C29.0167 13.7833 29.1913 13.3247 29.174 12.774C29.158 12.2247 28.9667 11.7667 28.6 11.4C28.2333 11.0333 27.7667 10.85 27.2 10.85C26.6333 10.85 26.1667 11.0333 25.8 11.4L20 17.2L14.15 11.35C13.7833 10.9833 13.3253 10.808 12.776 10.824C12.2253 10.8413 11.7667 11.0333 11.4 11.4C11.0333 11.7667 10.85 12.2333 10.85 12.8C10.85 13.3667 11.0333 13.8333 11.4 14.2L17.2 20L11.35 25.85C10.9833 26.2167 10.8087 26.6747 10.826 27.224C10.842 27.7747 11.0333 28.2333 11.4 28.6ZM20 40C17.2333 40 14.6333 39.4747 12.2 38.424C9.76667 37.3747 7.65 35.95 5.85 34.15C4.05 32.35 2.62533 30.2333 1.576 27.8C0.525334 25.3667 0 22.7667 0 20C0 17.2333 0.525334 14.6333 1.576 12.2C2.62533 9.76667 4.05 7.65 5.85 5.85C7.65 4.05 9.76667 2.62467 12.2 1.574C14.6333 0.524667 17.2333 0 20 0C22.7667 0 25.3667 0.524667 27.8 1.574C30.2333 2.62467 32.35 4.05 34.15 5.85C35.95 7.65 37.3747 9.76667 38.424 12.2C39.4747 14.6333 40 17.2333 40 20C40 22.7667 39.4747 25.3667 38.424 27.8C37.3747 30.2333 35.95 32.35 34.15 34.15C32.35 35.95 30.2333 37.3747 27.8 38.424C25.3667 39.4747 22.7667 40 20 40Z" fill="white"/>
</svg>
