<svg width="20" height="20" viewBox="0 0 20 20" fill="none" xmlns="http://www.w3.org/2000/svg">
<path d="M15.9375 18.75H7.1875C6.44158 18.75 5.72621 18.4537 5.19876 17.9262C4.67132 17.3988 4.375 16.6834 4.375 15.9375V7.1875C4.375 6.44158 4.67132 5.72621 5.19876 5.19876C5.72621 4.67132 6.44158 4.375 7.1875 4.375H15.9375C16.6834 4.375 17.3988 4.67132 17.9262 5.19876C18.4537 5.72621 18.75 6.44158 18.75 7.1875V15.9375C18.75 16.6834 18.4537 17.3988 17.9262 17.9262C17.3988 18.4537 16.6834 18.75 15.9375 18.75Z" fill="white"/>
<path d="M6.25 3.125H15.4641C15.2696 2.57705 14.9104 2.10268 14.4356 1.76699C13.9609 1.43129 13.3939 1.2507 12.8125 1.25H4.0625C3.31658 1.25 2.60121 1.54632 2.07376 2.07376C1.54632 2.60121 1.25 3.31658 1.25 4.0625V12.8125C1.2507 13.3939 1.43129 13.9609 1.76699 14.4356C2.10268 14.9104 2.57705 15.2696 3.125 15.4641V6.25C3.125 5.4212 3.45424 4.62634 4.04029 4.04029C4.62634 3.45424 5.4212 3.125 6.25 3.125Z" fill="white"/>
</svg>
