<svg width="200" height="114" viewBox="0 0 230 124" fill="none" xmlns="http://www.w3.org/2000/svg">
<path d="M-2.55989 75.1558C-4.2788 74.4904 -7.10342 73.371 -10.5886 71.9309C-14.0816 70.442 -18.259 68.6698 -22.7095 66.7745C-31.628 62.9151 -41.9202 58.75 -50.319 56.1127C-59.9843 53.0019 -70.2425 50.7748 -80.7651 50.4192L-82.7364 50.3582C-83.3935 50.3378 -84.0547 50.3849 -84.7028 50.3941L-88.6385 50.5142C-89.955 50.5121 -91.252 50.7241 -92.5547 50.8486L-96.4552 51.2806L-100.297 51.9872C-101.565 52.2493 -102.869 52.4125 -104.111 52.7826L-107.862 53.7658C-108.477 53.9416 -109.122 54.0768 -109.728 54.2822L-111.546 54.8982C-121.3 58.0834 -130.299 62.6985 -138.495 68.1268C-146.672 73.5951 -154.034 79.8772 -160.734 86.6156C-162.867 88.6936 -165.591 91.6263 -167.547 94.1603C-169.441 96.7464 -170.585 98.9035 -169.554 99.5079C-167.343 100.784 -162.07 96.5822 -154.914 89.6004C-146.213 81.1729 -136.51 73.4835 -125.585 67.5426C-124.253 66.752 -122.833 66.112 -121.431 65.4223C-120.031 64.752 -118.649 64.0321 -117.18 63.4724C-115.73 62.8825 -114.301 62.272 -112.843 61.7117L-108.382 60.2197C-102.38 58.424 -96.1838 57.1435 -89.9123 56.7677C-80.7424 56.1122 -71.5209 57.2796 -62.541 59.4101C-53.5408 61.5611 -44.7994 64.7806 -36.1509 68.2849C-27.5035 71.8084 -18.9439 75.7139 -10.1172 79.3063C-1.28874 82.8699 7.77893 86.2252 17.3223 88.4961C21.6001 89.5001 25.9625 90.3543 30.39 90.8447C34.8182 91.3254 39.3062 91.5291 43.7949 91.3649C48.3415 91.1365 52.8402 90.4502 57.1902 89.3678C61.5228 88.2165 65.7078 86.6499 69.6778 84.712C73.6179 82.7336 77.3041 80.314 80.6456 77.5251C83.9872 74.7361 86.8107 71.4124 89.0699 67.7837C89.5906 66.8472 90.1949 65.9545 90.6313 64.9839L91.8988 62.0502C92.5284 60.0265 93.2231 57.9971 93.4368 55.8902C94.1648 51.7042 93.7739 47.4602 92.9484 43.4417C92.1418 39.6469 90.894 36.0094 89.466 32.4965C88.7305 30.7387 88.0554 29.0524 87.0682 27.1729C86.1093 25.3629 85.0058 23.6216 83.6594 21.9721C82.3237 20.3232 80.7898 18.7399 78.8775 17.3465C76.9855 15.9738 74.6224 14.7178 71.7337 14.3011C70.3117 14.0796 68.7969 14.1429 67.3667 14.4146C66.6471 14.5356 65.9946 14.7962 65.3235 15.0073C64.6518 15.2281 64.0581 15.5889 63.4242 15.8991C62.801 16.2099 62.2641 16.7001 61.6996 17.1112C61.1549 17.5526 60.7226 18.0975 60.2491 18.611C59.8389 19.1476 59.5017 19.7274 59.1543 20.2968C58.9036 20.8721 58.6411 21.4661 58.4329 22.0536C57.6969 24.4096 57.7104 26.6852 57.9924 28.8027C58.296 30.9215 58.9088 32.9235 59.7097 34.8498C60.5117 36.7568 61.5312 38.6382 62.7439 40.357C63.9223 41.9286 65.0334 43.5446 66.2685 45.0712C71.1847 51.2246 76.9655 56.8205 83.4048 61.7012C94.5073 70.1355 107.562 76.4423 121.446 80.1083C135.339 83.8038 150.064 84.6168 164.214 82.8201C170.878 82.0131 178.93 80.748 185.879 78.4482C186.595 78.2108 187.377 77.9579 188.202 77.6884C189.028 77.4189 189.858 77.0723 190.742 76.7385C191.615 76.4041 192.521 76.0524 193.449 75.7019C194.366 75.3412 195.267 74.9116 196.176 74.5116C197.085 74.102 197.995 73.6925 198.883 73.2912C199.751 72.8501 200.598 72.4076 201.423 71.9832C202.247 71.5491 203.038 71.1419 203.786 70.7418C204.502 70.3109 205.186 69.8972 205.813 69.5189C206.879 68.8477 207.997 68.2088 209.065 67.499C210.122 66.7886 211.189 66.098 212.253 65.4654C213.493 64.766 214.512 63.9855 215.458 63.3264C216.395 62.6474 217.24 62.0597 217.922 61.4815C219.267 60.3044 220.176 59.372 220.639 58.674C221.576 57.2788 220.75 56.8321 218.395 57.0575C217.364 57.15 217.516 56.0557 215.234 57.389C215.145 57.4416 214.954 57.5559 214.865 57.599C213.072 58.5262 211.268 59.4336 209.586 60.4838C207.813 61.422 206.152 62.483 204.418 63.4913C200.952 65.479 197.471 67.5432 193.673 69.1333C175.22 77.1357 153.853 79.9673 133.612 76.4977C113.371 73.0088 94.39 63.5076 80.205 50.0083C75.8575 45.8736 71.9222 41.3476 68.5635 36.566C67.0562 34.3647 65.9128 31.8564 65.3076 29.3708C65.0262 28.1342 64.8745 26.8957 64.9015 25.7358C64.9703 24.5978 65.2274 23.5582 65.6867 22.7439C66.1461 21.9295 66.7754 21.3384 67.7066 20.9301C68.6277 20.5115 69.5897 20.3083 70.5342 20.3945C72.4639 20.608 74.7561 21.9662 76.5928 23.897C78.4753 25.7822 80.0283 28.1217 81.2104 30.526L81.6406 31.4425L82.0763 32.4465L82.9155 34.4526C83.4605 35.7923 83.9516 37.1287 84.4106 38.4631C86.3755 44.3413 87.1596 50.2934 86.2235 55.9574L86.2401 55.8615C85.6088 58.8047 84.5606 61.6839 82.8596 64.2913C82.1406 65.6514 81.054 66.8441 80.1462 68.1153L78.518 69.8753C78.2413 70.1684 77.9855 70.4723 77.6986 70.755L75.084 73.1233L73.2176 74.5398L72.2784 75.2574L71.2681 75.9029L69.2582 77.1946C66.4441 78.7571 63.5372 80.2462 60.3968 81.3146C57.3145 82.4931 54.0512 83.2734 50.7752 83.9078C49.1221 84.1176 47.4823 84.4637 45.8051 84.5365L43.3115 84.7245L39.4875 84.7837L38.2061 84.7353L35.6536 84.6486C33.9479 84.4777 32.2467 84.4136 30.5564 84.1662L28.0185 83.8385L25.4971 83.415C23.8182 83.1586 22.1481 82.7576 20.4846 82.4247C13.8401 80.9388 7.39182 78.884 1.12787 76.6371C0.154927 76.3072 -1.12489 75.6975 -2.55989 75.1558Z" fill="white"/>
<path d="M206.019 56.6798C205.29 56.6341 202.705 56.4501 201.041 56.5123C197.197 56.6261 193.394 56.9527 189.486 56.8857C188.876 56.8796 187.863 57.0369 187.5 54.9409C187.125 52.7612 187.625 51.3665 188.75 51.2594C191.484 51.0318 194.235 51.2485 196.895 50.7084C200.819 49.9077 204.815 50.2472 208.759 50.4325C210.542 50.5337 212.307 50.7041 214.075 50.9597C214.958 51.0782 215.835 51.2259 216.719 51.3537C217.618 51.5174 218.422 51.6188 219.429 51.814C220.32 51.9884 221.295 52.2171 222.373 52.6969C222.912 52.9415 223.472 53.2591 224.011 53.694C224.548 54.1195 225.078 54.6888 225.482 55.305C226.403 56.73 226.651 58.3008 226.663 59.4877C226.681 60.7211 226.519 61.6956 226.368 62.5543C225.829 65.5045 224.537 68.2507 223.381 70.9486C223.113 71.5868 223.19 72.5073 222.872 73.2002C222.615 73.7798 222.184 74.7364 221.762 75.2353C221.575 75.4528 221.367 75.6543 221.33 75.9259C221.133 77.1812 220.305 77.1118 218.3 75.6833C217.854 75.368 217.186 75.1517 216.974 74.7451C216.962 74.7279 216.948 74.692 216.936 74.6748C215.967 73.3137 216.91 72.8719 217.206 72.0966C218.633 68.3227 219.73 64.3688 220.268 60.43C220.436 59.3024 220.317 58.5497 220.188 58.4449C220.117 58.3507 220.029 58.2685 219.762 58.1362C219.497 58.0132 219.111 57.9079 218.626 57.8455C218.092 57.7712 217.446 57.97 216.774 57.6593L216.784 57.6673C216.054 57.6122 215.312 57.6157 214.603 57.5101C211.894 57.059 209.026 56.9544 206.409 56.6135C206.321 56.5978 206.172 56.686 206.019 56.6798Z" fill="white"/>
</svg>
