<svg width="18" height="18" viewBox="0 0 18 18" fill="none" xmlns="http://www.w3.org/2000/svg">
<path d="M15.335 15.339H12.67V11.162C12.67 10.166 12.65 8.884 11.28 8.884C9.891 8.884 9.679 9.968 9.679 11.089V15.339H7.013V6.75H9.573V7.92H9.608C9.966 7.246 10.836 6.533 12.136 6.533C14.836 6.533 15.336 8.311 15.336 10.624V15.339H15.335ZM4.003 5.575C3.79956 5.57526 3.59806 5.53537 3.41006 5.45761C3.22207 5.37984 3.05127 5.26574 2.90746 5.12184C2.76365 4.97793 2.64965 4.80706 2.57201 4.61901C2.49437 4.43097 2.4546 4.22944 2.455 4.026C2.4552 3.71983 2.54618 3.4206 2.71644 3.16615C2.8867 2.91169 3.12859 2.71343 3.41153 2.59645C3.69447 2.47947 4.00574 2.44902 4.30598 2.50894C4.60622 2.56886 4.88196 2.71648 5.09831 2.93311C5.31466 3.14974 5.46191 3.42566 5.52145 3.72598C5.58099 4.0263 5.55013 4.33753 5.43278 4.62032C5.31543 4.9031 5.11687 5.14474 4.86219 5.31467C4.60751 5.4846 4.30917 5.5752 4.003 5.575ZM5.339 15.339H2.666V6.75H5.34V15.339H5.339ZM16.67 0H1.329C0.593 0 0 0.58 0 1.297V16.703C0 17.42 0.594 18 1.328 18H16.666C17.4 18 18 17.42 18 16.703V1.297C18 0.58 17.4 0 16.666 0H16.67Z" fill="white"/>
</svg>
