<svg width="20" height="16" viewBox="0 0 20 16" fill="none" xmlns="http://www.w3.org/2000/svg">
<path d="M2 16C1.45 16 0.979002 15.804 0.587002 15.412C0.195002 15.02 -0.000664969 14.5493 1.69779e-06 14V2C1.69779e-06 1.45 0.196002 0.979002 0.588002 0.587002C0.980002 0.195002 1.45067 -0.000664969 2 1.69779e-06H18C18.55 1.69779e-06 19.021 0.196001 19.413 0.588001C19.805 0.980001 20.0007 1.45067 20 2V14C20 14.55 19.804 15.021 19.412 15.413C19.02 15.805 18.5493 16.0007 18 16H2ZM10 8.825C10.0833 8.825 10.171 8.81234 10.263 8.787C10.355 8.76167 10.4423 8.72434 10.525 8.675L17.6 4.25C17.7333 4.16667 17.8333 4.06234 17.9 3.937C17.9667 3.81167 18 3.67434 18 3.525C18 3.19167 17.8583 2.94167 17.575 2.775C17.2917 2.60834 17 2.61667 16.7 2.8L10 7L3.3 2.8C3 2.61667 2.70834 2.61267 2.425 2.788C2.14167 2.96334 2 3.209 2 3.525C2 3.69167 2.03333 3.83767 2.1 3.963C2.16667 4.08834 2.26667 4.184 2.4 4.25L9.475 8.675C9.55834 8.725 9.646 8.76267 9.738 8.788C9.83 8.81334 9.91734 8.82567 10 8.825Z" fill="white"/>
</svg>
