<svg width="362" height="311" viewBox="0 0 362 311" fill="none" xmlns="http://www.w3.org/2000/svg">
<g clip-path="url(#clip0_999_2116)">
<g clip-path="url(#clip1_999_2116)">
<rect x="142.628" y="240.163" width="69.6467" height="31.5598" rx="15.7799" stroke="#ECECEC" stroke-opacity="0.08" stroke-width="1.47727"/>
<rect x="141.816" y="76.621" width="69.6467" height="31.5598" rx="15.7799" stroke="#ECECEC" stroke-opacity="0.08" stroke-width="1.47727"/>
<rect x="142.555" y="199.244" width="69.6467" height="31.5598" rx="15.7799" stroke="#ECECEC" stroke-opacity="0.08" stroke-width="1.47727"/>
<rect x="141.744" y="35.7186" width="69.6467" height="31.5598" rx="15.7799" stroke="#ECECEC" stroke-opacity="0.08" stroke-width="1.47727"/>
<rect x="142.187" y="-5.73719" width="69.6467" height="31.5598" rx="15.7799" stroke="#ECECEC" stroke-opacity="0.08" stroke-width="1.47727"/>
<rect x="142.628" y="281.068" width="69.6467" height="31.5598" rx="15.7799" stroke="#ECECEC" stroke-opacity="0.08" stroke-width="1.47727"/>
<rect x="141.816" y="117.555" width="69.6467" height="31.5598" rx="15.7799" stroke="#ECECEC" stroke-opacity="0.08" stroke-width="1.47727"/>
<rect x="6.72057" y="-26.3322" width="69.6467" height="31.5598" rx="15.7799" stroke="#ECECEC" stroke-opacity="0.08" stroke-width="1.47727"/>
<rect x="7.16393" y="260.476" width="69.6467" height="31.5598" rx="15.7799" stroke="#ECECEC" stroke-opacity="0.08" stroke-width="1.47727"/>
<rect x="232.374" y="240.08" width="69.6467" height="31.5598" rx="15.7799" stroke="#ECECEC" stroke-opacity="0.08" stroke-width="1.47727"/>
<rect x="6.35289" y="96.9601" width="69.6467" height="31.5598" rx="15.7799" stroke="#ECECEC" stroke-opacity="0.08" stroke-width="1.47727"/>
<rect x="231.562" y="76.5602" width="69.6467" height="31.5598" rx="15.7799" stroke="#ECECEC" stroke-opacity="0.08" stroke-width="1.47727"/>
<rect x="7.08678" y="219.552" width="69.6467" height="31.5598" rx="15.7799" stroke="#ECECEC" stroke-opacity="0.08" stroke-width="1.47727"/>
<rect x="232.301" y="199.165" width="69.6467" height="31.5598" rx="15.7799" stroke="#ECECEC" stroke-opacity="0.08" stroke-width="1.47727"/>
<rect x="6.2777" y="56.0321" width="69.6467" height="31.5598" rx="15.7799" stroke="#ECECEC" stroke-opacity="0.08" stroke-width="1.47727"/>
<rect x="231.487" y="35.629" width="69.6467" height="31.5598" rx="15.7799" stroke="#ECECEC" stroke-opacity="0.08" stroke-width="1.47727"/>
<rect x="6.72057" y="14.5829" width="69.6467" height="31.5598" rx="15.7799" stroke="#ECECEC" stroke-opacity="0.08" stroke-width="1.47727"/>
<rect x="7.16393" y="301.401" width="69.6467" height="31.5598" rx="15.7799" stroke="#ECECEC" stroke-opacity="0.08" stroke-width="1.47727"/>
<rect x="231.928" y="-5.79481" width="69.6467" height="31.5598" rx="15.7799" stroke="#ECECEC" stroke-opacity="0.08" stroke-width="1.47727"/>
<rect x="232.374" y="281.017" width="69.6467" height="31.5598" rx="15.7799" stroke="#ECECEC" stroke-opacity="0.08" stroke-width="1.47727"/>
<rect x="6.35289" y="137.846" width="69.6467" height="31.5598" rx="15.7799" stroke="#ECECEC" stroke-opacity="0.08" stroke-width="1.47727"/>
<rect x="231.562" y="117.466" width="69.6467" height="31.5598" rx="15.7799" stroke="#ECECEC" stroke-opacity="0.08" stroke-width="1.47727"/>
<rect x="-0.738635" y="0.738635" width="69.6467" height="31.5598" rx="15.7799" transform="matrix(-1 0 0 1 30.6375 -6.98755)" stroke="#ECECEC" stroke-opacity="0.08" stroke-width="1.47727"/>
<rect x="-0.738635" y="0.738635" width="69.6467" height="31.5598" rx="15.7799" transform="matrix(-1 0 0 1 31.0803 279.815)" stroke="#ECECEC" stroke-opacity="0.08" stroke-width="1.47727"/>
<rect x="-0.738635" y="0.738635" width="69.6467" height="31.5598" rx="15.7799" transform="matrix(-1 0 0 1 255.849 -27.3779)" stroke="#ECECEC" stroke-opacity="0.08" stroke-width="1.47727"/>
<rect x="-0.738635" y="0.738635" width="69.6467" height="31.5598" rx="15.7799" transform="matrix(-1 0 0 1 256.292 259.421)" stroke="#ECECEC" stroke-opacity="0.08" stroke-width="1.47727"/>
<rect x="-0.738635" y="0.738635" width="69.6467" height="31.5598" rx="15.7799" transform="matrix(-1 0 0 1 30.2678 116.305)" stroke="#ECECEC" stroke-opacity="0.08" stroke-width="1.47727"/>
<rect x="-0.738635" y="0.738635" width="69.6467" height="31.5598" rx="15.7799" transform="matrix(-1 0 0 1 255.478 95.9111)" stroke="#ECECEC" stroke-opacity="0.08" stroke-width="1.47727"/>
<rect x="-0.738635" y="0.738635" width="69.6467" height="31.5598" rx="15.7799" transform="matrix(-1 0 0 1 31.0086 238.899)" stroke="#ECECEC" stroke-opacity="0.08" stroke-width="1.47727"/>
<rect x="-0.738635" y="0.738635" width="69.6467" height="31.5598" rx="15.7799" transform="matrix(-1 0 0 1 256.219 218.522)" stroke="#ECECEC" stroke-opacity="0.08" stroke-width="1.47727"/>
<rect x="-0.738635" y="0.738635" width="69.6467" height="31.5598" rx="15.7799" transform="matrix(-1 0 0 1 30.1975 75.3545)" stroke="#ECECEC" stroke-opacity="0.08" stroke-width="1.47727"/>
<rect x="-0.738635" y="0.738635" width="69.6467" height="31.5598" rx="15.7799" transform="matrix(-1 0 0 1 255.405 54.9895)" stroke="#ECECEC" stroke-opacity="0.08" stroke-width="1.47727"/>
<rect x="-0.738635" y="0.738635" width="69.6467" height="31.5598" rx="15.7799" transform="matrix(-1 0 0 1 30.6375 33.8635)" stroke="#ECECEC" stroke-opacity="0.08" stroke-width="1.47727"/>
<rect x="-0.738635" y="0.738635" width="69.6467" height="31.5598" rx="15.7799" transform="matrix(-1 0 0 1 255.849 13.4731)" stroke="#ECECEC" stroke-opacity="0.08" stroke-width="1.47727"/>
<rect x="-0.738635" y="0.738635" width="69.6467" height="31.5598" rx="15.7799" transform="matrix(-1 0 0 1 256.292 300.282)" stroke="#ECECEC" stroke-opacity="0.08" stroke-width="1.47727"/>
<rect x="-0.738635" y="0.738635" width="69.6467" height="31.5598" rx="15.7799" transform="matrix(-1 0 0 1 30.2678 157.13)" stroke="#ECECEC" stroke-opacity="0.08" stroke-width="1.47727"/>
<rect x="-0.738635" y="0.738635" width="69.6467" height="31.5598" rx="15.7799" transform="matrix(-1 0 0 1 300.845 157.13)" stroke="#ECECEC" stroke-opacity="0.08" stroke-width="1.47727"/>
<rect x="-0.738635" y="0.738635" width="69.6467" height="31.5598" rx="15.7799" transform="matrix(-1 0 0 1 255.478 136.74)" stroke="#ECECEC" stroke-opacity="0.08" stroke-width="1.47727"/>
<rect x="-0.738635" y="0.738635" width="69.6467" height="31.5598" rx="15.7799" transform="matrix(-1 0 0 1 31.0803 198.135)" stroke="#ECECEC" stroke-opacity="0.08" stroke-width="1.47727"/>
<rect x="-0.738635" y="0.738635" width="69.6467" height="31.5598" rx="15.7799" transform="matrix(-1 0 0 1 256.292 177.751)" stroke="#ECECEC" stroke-opacity="0.08" stroke-width="1.47727"/>
<rect x="-0.738635" y="0.738635" width="69.6467" height="31.5598" rx="15.7799" transform="matrix(-1 0 0 1 390.89 -6.98755)" stroke="#ECECEC" stroke-opacity="0.08" stroke-width="1.47727"/>
<rect x="-0.738635" y="0.738635" width="69.6467" height="31.5598" rx="15.7799" transform="matrix(-1 0 0 1 391.333 279.815)" stroke="#ECECEC" stroke-opacity="0.08" stroke-width="1.47727"/>
<rect x="-0.738635" y="0.738635" width="69.6467" height="31.5598" rx="15.7799" transform="matrix(-1 0 0 1 166.112 -27.3779)" stroke="#ECECEC" stroke-opacity="0.08" stroke-width="1.47727"/>
<rect x="-0.738635" y="0.738635" width="69.6467" height="31.5598" rx="15.7799" transform="matrix(-1 0 0 1 166.55 259.421)" stroke="#ECECEC" stroke-opacity="0.08" stroke-width="1.47727"/>
<rect x="-0.738635" y="0.738635" width="69.6467" height="31.5598" rx="15.7799" transform="matrix(-1 0 0 1 390.521 116.305)" stroke="#ECECEC" stroke-opacity="0.08" stroke-width="1.47727"/>
<rect x="-0.738635" y="0.738635" width="69.6467" height="31.5598" rx="15.7799" transform="matrix(-1 0 0 1 165.742 95.9111)" stroke="#ECECEC" stroke-opacity="0.08" stroke-width="1.47727"/>
<rect x="-0.738635" y="0.738635" width="69.6467" height="31.5598" rx="15.7799" transform="matrix(-1 0 0 1 391.26 238.899)" stroke="#ECECEC" stroke-opacity="0.08" stroke-width="1.47727"/>
<rect x="-0.738635" y="0.738635" width="69.6467" height="31.5598" rx="15.7799" transform="matrix(-1 0 0 1 166.479 218.522)" stroke="#ECECEC" stroke-opacity="0.08" stroke-width="1.47727"/>
<rect x="-0.738635" y="0.738635" width="69.6467" height="31.5598" rx="15.7799" transform="matrix(-1 0 0 1 390.449 75.3545)" stroke="#ECECEC" stroke-opacity="0.08" stroke-width="1.47727"/>
<rect x="-0.738635" y="0.738635" width="69.6467" height="31.5598" rx="15.7799" transform="matrix(-1 0 0 1 165.668 54.9895)" stroke="#ECECEC" stroke-opacity="0.08" stroke-width="1.47727"/>
<rect x="-0.738635" y="0.738635" width="69.6467" height="31.5598" rx="15.7799" transform="matrix(-1 0 0 1 390.89 33.8635)" stroke="#ECECEC" stroke-opacity="0.08" stroke-width="1.47727"/>
<rect x="-0.738635" y="0.738635" width="69.6467" height="31.5598" rx="15.7799" transform="matrix(-1 0 0 1 166.112 13.4731)" stroke="#ECECEC" stroke-opacity="0.08" stroke-width="1.47727"/>
<rect x="-0.738635" y="0.738635" width="69.6467" height="31.5598" rx="15.7799" transform="matrix(-1 0 0 1 166.55 300.282)" stroke="#ECECEC" stroke-opacity="0.08" stroke-width="1.47727"/>
<rect x="-0.738635" y="0.738635" width="69.6467" height="31.5598" rx="15.7799" transform="matrix(-1 0 0 1 390.521 157.13)" stroke="#ECECEC" stroke-opacity="0.08" stroke-width="1.47727"/>
<rect x="-0.738635" y="0.738635" width="69.6467" height="31.5598" rx="15.7799" transform="matrix(-1 0 0 1 211.094 157.13)" stroke="#ECECEC" stroke-opacity="0.08" stroke-width="1.47727"/>
<rect x="-0.738635" y="0.738635" width="69.6467" height="31.5598" rx="15.7799" transform="matrix(-1 0 0 1 165.742 136.74)" stroke="#ECECEC" stroke-opacity="0.08" stroke-width="1.47727"/>
<rect x="-0.738635" y="0.738635" width="69.6467" height="31.5598" rx="15.7799" transform="matrix(-1 0 0 1 391.333 198.135)" stroke="#ECECEC" stroke-opacity="0.08" stroke-width="1.47727"/>
<rect x="-0.738635" y="0.738635" width="69.6467" height="31.5598" rx="15.7799" transform="matrix(-1 0 0 1 166.55 177.751)" stroke="#ECECEC" stroke-opacity="0.08" stroke-width="1.47727"/>
<rect x="-0.738635" y="0.738635" width="69.6467" height="31.5598" rx="15.7799" transform="matrix(-1 0 0 1 120.537 -6.98755)" stroke="#ECECEC" stroke-opacity="0.08" stroke-width="1.47727"/>
<rect x="-0.738635" y="0.738635" width="69.6467" height="31.5598" rx="15.7799" transform="matrix(-1 0 0 1 120.982 279.815)" stroke="#ECECEC" stroke-opacity="0.08" stroke-width="1.47727"/>
<rect x="-0.738635" y="0.738635" width="69.6467" height="31.5598" rx="15.7799" transform="matrix(-1 0 0 1 345.76 -27.3779)" stroke="#ECECEC" stroke-opacity="0.08" stroke-width="1.47727"/>
<rect x="-0.738635" y="0.738635" width="69.6467" height="31.5598" rx="15.7799" transform="matrix(-1 0 0 1 346.203 259.421)" stroke="#ECECEC" stroke-opacity="0.08" stroke-width="1.47727"/>
<rect x="-0.738635" y="0.738635" width="69.6467" height="31.5598" rx="15.7799" transform="matrix(-1 0 0 1 120.167 116.305)" stroke="#ECECEC" stroke-opacity="0.08" stroke-width="1.47727"/>
<rect x="-0.738635" y="0.738635" width="69.6467" height="31.5598" rx="15.7799" transform="matrix(-1 0 0 1 345.392 95.9111)" stroke="#ECECEC" stroke-opacity="0.08" stroke-width="1.47727"/>
<rect x="-0.738635" y="0.738635" width="69.6467" height="31.5598" rx="15.7799" transform="matrix(-1 0 0 1 120.905 238.899)" stroke="#ECECEC" stroke-opacity="0.08" stroke-width="1.47727"/>
<rect x="-0.738635" y="0.738635" width="69.6467" height="31.5598" rx="15.7799" transform="matrix(-1 0 0 1 346.13 218.522)" stroke="#ECECEC" stroke-opacity="0.08" stroke-width="1.47727"/>
<rect x="-0.738635" y="0.738635" width="69.6467" height="31.5598" rx="15.7799" transform="matrix(-1 0 0 1 120.092 75.3545)" stroke="#ECECEC" stroke-opacity="0.08" stroke-width="1.47727"/>
<rect x="-0.738635" y="0.738635" width="69.6467" height="31.5598" rx="15.7799" transform="matrix(-1 0 0 1 345.316 54.9895)" stroke="#ECECEC" stroke-opacity="0.08" stroke-width="1.47727"/>
<rect x="-0.738635" y="0.738635" width="69.6467" height="31.5598" rx="15.7799" transform="matrix(-1 0 0 1 120.537 33.8635)" stroke="#ECECEC" stroke-opacity="0.08" stroke-width="1.47727"/>
<rect x="-0.738635" y="0.738635" width="69.6467" height="31.5598" rx="15.7799" transform="matrix(-1 0 0 1 345.76 13.4731)" stroke="#ECECEC" stroke-opacity="0.08" stroke-width="1.47727"/>
<rect x="-0.738635" y="0.738635" width="69.6467" height="31.5598" rx="15.7799" transform="matrix(-1 0 0 1 346.203 300.282)" stroke="#ECECEC" stroke-opacity="0.08" stroke-width="1.47727"/>
<rect x="-0.738635" y="0.738635" width="69.6467" height="31.5598" rx="15.7799" transform="matrix(-1 0 0 1 120.167 157.13)" stroke="#ECECEC" stroke-opacity="0.08" stroke-width="1.47727"/>
<rect x="-0.738635" y="0.738635" width="69.6467" height="31.5598" rx="15.7799" transform="matrix(-1 0 0 1 345.392 136.74)" stroke="#ECECEC" stroke-opacity="0.08" stroke-width="1.47727"/>
<rect x="-0.738635" y="0.738635" width="69.6467" height="31.5598" rx="15.7799" transform="matrix(-1 0 0 1 120.982 198.135)" stroke="#ECECEC" stroke-opacity="0.08" stroke-width="1.47727"/>
<rect x="-0.738635" y="0.738635" width="69.6467" height="31.5598" rx="15.7799" transform="matrix(-1 0 0 1 75.7078 177.751)" stroke="#ECECEC" stroke-opacity="0.08" stroke-width="1.47727"/>
<rect x="-0.738635" y="0.738635" width="69.6467" height="31.5598" rx="15.7799" transform="matrix(-1 0 0 1 346.203 177.751)" stroke="#ECECEC" stroke-opacity="0.08" stroke-width="1.47727"/>
<path d="M219.299 237.442V232.271H224.47V237.442H219.299Z" fill="#FFF5F4"/>
<path d="M218.485 73.9092V68.7388H223.656V73.9092H218.485Z" fill="#FFF5F4"/>
<path d="M218.93 32.3865V27.2161H224.101V32.3865H218.93Z" fill="#FFF5F4"/>
<path d="M263.913 176.059V170.889H269.083V176.059H263.913Z" fill="#FFF5F4"/>
<path d="M218.562 155.676V150.505H223.732V155.676H218.562Z" fill="#FFF5F4"/>
<path d="M219.373 196.645V191.475H224.543V196.645H219.373Z" fill="#FFF5F4"/>
<path d="M174.466 217.49V212.319H179.636V217.49H174.466Z" fill="#FFF5F4"/>
<path d="M174.095 12.5176V7.34717H179.265V12.5176H174.095Z" fill="#FFF5F4"/>
<path d="M174.539 299.323V294.153H179.709V299.323H174.539Z" fill="#FFF5F4"/>
<path d="M174.242 53.5061V48.3357H179.412V53.5061H174.242Z" fill="#FFF5F4"/>
<path d="M38.7036 73.9092V68.7388H43.874V73.9092H38.7036Z" fill="#FFF5F4"/>
<path d="M263.913 53.5061V48.3357H269.083V53.5061H263.913Z" fill="#FFF5F4"/>
<path d="M173.725 135.794V130.623H178.896V135.794H173.725Z" fill="#FFF5F4"/>
<path d="M354.189 257.829V252.658H359.36V257.829H354.189Z" fill="#FFF5F4"/>
<path d="M129.408 237.442V232.271H134.578V237.442H129.408Z" fill="#FFF5F4"/>
<path d="M353.377 94.2774V89.1069H358.547V94.2774H353.377Z" fill="#FFF5F4"/>
<path d="M128.594 73.9092V68.7388H133.764V73.9092H128.594Z" fill="#FFF5F4"/>
<path d="M353.818 52.7735V47.603H358.989V52.7735H353.818Z" fill="#FFF5F4"/>
<path d="M129.039 32.3865V27.2161H134.209V32.3865H129.039Z" fill="#FFF5F4"/>
<path d="M353.451 176.059V170.889H358.621V176.059H353.451Z" fill="#FFF5F4"/>
<path d="M174.021 176.059V170.889H179.191V176.059H174.021Z" fill="#FFF5F4"/>
<path d="M128.669 155.676V150.505H133.839V155.676H128.669Z" fill="#FFF5F4"/>
<path d="M354.263 217.045V211.875H359.434V217.045H354.263Z" fill="#FFF5F4"/>
<path d="M129.481 196.645V191.475H134.652V196.645H129.481Z" fill="#FFF5F4"/>
<path d="M353.744 12.0025V6.83203H358.914V12.0025H353.744Z" fill="#FFF5F4"/>
<path d="M354.189 298.802V293.631H359.36V298.802H354.189Z" fill="#FFF5F4"/>
<path d="M129.408 278.421V273.25H134.578V278.421H129.408Z" fill="#FFF5F4"/>
<path d="M353.377 135.266V130.095H358.547V135.266H353.377Z" fill="#FFF5F4"/>
<path d="M128.594 114.904V109.734H133.764V114.904H128.594Z" fill="#FFF5F4"/>
<path d="M38.9243 237.793V232.623H44.0947V237.793H38.9243Z" fill="#FFF5F4"/>
<path d="M264.133 217.4V212.229H269.304V217.4H264.133Z" fill="#FFF5F4"/>
<path d="M38.5566 32.8279V27.6575H43.7271V32.8279H38.5566Z" fill="#FFF5F4"/>
<path d="M263.766 12.4502V7.27979H268.936V12.4502H263.766Z" fill="#FFF5F4"/>
<path d="M264.21 299.233V294.063H269.38V299.233H264.21Z" fill="#FFF5F4"/>
<path d="M38.1855 156.107V150.937H43.356V156.107H38.1855Z" fill="#FFF5F4"/>
<path d="M263.396 135.723V130.553H268.566V135.723H263.396Z" fill="#FFF5F4"/>
<path d="M219.152 278.421V273.25H224.323V278.421H219.152Z" fill="#FFF5F4"/>
<path d="M218.34 114.904V109.734H223.51V114.904H218.34Z" fill="#FFF5F4"/>
<path d="M174.466 258.389V253.218H179.636V258.389H174.466Z" fill="#FFF5F4"/>
<path d="M173.651 94.8628V89.6924H178.822V94.8628H173.651Z" fill="#FFF5F4"/>
<path d="M83.5376 12.0025V6.83203H88.708V12.0025H83.5376Z" fill="#FFF5F4"/>
<path d="M83.9819 298.802V293.631H89.1523V298.802H83.9819Z" fill="#FFF5F4"/>
<path d="M309.206 278.421V273.25H314.376V278.421H309.206Z" fill="#FFF5F4"/>
<path d="M83.1679 135.266V130.095H88.3384V135.266H83.1679Z" fill="#FFF5F4"/>
<path d="M308.391 114.904V109.734H313.562V114.904H308.391Z" fill="#FFF5F4"/>
<path d="M83.9819 257.829V252.658H89.1523V257.829H83.9819Z" fill="#FFF5F4"/>
<path d="M309.206 237.442V232.271H314.376V237.442H309.206Z" fill="#FFF5F4"/>
<path d="M83.1679 94.2774V89.1069H88.3384V94.2774H83.1679Z" fill="#FFF5F4"/>
<path d="M308.391 73.9092V68.7388H313.562V73.9092H308.391Z" fill="#FFF5F4"/>
<path d="M83.6128 52.7735V47.603H88.7832V52.7735H83.6128Z" fill="#FFF5F4"/>
<path d="M308.836 32.3865V27.2161H314.006V32.3865H308.836Z" fill="#FFF5F4"/>
<path d="M83.2417 176.059V170.889H88.4121V176.059H83.2417Z" fill="#FFF5F4"/>
<path d="M308.466 155.676V150.505H313.637V155.676H308.466Z" fill="#FFF5F4"/>
<path d="M84.0556 217.045V211.875H89.2261V217.045H84.0556Z" fill="#FFF5F4"/>
<path d="M38.7837 196.645V191.475H43.9541V196.645H38.7837Z" fill="#FFF5F4"/>
<path d="M309.277 196.645V191.475H314.448V196.645H309.277Z" fill="#FFF5F4"/>
<path d="M38.9243 278.798V273.628H44.0947V278.798H38.9243Z" fill="#FFF5F4"/>
<path d="M264.133 258.389V253.218H269.304V258.389H264.133Z" fill="#FFF5F4"/>
<path d="M38.1103 115.266V110.095H43.2808V115.266H38.1103Z" fill="#FFF5F4"/>
<path d="M263.322 94.8628V89.6924H268.493V94.8628H263.322Z" fill="#FFF5F4"/>
</g>
</g>
<defs>
<clipPath id="clip0_999_2116">
<rect width="882" height="310.154" rx="155.077" fill="white"/>
</clipPath>
<clipPath id="clip1_999_2116">
<rect width="926.833" height="586.041" fill="white" transform="translate(-129.189 -109.078)"/>
</clipPath>
</defs>
</svg>
