<svg width="1755" height="617" viewBox="0 0 1755 617" fill="none" xmlns="http://www.w3.org/2000/svg">
<g clip-path="url(#clip0_551_2)">
<g clip-path="url(#clip1_551_2)">
<rect x="730.019" y="-52.2318" width="138.551" height="62.7829" rx="31.3915" stroke="#ECECEC" stroke-opacity="0.08" stroke-width="2.93879"/>
<rect x="730.898" y="518.262" width="138.551" height="62.7829" rx="31.3915" stroke="#ECECEC" stroke-opacity="0.08" stroke-width="2.93879"/>
<rect x="283.736" y="477.755" width="138.551" height="62.7829" rx="31.3915" stroke="#ECECEC" stroke-opacity="0.08" stroke-width="2.93879"/>
<rect x="1178.92" y="477.755" width="138.551" height="62.7829" rx="31.3915" stroke="#ECECEC" stroke-opacity="0.08" stroke-width="2.93879"/>
<rect x="729.285" y="192.986" width="138.551" height="62.7829" rx="31.3915" stroke="#ECECEC" stroke-opacity="0.08" stroke-width="2.93879"/>
<rect x="282.118" y="152.413" width="138.551" height="62.7829" rx="31.3915" stroke="#ECECEC" stroke-opacity="0.08" stroke-width="2.93879"/>
<rect x="1177.3" y="152.413" width="138.551" height="62.7829" rx="31.3915" stroke="#ECECEC" stroke-opacity="0.08" stroke-width="2.93879"/>
<rect x="730.754" y="436.902" width="138.551" height="62.7829" rx="31.3915" stroke="#ECECEC" stroke-opacity="0.08" stroke-width="2.93879"/>
<rect x="283.59" y="396.354" width="138.551" height="62.7829" rx="31.3915" stroke="#ECECEC" stroke-opacity="0.08" stroke-width="2.93879"/>
<rect x="1178.77" y="396.354" width="138.551" height="62.7829" rx="31.3915" stroke="#ECECEC" stroke-opacity="0.08" stroke-width="2.93879"/>
<rect x="729.138" y="111.568" width="138.551" height="62.7829" rx="31.3915" stroke="#ECECEC" stroke-opacity="0.08" stroke-width="2.93879"/>
<rect x="281.977" y="71.0446" width="138.551" height="62.7829" rx="31.3915" stroke="#ECECEC" stroke-opacity="0.08" stroke-width="2.93879"/>
<rect x="1177.16" y="71.0446" width="138.551" height="62.7829" rx="31.3915" stroke="#ECECEC" stroke-opacity="0.08" stroke-width="2.93879"/>
<rect x="730.019" y="29.1532" width="138.551" height="62.7829" rx="31.3915" stroke="#ECECEC" stroke-opacity="0.08" stroke-width="2.93879"/>
<rect x="730.898" y="599.705" width="138.551" height="62.7829" rx="31.3915" stroke="#ECECEC" stroke-opacity="0.08" stroke-width="2.93879"/>
<rect x="282.856" y="-11.4198" width="138.551" height="62.7829" rx="31.3915" stroke="#ECECEC" stroke-opacity="0.08" stroke-width="2.93879"/>
<rect x="283.736" y="559.132" width="138.551" height="62.7829" rx="31.3915" stroke="#ECECEC" stroke-opacity="0.08" stroke-width="2.93879"/>
<rect x="1178.04" y="-11.4198" width="138.551" height="62.7829" rx="31.3915" stroke="#ECECEC" stroke-opacity="0.08" stroke-width="2.93879"/>
<rect x="1178.92" y="559.132" width="138.551" height="62.7829" rx="31.3915" stroke="#ECECEC" stroke-opacity="0.08" stroke-width="2.93879"/>
<rect x="729.285" y="274.396" width="138.551" height="62.7829" rx="31.3915" stroke="#ECECEC" stroke-opacity="0.08" stroke-width="2.93879"/>
<rect x="282.118" y="233.848" width="138.551" height="62.7829" rx="31.3915" stroke="#ECECEC" stroke-opacity="0.08" stroke-width="2.93879"/>
<rect x="1177.3" y="233.848" width="138.551" height="62.7829" rx="31.3915" stroke="#ECECEC" stroke-opacity="0.08" stroke-width="2.93879"/>
<rect x="13.3695" y="-52.3966" width="138.551" height="62.7829" rx="31.3915" stroke="#ECECEC" stroke-opacity="0.08" stroke-width="2.93879"/>
<rect x="14.2503" y="518.163" width="138.551" height="62.7829" rx="31.3915" stroke="#ECECEC" stroke-opacity="0.08" stroke-width="2.93879"/>
<rect x="908.553" y="-52.3966" width="138.551" height="62.7829" rx="31.3915" stroke="#ECECEC" stroke-opacity="0.08" stroke-width="2.93879"/>
<rect x="909.433" y="518.163" width="138.551" height="62.7829" rx="31.3915" stroke="#ECECEC" stroke-opacity="0.08" stroke-width="2.93879"/>
<rect x="462.269" y="477.59" width="138.551" height="62.7829" rx="31.3915" stroke="#ECECEC" stroke-opacity="0.08" stroke-width="2.93879"/>
<rect x="1357.45" y="477.59" width="138.551" height="62.7829" rx="31.3915" stroke="#ECECEC" stroke-opacity="0.08" stroke-width="2.93879"/>
<rect x="12.6374" y="192.879" width="138.551" height="62.7829" rx="31.3915" stroke="#ECECEC" stroke-opacity="0.08" stroke-width="2.93879"/>
<rect x="907.816" y="192.879" width="138.551" height="62.7829" rx="31.3915" stroke="#ECECEC" stroke-opacity="0.08" stroke-width="2.93879"/>
<rect x="460.653" y="152.298" width="138.551" height="62.7829" rx="31.3915" stroke="#ECECEC" stroke-opacity="0.08" stroke-width="2.93879"/>
<rect x="1355.83" y="152.298" width="138.551" height="62.7829" rx="31.3915" stroke="#ECECEC" stroke-opacity="0.08" stroke-width="2.93879"/>
<rect x="14.1004" y="436.754" width="138.551" height="62.7829" rx="31.3915" stroke="#ECECEC" stroke-opacity="0.08" stroke-width="2.93879"/>
<rect x="909.281" y="436.754" width="138.551" height="62.7829" rx="31.3915" stroke="#ECECEC" stroke-opacity="0.08" stroke-width="2.93879"/>
<rect x="462.123" y="396.197" width="138.551" height="62.7829" rx="31.3915" stroke="#ECECEC" stroke-opacity="0.08" stroke-width="2.93879"/>
<rect x="1357.3" y="396.197" width="138.551" height="62.7829" rx="31.3915" stroke="#ECECEC" stroke-opacity="0.08" stroke-width="2.93879"/>
<rect x="12.4889" y="111.461" width="138.551" height="62.7829" rx="31.3915" stroke="#ECECEC" stroke-opacity="0.08" stroke-width="2.93879"/>
<rect x="907.669" y="111.461" width="138.551" height="62.7829" rx="31.3915" stroke="#ECECEC" stroke-opacity="0.08" stroke-width="2.93879"/>
<rect x="460.504" y="70.8715" width="138.551" height="62.7829" rx="31.3915" stroke="#ECECEC" stroke-opacity="0.08" stroke-width="2.93879"/>
<rect x="1355.69" y="70.8715" width="138.551" height="62.7829" rx="31.3915" stroke="#ECECEC" stroke-opacity="0.08" stroke-width="2.93879"/>
<rect x="13.3695" y="29.0048" width="138.551" height="62.7829" rx="31.3915" stroke="#ECECEC" stroke-opacity="0.08" stroke-width="2.93879"/>
<rect x="14.2503" y="599.581" width="138.551" height="62.7829" rx="31.3915" stroke="#ECECEC" stroke-opacity="0.08" stroke-width="2.93879"/>
<rect x="908.553" y="29.0048" width="138.551" height="62.7829" rx="31.3915" stroke="#ECECEC" stroke-opacity="0.08" stroke-width="2.93879"/>
<rect x="909.433" y="599.581" width="138.551" height="62.7829" rx="31.3915" stroke="#ECECEC" stroke-opacity="0.08" stroke-width="2.93879"/>
<rect x="461.384" y="-11.5352" width="138.551" height="62.7829" rx="31.3915" stroke="#ECECEC" stroke-opacity="0.08" stroke-width="2.93879"/>
<rect x="462.269" y="559.025" width="138.551" height="62.7829" rx="31.3915" stroke="#ECECEC" stroke-opacity="0.08" stroke-width="2.93879"/>
<rect x="1356.57" y="-11.5352" width="138.551" height="62.7829" rx="31.3915" stroke="#ECECEC" stroke-opacity="0.08" stroke-width="2.93879"/>
<rect x="1357.45" y="559.025" width="138.551" height="62.7829" rx="31.3915" stroke="#ECECEC" stroke-opacity="0.08" stroke-width="2.93879"/>
<rect x="12.6374" y="274.215" width="138.551" height="62.7829" rx="31.3915" stroke="#ECECEC" stroke-opacity="0.08" stroke-width="2.93879"/>
<rect x="907.816" y="274.215" width="138.551" height="62.7829" rx="31.3915" stroke="#ECECEC" stroke-opacity="0.08" stroke-width="2.93879"/>
<rect x="460.653" y="233.666" width="138.551" height="62.7829" rx="31.3915" stroke="#ECECEC" stroke-opacity="0.08" stroke-width="2.93879"/>
<rect x="1355.83" y="233.666" width="138.551" height="62.7829" rx="31.3915" stroke="#ECECEC" stroke-opacity="0.08" stroke-width="2.93879"/>
<rect x="-1.46939" y="1.46939" width="138.551" height="62.7829" rx="31.3915" transform="matrix(-1 0 0 1 60.9492 -13.9109)" stroke="#ECECEC" stroke-opacity="0.08" stroke-width="2.93879"/>
<rect x="-1.46939" y="1.46939" width="138.551" height="62.7829" rx="31.3915" transform="matrix(-1 0 0 1 61.8304 556.641)" stroke="#ECECEC" stroke-opacity="0.08" stroke-width="2.93879"/>
<rect x="-1.46939" y="1.46939" width="138.551" height="62.7829" rx="31.3915" transform="matrix(-1 0 0 1 956.131 -13.9109)" stroke="#ECECEC" stroke-opacity="0.08" stroke-width="2.93879"/>
<rect x="-1.46939" y="1.46939" width="138.551" height="62.7829" rx="31.3915" transform="matrix(-1 0 0 1 957.013 556.641)" stroke="#ECECEC" stroke-opacity="0.08" stroke-width="2.93879"/>
<rect x="-1.46939" y="1.46939" width="138.551" height="62.7829" rx="31.3915" transform="matrix(-1 0 0 1 508.971 -54.4758)" stroke="#ECECEC" stroke-opacity="0.08" stroke-width="2.93879"/>
<rect x="-1.46939" y="1.46939" width="138.551" height="62.7829" rx="31.3915" transform="matrix(-1 0 0 1 509.852 516.068)" stroke="#ECECEC" stroke-opacity="0.08" stroke-width="2.93879"/>
<rect x="-1.46939" y="1.46939" width="138.551" height="62.7829" rx="31.3915" transform="matrix(-1 0 0 1 1404.15 -54.4758)" stroke="#ECECEC" stroke-opacity="0.08" stroke-width="2.93879"/>
<rect x="-1.46939" y="1.46939" width="138.551" height="62.7829" rx="31.3915" transform="matrix(-1 0 0 1 1405.04 516.068)" stroke="#ECECEC" stroke-opacity="0.08" stroke-width="2.93879"/>
<rect x="-1.46939" y="1.46939" width="138.551" height="62.7829" rx="31.3915" transform="matrix(-1 0 0 1 60.2133 231.356)" stroke="#ECECEC" stroke-opacity="0.08" stroke-width="2.93879"/>
<rect x="-1.46939" y="1.46939" width="138.551" height="62.7829" rx="31.3915" transform="matrix(-1 0 0 1 955.396 231.356)" stroke="#ECECEC" stroke-opacity="0.08" stroke-width="2.93879"/>
<rect x="-1.46939" y="1.46939" width="138.551" height="62.7829" rx="31.3915" transform="matrix(-1 0 0 1 508.233 190.792)" stroke="#ECECEC" stroke-opacity="0.08" stroke-width="2.93879"/>
<rect x="-1.46939" y="1.46939" width="138.551" height="62.7829" rx="31.3915" transform="matrix(-1 0 0 1 1403.41 190.792)" stroke="#ECECEC" stroke-opacity="0.08" stroke-width="2.93879"/>
<rect x="-1.46939" y="1.46939" width="138.551" height="62.7829" rx="31.3915" transform="matrix(-1 0 0 1 61.6852 475.24)" stroke="#ECECEC" stroke-opacity="0.08" stroke-width="2.93879"/>
<rect x="-1.46939" y="1.46939" width="138.551" height="62.7829" rx="31.3915" transform="matrix(-1 0 0 1 956.87 475.24)" stroke="#ECECEC" stroke-opacity="0.08" stroke-width="2.93879"/>
<rect x="-1.46939" y="1.46939" width="138.551" height="62.7829" rx="31.3915" transform="matrix(-1 0 0 1 509.706 434.708)" stroke="#ECECEC" stroke-opacity="0.08" stroke-width="2.93879"/>
<rect x="-1.46939" y="1.46939" width="138.551" height="62.7829" rx="31.3915" transform="matrix(-1 0 0 1 1404.88 434.708)" stroke="#ECECEC" stroke-opacity="0.08" stroke-width="2.93879"/>
<rect x="-1.46939" y="1.46939" width="138.551" height="62.7829" rx="31.3915" transform="matrix(-1 0 0 1 60.0722 149.897)" stroke="#ECECEC" stroke-opacity="0.08" stroke-width="2.93879"/>
<rect x="-1.46939" y="1.46939" width="138.551" height="62.7829" rx="31.3915" transform="matrix(-1 0 0 1 955.252 149.897)" stroke="#ECECEC" stroke-opacity="0.08" stroke-width="2.93879"/>
<rect x="-1.46939" y="1.46939" width="138.551" height="62.7829" rx="31.3915" transform="matrix(-1 0 0 1 508.084 109.382)" stroke="#ECECEC" stroke-opacity="0.08" stroke-width="2.93879"/>
<rect x="-1.46939" y="1.46939" width="138.551" height="62.7829" rx="31.3915" transform="matrix(-1 0 0 1 1403.27 109.382)" stroke="#ECECEC" stroke-opacity="0.08" stroke-width="2.93879"/>
<rect x="-1.46939" y="1.46939" width="138.551" height="62.7829" rx="31.3915" transform="matrix(-1 0 0 1 60.9492 67.3586)" stroke="#ECECEC" stroke-opacity="0.08" stroke-width="2.93879"/>
<rect x="-1.46939" y="1.46939" width="138.551" height="62.7829" rx="31.3915" transform="matrix(-1 0 0 1 956.131 67.3586)" stroke="#ECECEC" stroke-opacity="0.08" stroke-width="2.93879"/>
<rect x="-1.46939" y="1.46939" width="138.551" height="62.7829" rx="31.3915" transform="matrix(-1 0 0 1 508.971 26.7939)" stroke="#ECECEC" stroke-opacity="0.08" stroke-width="2.93879"/>
<rect x="-1.46939" y="1.46939" width="138.551" height="62.7829" rx="31.3915" transform="matrix(-1 0 0 1 509.852 597.354)" stroke="#ECECEC" stroke-opacity="0.08" stroke-width="2.93879"/>
<rect x="-1.46939" y="1.46939" width="138.551" height="62.7829" rx="31.3915" transform="matrix(-1 0 0 1 1404.15 26.7939)" stroke="#ECECEC" stroke-opacity="0.08" stroke-width="2.93879"/>
<rect x="-1.46939" y="1.46939" width="138.551" height="62.7829" rx="31.3915" transform="matrix(-1 0 0 1 1405.04 597.354)" stroke="#ECECEC" stroke-opacity="0.08" stroke-width="2.93879"/>
<rect x="-1.46939" y="1.46939" width="138.551" height="62.7829" rx="31.3915" transform="matrix(-1 0 0 1 60.2133 312.577)" stroke="#ECECEC" stroke-opacity="0.08" stroke-width="2.93879"/>
<rect x="-1.46939" y="1.46939" width="138.551" height="62.7829" rx="31.3915" transform="matrix(-1 0 0 1 955.396 312.577)" stroke="#ECECEC" stroke-opacity="0.08" stroke-width="2.93879"/>
<rect x="-1.46939" y="1.46939" width="138.551" height="62.7829" rx="31.3915" transform="matrix(-1 0 0 1 598.482 312.577)" stroke="#ECECEC" stroke-opacity="0.08" stroke-width="2.93879"/>
<rect x="-1.46939" y="1.46939" width="138.551" height="62.7829" rx="31.3915" transform="matrix(-1 0 0 1 1493.61 312.577)" stroke="#ECECEC" stroke-opacity="0.08" stroke-width="2.93879"/>
<rect x="-1.46939" y="1.46939" width="138.551" height="62.7829" rx="31.3915" transform="matrix(-1 0 0 1 508.233 272.012)" stroke="#ECECEC" stroke-opacity="0.08" stroke-width="2.93879"/>
<rect x="-1.46939" y="1.46939" width="138.551" height="62.7829" rx="31.3915" transform="matrix(-1 0 0 1 1403.41 272.012)" stroke="#ECECEC" stroke-opacity="0.08" stroke-width="2.93879"/>
<rect x="-1.46939" y="1.46939" width="138.551" height="62.7829" rx="31.3915" transform="matrix(-1 0 0 1 61.8304 394.151)" stroke="#ECECEC" stroke-opacity="0.08" stroke-width="2.93879"/>
<rect x="-1.46939" y="1.46939" width="138.551" height="62.7829" rx="31.3915" transform="matrix(-1 0 0 1 957.013 394.151)" stroke="#ECECEC" stroke-opacity="0.08" stroke-width="2.93879"/>
<rect x="-1.46939" y="1.46939" width="138.551" height="62.7829" rx="31.3915" transform="matrix(-1 0 0 1 866.954 353.594)" stroke="#ECECEC" stroke-opacity="0.08" stroke-width="2.93879"/>
<rect x="-1.46939" y="1.46939" width="138.551" height="62.7829" rx="31.3915" transform="matrix(-1 0 0 1 509.852 353.594)" stroke="#ECECEC" stroke-opacity="0.08" stroke-width="2.93879"/>
<rect x="-1.46939" y="1.46939" width="138.551" height="62.7829" rx="31.3915" transform="matrix(-1 0 0 1 1405.04 353.594)" stroke="#ECECEC" stroke-opacity="0.08" stroke-width="2.93879"/>
<rect x="-1.46939" y="1.46939" width="138.551" height="62.7829" rx="31.3915" transform="matrix(-1 0 0 1 777.613 -13.9109)" stroke="#ECECEC" stroke-opacity="0.08" stroke-width="2.93879"/>
<rect x="-1.46939" y="1.46939" width="138.551" height="62.7829" rx="31.3915" transform="matrix(-1 0 0 1 778.492 556.641)" stroke="#ECECEC" stroke-opacity="0.08" stroke-width="2.93879"/>
<rect x="-1.46939" y="1.46939" width="138.551" height="62.7829" rx="31.3915" transform="matrix(-1 0 0 1 330.452 -54.4758)" stroke="#ECECEC" stroke-opacity="0.08" stroke-width="2.93879"/>
<rect x="-1.46939" y="1.46939" width="138.551" height="62.7829" rx="31.3915" transform="matrix(-1 0 0 1 331.325 516.068)" stroke="#ECECEC" stroke-opacity="0.08" stroke-width="2.93879"/>
<rect x="-1.46939" y="1.46939" width="138.551" height="62.7829" rx="31.3915" transform="matrix(-1 0 0 1 1225.63 -54.4758)" stroke="#ECECEC" stroke-opacity="0.08" stroke-width="2.93879"/>
<rect x="-1.46939" y="1.46939" width="138.551" height="62.7829" rx="31.3915" transform="matrix(-1 0 0 1 1226.52 516.068)" stroke="#ECECEC" stroke-opacity="0.08" stroke-width="2.93879"/>
<rect x="-1.46939" y="1.46939" width="138.551" height="62.7829" rx="31.3915" transform="matrix(-1 0 0 1 776.878 231.356)" stroke="#ECECEC" stroke-opacity="0.08" stroke-width="2.93879"/>
<rect x="-1.46939" y="1.46939" width="138.551" height="62.7829" rx="31.3915" transform="matrix(-1 0 0 1 329.716 190.792)" stroke="#ECECEC" stroke-opacity="0.08" stroke-width="2.93879"/>
<rect x="-1.46939" y="1.46939" width="138.551" height="62.7829" rx="31.3915" transform="matrix(-1 0 0 1 1224.9 190.792)" stroke="#ECECEC" stroke-opacity="0.08" stroke-width="2.93879"/>
<rect x="-1.46939" y="1.46939" width="138.551" height="62.7829" rx="31.3915" transform="matrix(-1 0 0 1 778.348 475.24)" stroke="#ECECEC" stroke-opacity="0.08" stroke-width="2.93879"/>
<rect x="-1.46939" y="1.46939" width="138.551" height="62.7829" rx="31.3915" transform="matrix(-1 0 0 1 331.185 434.708)" stroke="#ECECEC" stroke-opacity="0.08" stroke-width="2.93879"/>
<rect x="-1.46939" y="1.46939" width="138.551" height="62.7829" rx="31.3915" transform="matrix(-1 0 0 1 1226.36 434.708)" stroke="#ECECEC" stroke-opacity="0.08" stroke-width="2.93879"/>
<rect x="-1.46939" y="1.46939" width="138.551" height="62.7829" rx="31.3915" transform="matrix(-1 0 0 1 776.734 149.897)" stroke="#ECECEC" stroke-opacity="0.08" stroke-width="2.93879"/>
<rect x="-1.46939" y="1.46939" width="138.551" height="62.7829" rx="31.3915" transform="matrix(-1 0 0 1 329.57 109.382)" stroke="#ECECEC" stroke-opacity="0.08" stroke-width="2.93879"/>
<rect x="-1.46939" y="1.46939" width="138.551" height="62.7829" rx="31.3915" transform="matrix(-1 0 0 1 1224.75 109.382)" stroke="#ECECEC" stroke-opacity="0.08" stroke-width="2.93879"/>
<rect x="-1.46939" y="1.46939" width="138.551" height="62.7829" rx="31.3915" transform="matrix(-1 0 0 1 777.613 67.3586)" stroke="#ECECEC" stroke-opacity="0.08" stroke-width="2.93879"/>
<rect x="-1.46939" y="1.46939" width="138.551" height="62.7829" rx="31.3915" transform="matrix(-1 0 0 1 330.452 26.7939)" stroke="#ECECEC" stroke-opacity="0.08" stroke-width="2.93879"/>
<rect x="-1.46939" y="1.46939" width="138.551" height="62.7829" rx="31.3915" transform="matrix(-1 0 0 1 331.325 597.354)" stroke="#ECECEC" stroke-opacity="0.08" stroke-width="2.93879"/>
<rect x="-1.46939" y="1.46939" width="138.551" height="62.7829" rx="31.3915" transform="matrix(-1 0 0 1 1225.63 26.7939)" stroke="#ECECEC" stroke-opacity="0.08" stroke-width="2.93879"/>
<rect x="-1.46939" y="1.46939" width="138.551" height="62.7829" rx="31.3915" transform="matrix(-1 0 0 1 1226.52 597.354)" stroke="#ECECEC" stroke-opacity="0.08" stroke-width="2.93879"/>
<rect x="-1.46939" y="1.46939" width="138.551" height="62.7829" rx="31.3915" transform="matrix(-1 0 0 1 776.878 312.577)" stroke="#ECECEC" stroke-opacity="0.08" stroke-width="2.93879"/>
<rect x="-1.46939" y="1.46939" width="138.551" height="62.7829" rx="31.3915" transform="matrix(-1 0 0 1 419.936 312.577)" stroke="#ECECEC" stroke-opacity="0.08" stroke-width="2.93879"/>
<rect x="-1.46939" y="1.46939" width="138.551" height="62.7829" rx="31.3915" transform="matrix(-1 0 0 1 1315.12 312.577)" stroke="#ECECEC" stroke-opacity="0.08" stroke-width="2.93879"/>
<rect x="-1.46939" y="1.46939" width="138.551" height="62.7829" rx="31.3915" transform="matrix(-1 0 0 1 329.716 272.012)" stroke="#ECECEC" stroke-opacity="0.08" stroke-width="2.93879"/>
<rect x="-1.46939" y="1.46939" width="138.551" height="62.7829" rx="31.3915" transform="matrix(-1 0 0 1 1224.9 272.012)" stroke="#ECECEC" stroke-opacity="0.08" stroke-width="2.93879"/>
<rect x="-1.46939" y="1.46939" width="138.551" height="62.7829" rx="31.3915" transform="matrix(-1 0 0 1 778.492 394.151)" stroke="#ECECEC" stroke-opacity="0.08" stroke-width="2.93879"/>
<rect x="-1.46939" y="1.46939" width="138.551" height="62.7829" rx="31.3915" transform="matrix(-1 0 0 1 331.325 353.594)" stroke="#ECECEC" stroke-opacity="0.08" stroke-width="2.93879"/>
<rect x="-1.46939" y="1.46939" width="138.551" height="62.7829" rx="31.3915" transform="matrix(-1 0 0 1 1226.52 353.594)" stroke="#ECECEC" stroke-opacity="0.08" stroke-width="2.93879"/>
<rect x="-1.46939" y="1.46939" width="138.551" height="62.7829" rx="31.3915" transform="matrix(-1 0 0 1 239.789 -13.9109)" stroke="#ECECEC" stroke-opacity="0.08" stroke-width="2.93879"/>
<rect x="-1.46939" y="1.46939" width="138.551" height="62.7829" rx="31.3915" transform="matrix(-1 0 0 1 240.673 556.641)" stroke="#ECECEC" stroke-opacity="0.08" stroke-width="2.93879"/>
<rect x="-1.46939" y="1.46939" width="138.551" height="62.7829" rx="31.3915" transform="matrix(-1 0 0 1 1134.97 -13.9109)" stroke="#ECECEC" stroke-opacity="0.08" stroke-width="2.93879"/>
<rect x="-1.46939" y="1.46939" width="138.551" height="62.7829" rx="31.3915" transform="matrix(-1 0 0 1 1135.85 556.641)" stroke="#ECECEC" stroke-opacity="0.08" stroke-width="2.93879"/>
<rect x="-1.46939" y="1.46939" width="138.551" height="62.7829" rx="31.3915" transform="matrix(-1 0 0 1 687.833 -54.4758)" stroke="#ECECEC" stroke-opacity="0.08" stroke-width="2.93879"/>
<rect x="-1.46939" y="1.46939" width="138.551" height="62.7829" rx="31.3915" transform="matrix(-1 0 0 1 688.716 516.068)" stroke="#ECECEC" stroke-opacity="0.08" stroke-width="2.93879"/>
<rect x="-1.46939" y="1.46939" width="138.551" height="62.7829" rx="31.3915" transform="matrix(-1 0 0 1 1582.96 -54.4758)" stroke="#ECECEC" stroke-opacity="0.08" stroke-width="2.93879"/>
<rect x="-1.46939" y="1.46939" width="138.551" height="62.7829" rx="31.3915" transform="matrix(-1 0 0 1 1583.84 516.068)" stroke="#ECECEC" stroke-opacity="0.08" stroke-width="2.93879"/>
<rect x="-1.46939" y="1.46939" width="138.551" height="62.7829" rx="31.3915" transform="matrix(-1 0 0 1 239.055 231.356)" stroke="#ECECEC" stroke-opacity="0.08" stroke-width="2.93879"/>
<rect x="-1.46939" y="1.46939" width="138.551" height="62.7829" rx="31.3915" transform="matrix(-1 0 0 1 1134.24 231.356)" stroke="#ECECEC" stroke-opacity="0.08" stroke-width="2.93879"/>
<rect x="-1.46939" y="1.46939" width="138.551" height="62.7829" rx="31.3915" transform="matrix(-1 0 0 1 687.101 190.792)" stroke="#ECECEC" stroke-opacity="0.08" stroke-width="2.93879"/>
<rect x="-1.46939" y="1.46939" width="138.551" height="62.7829" rx="31.3915" transform="matrix(-1 0 0 1 1582.22 190.792)" stroke="#ECECEC" stroke-opacity="0.08" stroke-width="2.93879"/>
<rect x="-1.46939" y="1.46939" width="138.551" height="62.7829" rx="31.3915" transform="matrix(-1 0 0 1 240.521 475.24)" stroke="#ECECEC" stroke-opacity="0.08" stroke-width="2.93879"/>
<rect x="-1.46939" y="1.46939" width="138.551" height="62.7829" rx="31.3915" transform="matrix(-1 0 0 1 1135.7 475.24)" stroke="#ECECEC" stroke-opacity="0.08" stroke-width="2.93879"/>
<rect x="-1.46939" y="1.46939" width="138.551" height="62.7829" rx="31.3915" transform="matrix(-1 0 0 1 688.57 434.708)" stroke="#ECECEC" stroke-opacity="0.08" stroke-width="2.93879"/>
<rect x="-1.46939" y="1.46939" width="138.551" height="62.7829" rx="31.3915" transform="matrix(-1 0 0 1 1583.69 434.708)" stroke="#ECECEC" stroke-opacity="0.08" stroke-width="2.93879"/>
<rect x="-1.46939" y="1.46939" width="138.551" height="62.7829" rx="31.3915" transform="matrix(-1 0 0 1 238.904 149.897)" stroke="#ECECEC" stroke-opacity="0.08" stroke-width="2.93879"/>
<rect x="-1.46939" y="1.46939" width="138.551" height="62.7829" rx="31.3915" transform="matrix(-1 0 0 1 1134.09 149.897)" stroke="#ECECEC" stroke-opacity="0.08" stroke-width="2.93879"/>
<rect x="-1.46939" y="1.46939" width="138.551" height="62.7829" rx="31.3915" transform="matrix(-1 0 0 1 686.949 109.382)" stroke="#ECECEC" stroke-opacity="0.08" stroke-width="2.93879"/>
<rect x="-1.46939" y="1.46939" width="138.551" height="62.7829" rx="31.3915" transform="matrix(-1 0 0 1 1582.08 109.382)" stroke="#ECECEC" stroke-opacity="0.08" stroke-width="2.93879"/>
<rect x="-1.46939" y="1.46939" width="138.551" height="62.7829" rx="31.3915" transform="matrix(-1 0 0 1 239.789 67.3586)" stroke="#ECECEC" stroke-opacity="0.08" stroke-width="2.93879"/>
<rect x="-1.46939" y="1.46939" width="138.551" height="62.7829" rx="31.3915" transform="matrix(-1 0 0 1 1134.97 67.3586)" stroke="#ECECEC" stroke-opacity="0.08" stroke-width="2.93879"/>
<rect x="-1.46939" y="1.46939" width="138.551" height="62.7829" rx="31.3915" transform="matrix(-1 0 0 1 687.833 26.7939)" stroke="#ECECEC" stroke-opacity="0.08" stroke-width="2.93879"/>
<rect x="-1.46939" y="1.46939" width="138.551" height="62.7829" rx="31.3915" transform="matrix(-1 0 0 1 688.716 597.354)" stroke="#ECECEC" stroke-opacity="0.08" stroke-width="2.93879"/>
<rect x="-1.46939" y="1.46939" width="138.551" height="62.7829" rx="31.3915" transform="matrix(-1 0 0 1 1582.96 26.7939)" stroke="#ECECEC" stroke-opacity="0.08" stroke-width="2.93879"/>
<rect x="-1.46939" y="1.46939" width="138.551" height="62.7829" rx="31.3915" transform="matrix(-1 0 0 1 1583.84 597.354)" stroke="#ECECEC" stroke-opacity="0.08" stroke-width="2.93879"/>
<rect x="-1.46939" y="1.46939" width="138.551" height="62.7829" rx="31.3915" transform="matrix(-1 0 0 1 239.055 312.577)" stroke="#ECECEC" stroke-opacity="0.08" stroke-width="2.93879"/>
<rect x="-1.46939" y="1.46939" width="138.551" height="62.7829" rx="31.3915" transform="matrix(-1 0 0 1 1134.24 312.577)" stroke="#ECECEC" stroke-opacity="0.08" stroke-width="2.93879"/>
<rect x="-1.46939" y="1.46939" width="138.551" height="62.7829" rx="31.3915" transform="matrix(-1 0 0 1 687.101 272.012)" stroke="#ECECEC" stroke-opacity="0.08" stroke-width="2.93879"/>
<rect x="-1.46939" y="1.46939" width="138.551" height="62.7829" rx="31.3915" transform="matrix(-1 0 0 1 1582.22 272.012)" stroke="#ECECEC" stroke-opacity="0.08" stroke-width="2.93879"/>
<rect x="-1.46939" y="1.46939" width="138.551" height="62.7829" rx="31.3915" transform="matrix(-1 0 0 1 240.673 394.151)" stroke="#ECECEC" stroke-opacity="0.08" stroke-width="2.93879"/>
<rect x="-1.46939" y="1.46939" width="138.551" height="62.7829" rx="31.3915" transform="matrix(-1 0 0 1 1135.85 394.151)" stroke="#ECECEC" stroke-opacity="0.08" stroke-width="2.93879"/>
<rect x="-1.46939" y="1.46939" width="138.551" height="62.7829" rx="31.3915" transform="matrix(-1 0 0 1 150.609 353.594)" stroke="#ECECEC" stroke-opacity="0.08" stroke-width="2.93879"/>
<rect x="-1.46939" y="1.46939" width="138.551" height="62.7829" rx="31.3915" transform="matrix(-1 0 0 1 1045.8 353.594)" stroke="#ECECEC" stroke-opacity="0.08" stroke-width="2.93879"/>
<rect x="-1.46939" y="1.46939" width="138.551" height="62.7829" rx="31.3915" transform="matrix(-1 0 0 1 688.716 353.594)" stroke="#ECECEC" stroke-opacity="0.08" stroke-width="2.93879"/>
<rect x="-1.46939" y="1.46939" width="138.551" height="62.7829" rx="31.3915" transform="matrix(-1 0 0 1 1583.84 353.594)" stroke="#ECECEC" stroke-opacity="0.08" stroke-width="2.93879"/>
<path d="M883.426 512.898V502.612H893.711V512.898H883.426Z" fill="#FFF5F4"/>
<path d="M436.258 472.341V462.056H446.544V472.341H436.258Z" fill="#FFF5F4"/>
<path d="M1331.44 472.341V462.056H1341.73V472.341H1331.44Z" fill="#FFF5F4"/>
<path d="M881.805 187.539V177.253H892.09V187.539H881.805Z" fill="#FFF5F4"/>
<path d="M434.641 147.024V136.738H444.927V147.024H434.641Z" fill="#FFF5F4"/>
<path d="M1329.82 147.024V136.738H1340.11V147.024H1329.82Z" fill="#FFF5F4"/>
<path d="M882.689 104.976V94.6902H892.975V104.976H882.689Z" fill="#FFF5F4"/>
<path d="M435.524 64.4195V54.1338H445.81V64.4195H435.524Z" fill="#FFF5F4"/>
<path d="M1330.71 64.4195V54.1338H1340.99V64.4195H1330.71Z" fill="#FFF5F4"/>
<path d="M881.957 350.235V339.949H892.243V350.235H881.957Z" fill="#FFF5F4"/>
<path d="M525.011 350.235V339.949H535.297V350.235H525.011Z" fill="#FFF5F4"/>
<path d="M1420.19 350.235V339.949H1430.48V350.235H1420.19Z" fill="#FFF5F4"/>
<path d="M434.792 309.679V299.393H445.077V309.679H434.792Z" fill="#FFF5F4"/>
<path d="M1329.97 309.679V299.393H1340.25V309.679H1329.97Z" fill="#FFF5F4"/>
<path d="M883.575 431.768V421.483H893.861V431.768H883.575Z" fill="#FFF5F4"/>
<path d="M793.51 391.187V380.901H803.796V391.187H793.51Z" fill="#FFF5F4"/>
<path d="M436.406 391.187V380.901H446.691V391.187H436.406Z" fill="#FFF5F4"/>
<path d="M1331.59 391.187V380.901H1341.88V391.187H1331.59Z" fill="#FFF5F4"/>
<path d="M794.229 473.19V462.904H804.515V473.19H794.229Z" fill="#FFF5F4"/>
<path d="M347.069 432.65V422.364H357.355V432.65H347.069Z" fill="#FFF5F4"/>
<path d="M1242.25 432.65V422.364H1252.54V432.65H1242.25Z" fill="#FFF5F4"/>
<path d="M793.493 65.4823V55.1965H803.779V65.4823H793.493Z" fill="#FFF5F4"/>
<path d="M346.332 24.8929V14.6072H356.617V24.8929H346.332Z" fill="#FFF5F4"/>
<path d="M347.217 595.445V585.159H357.503V595.445H347.217Z" fill="#FFF5F4"/>
<path d="M1241.52 24.8929V14.6072H1251.8V24.8929H1241.52Z" fill="#FFF5F4"/>
<path d="M1242.4 595.445V585.159H1252.68V595.445H1242.4Z" fill="#FFF5F4"/>
<path d="M793.793 147.024V136.738H804.078V147.024H793.793Z" fill="#FFF5F4"/>
<path d="M346.624 106.434V96.1487H356.91V106.434H346.624Z" fill="#FFF5F4"/>
<path d="M1241.81 106.434V96.1487H1252.09V106.434H1241.81Z" fill="#FFF5F4"/>
<path d="M76.9953 147.024V136.738H87.281V147.024H76.9953Z" fill="#FFF5F4"/>
<path d="M972.179 147.024V136.738H982.465V147.024H972.179Z" fill="#FFF5F4"/>
<path d="M525.011 106.434V96.1487H535.297V106.434H525.011Z" fill="#FFF5F4"/>
<path d="M1420.19 106.434V96.1487H1430.48V106.434H1420.19Z" fill="#FFF5F4"/>
<path d="M792.76 310.684V300.398H803.045V310.684H792.76Z" fill="#FFF5F4"/>
<path d="M345.599 270.127V259.842H355.885V270.127H345.599Z" fill="#FFF5F4"/>
<path d="M1240.78 270.127V259.842H1251.07V270.127H1240.78Z" fill="#FFF5F4"/>
<path d="M704.601 512.898V502.612H714.887V512.898H704.601Z" fill="#FFF5F4"/>
<path d="M257.434 472.341V462.056H267.72V472.341H257.434Z" fill="#FFF5F4"/>
<path d="M1152.62 472.341V462.056H1162.9V472.341H1152.62Z" fill="#FFF5F4"/>
<path d="M702.985 187.539V177.253H713.271V187.539H702.985Z" fill="#FFF5F4"/>
<path d="M255.818 147.024V136.738H266.104V147.024H255.818Z" fill="#FFF5F4"/>
<path d="M1151 147.024V136.738H1161.29V147.024H1151Z" fill="#FFF5F4"/>
<path d="M703.863 104.976V94.6902H714.149V104.976H703.863Z" fill="#FFF5F4"/>
<path d="M256.7 64.4195V54.1338H266.985V64.4195H256.7Z" fill="#FFF5F4"/>
<path d="M1151.88 64.4195V54.1338H1162.17V64.4195H1151.88Z" fill="#FFF5F4"/>
<path d="M703.133 350.235V339.949H713.418V350.235H703.133Z" fill="#FFF5F4"/>
<path d="M346.186 350.235V339.949H356.472V350.235H346.186Z" fill="#FFF5F4"/>
<path d="M1241.37 350.235V339.949H1251.66V350.235H1241.37Z" fill="#FFF5F4"/>
<path d="M255.966 309.679V299.393H266.252V309.679H255.966Z" fill="#FFF5F4"/>
<path d="M1151.15 309.679V299.393H1161.43V309.679H1151.15Z" fill="#FFF5F4"/>
<path d="M704.748 431.768V421.483H715.033V431.768H704.748Z" fill="#FFF5F4"/>
<path d="M257.581 391.187V380.901H267.867V391.187H257.581Z" fill="#FFF5F4"/>
<path d="M1152.77 391.187V380.901H1163.05V391.187H1152.77Z" fill="#FFF5F4"/>
<path d="M703.716 23.8712V13.5854H714.001V23.8712H703.716Z" fill="#FFF5F4"/>
<path d="M704.601 594.407V584.121H714.887V594.407H704.601Z" fill="#FFF5F4"/>
<path d="M257.434 553.867V543.581H267.72V553.867H257.434Z" fill="#FFF5F4"/>
<path d="M1152.62 553.867V543.581H1162.9V553.867H1152.62Z" fill="#FFF5F4"/>
<path d="M702.985 269.081V258.795H713.271V269.081H702.985Z" fill="#FFF5F4"/>
<path d="M255.818 228.574V218.288H266.104V228.574H255.818Z" fill="#FFF5F4"/>
<path d="M1151 228.574V218.288H1161.29V228.574H1151Z" fill="#FFF5F4"/>
<path d="M77.4319 473.042V462.756H87.7177V473.042H77.4319Z" fill="#FFF5F4"/>
<path d="M972.616 473.042V462.756H982.902V473.042H972.616Z" fill="#FFF5F4"/>
<path d="M525.451 432.477V422.191H535.736V432.477H525.451Z" fill="#FFF5F4"/>
<path d="M1420.64 432.477V422.191H1430.92V432.477H1420.64Z" fill="#FFF5F4"/>
<path d="M76.7006 65.3011V55.0154H86.9863V65.3011H76.7006Z" fill="#FFF5F4"/>
<path d="M971.885 65.3011V55.0154H982.17V65.3011H971.885Z" fill="#FFF5F4"/>
<path d="M524.718 24.7611V14.4753H535.004V24.7611H524.718Z" fill="#FFF5F4"/>
<path d="M525.602 595.264V584.978H535.888V595.264H525.602Z" fill="#FFF5F4"/>
<path d="M1419.9 24.7611V14.4753H1430.19V24.7611H1419.9Z" fill="#FFF5F4"/>
<path d="M1420.78 595.264V584.978H1431.07V595.264H1420.78Z" fill="#FFF5F4"/>
<path d="M75.9647 310.544V300.258H86.2505V310.544H75.9647Z" fill="#FFF5F4"/>
<path d="M971.146 310.544V300.258H981.432V310.544H971.146Z" fill="#FFF5F4"/>
<path d="M523.982 269.987V259.701H534.268V269.987H523.982Z" fill="#FFF5F4"/>
<path d="M1419.16 269.987V259.701H1429.45V269.987H1419.16Z" fill="#FFF5F4"/>
<path d="M882.248 23.8712V13.5854H892.534V23.8712H882.248Z" fill="#FFF5F4"/>
<path d="M883.13 594.407V584.121H893.416V594.407H883.13Z" fill="#FFF5F4"/>
<path d="M435.966 553.867V543.581H446.252V553.867H435.966Z" fill="#FFF5F4"/>
<path d="M1331.15 553.867V543.581H1341.44V553.867H1331.15Z" fill="#FFF5F4"/>
<path d="M881.513 269.081V258.795H891.799V269.081H881.513Z" fill="#FFF5F4"/>
<path d="M434.352 228.574V218.288H444.638V228.574H434.352Z" fill="#FFF5F4"/>
<path d="M1329.53 228.574V218.288H1339.82V228.574H1329.53Z" fill="#FFF5F4"/>
<path d="M794.229 554.616V544.331H804.515V554.616H794.229Z" fill="#FFF5F4"/>
<path d="M347.069 514.01V503.725H357.355V514.01H347.069Z" fill="#FFF5F4"/>
<path d="M1242.25 514.01V503.725H1252.54V514.01H1242.25Z" fill="#FFF5F4"/>
<path d="M792.615 229.291V219.005H802.901V229.291H792.615Z" fill="#FFF5F4"/>
<path d="M345.451 188.701V178.415H355.737V188.701H345.451Z" fill="#FFF5F4"/>
<path d="M1240.63 188.701V178.415H1250.92V188.701H1240.63Z" fill="#FFF5F4"/>
<path d="M166.185 23.8712V13.5854H176.471V23.8712H166.185Z" fill="#FFF5F4"/>
<path d="M167.07 594.407V584.121H177.355V594.407H167.07Z" fill="#FFF5F4"/>
<path d="M1061.37 23.8712V13.5854H1071.66V23.8712H1061.37Z" fill="#FFF5F4"/>
<path d="M1062.25 594.407V584.121H1072.54V594.407H1062.25Z" fill="#FFF5F4"/>
<path d="M615.115 553.867V543.581H625.4V553.867H615.115Z" fill="#FFF5F4"/>
<path d="M1510.24 553.867V543.581H1520.52V553.867H1510.24Z" fill="#FFF5F4"/>
<path d="M165.449 269.081V258.795H175.735V269.081H165.449Z" fill="#FFF5F4"/>
<path d="M1060.63 269.081V258.795H1070.92V269.081H1060.63Z" fill="#FFF5F4"/>
<path d="M613.495 228.574V218.288H623.781V228.574H613.495Z" fill="#FFF5F4"/>
<path d="M1508.62 228.574V218.288H1518.91V228.574H1508.62Z" fill="#FFF5F4"/>
<path d="M167.07 512.898V502.612H177.355V512.898H167.07Z" fill="#FFF5F4"/>
<path d="M1062.25 512.898V502.612H1072.54V512.898H1062.25Z" fill="#FFF5F4"/>
<path d="M615.115 472.341V462.056H625.4V472.341H615.115Z" fill="#FFF5F4"/>
<path d="M1510.24 472.341V462.056H1520.52V472.341H1510.24Z" fill="#FFF5F4"/>
<path d="M165.449 187.539V177.253H175.735V187.539H165.449Z" fill="#FFF5F4"/>
<path d="M1060.63 187.539V177.253H1070.92V187.539H1060.63Z" fill="#FFF5F4"/>
<path d="M613.495 147.024V136.738H623.781V147.024H613.495Z" fill="#FFF5F4"/>
<path d="M1508.62 147.024V136.738H1518.91V147.024H1508.62Z" fill="#FFF5F4"/>
<path d="M166.333 104.976V94.6902H176.619V104.976H166.333Z" fill="#FFF5F4"/>
<path d="M1061.51 104.976V94.6902H1071.8V104.976H1061.51Z" fill="#FFF5F4"/>
<path d="M614.38 64.4195V54.1338H624.666V64.4195H614.38Z" fill="#FFF5F4"/>
<path d="M1509.51 64.4195V54.1338H1519.8V64.4195H1509.51Z" fill="#FFF5F4"/>
<path d="M165.597 350.235V339.949H175.883V350.235H165.597Z" fill="#FFF5F4"/>
<path d="M1060.78 350.235V339.949H1071.07V350.235H1060.78Z" fill="#FFF5F4"/>
<path d="M613.644 309.679V299.393H623.93V309.679H613.644Z" fill="#FFF5F4"/>
<path d="M1508.77 309.679V299.393H1519.06V309.679H1508.77Z" fill="#FFF5F4"/>
<path d="M167.216 431.768V421.483H177.502V431.768H167.216Z" fill="#FFF5F4"/>
<path d="M1062.4 431.768V421.483H1072.69V431.768H1062.4Z" fill="#FFF5F4"/>
<path d="M77.1533 391.187V380.901H87.4391V391.187H77.1533Z" fill="#FFF5F4"/>
<path d="M972.335 391.187V380.901H982.621V391.187H972.335Z" fill="#FFF5F4"/>
<path d="M615.258 391.187V380.901H625.543V391.187H615.258Z" fill="#FFF5F4"/>
<path d="M1510.39 391.187V380.901H1520.67V391.187H1510.39Z" fill="#FFF5F4"/>
<path d="M77.4319 554.616V544.331H87.7177V554.616H77.4319Z" fill="#FFF5F4"/>
<path d="M972.616 554.616V544.331H982.902V554.616H972.616Z" fill="#FFF5F4"/>
<path d="M525.451 514.01V503.725H535.736V514.01H525.451Z" fill="#FFF5F4"/>
<path d="M1420.64 514.01V503.725H1430.92V514.01H1420.64Z" fill="#FFF5F4"/>
<path d="M75.8164 229.291V219.005H86.1022V229.291H75.8164Z" fill="#FFF5F4"/>
<path d="M971.002 229.291V219.005H981.288V229.291H971.002Z" fill="#FFF5F4"/>
<path d="M523.835 188.701V178.415H534.12V188.701H523.835Z" fill="#FFF5F4"/>
<path d="M1419.02 188.701V178.415H1429.3V188.701H1419.02Z" fill="#FFF5F4"/>
</g>
</g>
<defs>
<clipPath id="clip0_551_2">
<rect width="1754.59" height="617" rx="308.5" fill="white"/>
</clipPath>
<clipPath id="clip1_551_2">
<rect width="1843.78" height="1165.83" fill="white" transform="translate(-257 -217)"/>
</clipPath>
</defs>
</svg>
