<svg width="617" height="617" viewBox="0 0 617 617" fill="none" xmlns="http://www.w3.org/2000/svg">
<g clip-path="url(#clip0_999_108)">
<g clip-path="url(#clip1_999_108)">
<rect x="283.736" y="477.755" width="138.551" height="62.7829" rx="31.3915" stroke="#ECECEC" stroke-opacity="0.08" stroke-width="2.93879"/>
<rect x="282.118" y="152.413" width="138.551" height="62.7829" rx="31.3915" stroke="#ECECEC" stroke-opacity="0.08" stroke-width="2.93879"/>
<rect x="283.59" y="396.354" width="138.551" height="62.7829" rx="31.3915" stroke="#ECECEC" stroke-opacity="0.08" stroke-width="2.93879"/>
<rect x="281.978" y="71.0446" width="138.551" height="62.7829" rx="31.3915" stroke="#ECECEC" stroke-opacity="0.08" stroke-width="2.93879"/>
<rect x="282.856" y="-11.4199" width="138.551" height="62.7829" rx="31.3915" stroke="#ECECEC" stroke-opacity="0.08" stroke-width="2.93879"/>
<rect x="283.736" y="559.132" width="138.551" height="62.7829" rx="31.3915" stroke="#ECECEC" stroke-opacity="0.08" stroke-width="2.93879"/>
<rect x="282.118" y="233.848" width="138.551" height="62.7829" rx="31.3915" stroke="#ECECEC" stroke-opacity="0.08" stroke-width="2.93879"/>
<rect x="13.3698" y="-52.3967" width="138.551" height="62.7829" rx="31.3915" stroke="#ECECEC" stroke-opacity="0.08" stroke-width="2.93879"/>
<rect x="14.2506" y="518.163" width="138.551" height="62.7829" rx="31.3915" stroke="#ECECEC" stroke-opacity="0.08" stroke-width="2.93879"/>
<rect x="462.27" y="477.59" width="138.551" height="62.7829" rx="31.3915" stroke="#ECECEC" stroke-opacity="0.08" stroke-width="2.93879"/>
<rect x="12.6374" y="192.879" width="138.551" height="62.7829" rx="31.3915" stroke="#ECECEC" stroke-opacity="0.08" stroke-width="2.93879"/>
<rect x="460.653" y="152.298" width="138.551" height="62.7829" rx="31.3915" stroke="#ECECEC" stroke-opacity="0.08" stroke-width="2.93879"/>
<rect x="14.1003" y="436.754" width="138.551" height="62.7829" rx="31.3915" stroke="#ECECEC" stroke-opacity="0.08" stroke-width="2.93879"/>
<rect x="462.123" y="396.197" width="138.551" height="62.7829" rx="31.3915" stroke="#ECECEC" stroke-opacity="0.08" stroke-width="2.93879"/>
<rect x="12.4889" y="111.461" width="138.551" height="62.7829" rx="31.3915" stroke="#ECECEC" stroke-opacity="0.08" stroke-width="2.93879"/>
<rect x="460.504" y="70.8715" width="138.551" height="62.7829" rx="31.3915" stroke="#ECECEC" stroke-opacity="0.08" stroke-width="2.93879"/>
<rect x="13.3698" y="29.0048" width="138.551" height="62.7829" rx="31.3915" stroke="#ECECEC" stroke-opacity="0.08" stroke-width="2.93879"/>
<rect x="14.2506" y="599.581" width="138.551" height="62.7829" rx="31.3915" stroke="#ECECEC" stroke-opacity="0.08" stroke-width="2.93879"/>
<rect x="461.384" y="-11.5352" width="138.551" height="62.7829" rx="31.3915" stroke="#ECECEC" stroke-opacity="0.08" stroke-width="2.93879"/>
<rect x="462.27" y="559.025" width="138.551" height="62.7829" rx="31.3915" stroke="#ECECEC" stroke-opacity="0.08" stroke-width="2.93879"/>
<rect x="12.6374" y="274.215" width="138.551" height="62.7829" rx="31.3915" stroke="#ECECEC" stroke-opacity="0.08" stroke-width="2.93879"/>
<rect x="460.653" y="233.666" width="138.551" height="62.7829" rx="31.3915" stroke="#ECECEC" stroke-opacity="0.08" stroke-width="2.93879"/>
<rect x="-1.46939" y="1.46939" width="138.551" height="62.7829" rx="31.3915" transform="matrix(-1 0 0 1 60.9494 -13.911)" stroke="#ECECEC" stroke-opacity="0.08" stroke-width="2.93879"/>
<rect x="-1.46939" y="1.46939" width="138.551" height="62.7829" rx="31.3915" transform="matrix(-1 0 0 1 61.8307 556.641)" stroke="#ECECEC" stroke-opacity="0.08" stroke-width="2.93879"/>
<rect x="-1.46939" y="1.46939" width="138.551" height="62.7829" rx="31.3915" transform="matrix(-1 0 0 1 508.971 -54.4758)" stroke="#ECECEC" stroke-opacity="0.08" stroke-width="2.93879"/>
<rect x="-1.46939" y="1.46939" width="138.551" height="62.7829" rx="31.3915" transform="matrix(-1 0 0 1 509.852 516.068)" stroke="#ECECEC" stroke-opacity="0.08" stroke-width="2.93879"/>
<rect x="-1.46939" y="1.46939" width="138.551" height="62.7829" rx="31.3915" transform="matrix(-1 0 0 1 60.2136 231.356)" stroke="#ECECEC" stroke-opacity="0.08" stroke-width="2.93879"/>
<rect x="-1.46939" y="1.46939" width="138.551" height="62.7829" rx="31.3915" transform="matrix(-1 0 0 1 508.233 190.792)" stroke="#ECECEC" stroke-opacity="0.08" stroke-width="2.93879"/>
<rect x="-1.46939" y="1.46939" width="138.551" height="62.7829" rx="31.3915" transform="matrix(-1 0 0 1 61.6852 475.24)" stroke="#ECECEC" stroke-opacity="0.08" stroke-width="2.93879"/>
<rect x="-1.46939" y="1.46939" width="138.551" height="62.7829" rx="31.3915" transform="matrix(-1 0 0 1 509.706 434.708)" stroke="#ECECEC" stroke-opacity="0.08" stroke-width="2.93879"/>
<rect x="-1.46939" y="1.46939" width="138.551" height="62.7829" rx="31.3915" transform="matrix(-1 0 0 1 60.0724 149.897)" stroke="#ECECEC" stroke-opacity="0.08" stroke-width="2.93879"/>
<rect x="-1.46939" y="1.46939" width="138.551" height="62.7829" rx="31.3915" transform="matrix(-1 0 0 1 508.084 109.382)" stroke="#ECECEC" stroke-opacity="0.08" stroke-width="2.93879"/>
<rect x="-1.46939" y="1.46939" width="138.551" height="62.7829" rx="31.3915" transform="matrix(-1 0 0 1 60.9494 67.3586)" stroke="#ECECEC" stroke-opacity="0.08" stroke-width="2.93879"/>
<rect x="-1.46939" y="1.46939" width="138.551" height="62.7829" rx="31.3915" transform="matrix(-1 0 0 1 508.971 26.7938)" stroke="#ECECEC" stroke-opacity="0.08" stroke-width="2.93879"/>
<rect x="-1.46939" y="1.46939" width="138.551" height="62.7829" rx="31.3915" transform="matrix(-1 0 0 1 509.852 597.354)" stroke="#ECECEC" stroke-opacity="0.08" stroke-width="2.93879"/>
<rect x="-1.46939" y="1.46939" width="138.551" height="62.7829" rx="31.3915" transform="matrix(-1 0 0 1 60.2136 312.577)" stroke="#ECECEC" stroke-opacity="0.08" stroke-width="2.93879"/>
<rect x="-1.46939" y="1.46939" width="138.551" height="62.7829" rx="31.3915" transform="matrix(-1 0 0 1 598.482 312.577)" stroke="#ECECEC" stroke-opacity="0.08" stroke-width="2.93879"/>
<rect x="-1.46939" y="1.46939" width="138.551" height="62.7829" rx="31.3915" transform="matrix(-1 0 0 1 508.233 272.012)" stroke="#ECECEC" stroke-opacity="0.08" stroke-width="2.93879"/>
<rect x="-1.46939" y="1.46939" width="138.551" height="62.7829" rx="31.3915" transform="matrix(-1 0 0 1 61.8307 394.151)" stroke="#ECECEC" stroke-opacity="0.08" stroke-width="2.93879"/>
<rect x="-1.46939" y="1.46939" width="138.551" height="62.7829" rx="31.3915" transform="matrix(-1 0 0 1 509.852 353.594)" stroke="#ECECEC" stroke-opacity="0.08" stroke-width="2.93879"/>
<rect x="-1.46939" y="1.46939" width="138.551" height="62.7829" rx="31.3915" transform="matrix(-1 0 0 1 330.452 -54.4758)" stroke="#ECECEC" stroke-opacity="0.08" stroke-width="2.93879"/>
<rect x="-1.46939" y="1.46939" width="138.551" height="62.7829" rx="31.3915" transform="matrix(-1 0 0 1 331.325 516.068)" stroke="#ECECEC" stroke-opacity="0.08" stroke-width="2.93879"/>
<rect x="-1.46939" y="1.46939" width="138.551" height="62.7829" rx="31.3915" transform="matrix(-1 0 0 1 329.716 190.792)" stroke="#ECECEC" stroke-opacity="0.08" stroke-width="2.93879"/>
<rect x="-1.46939" y="1.46939" width="138.551" height="62.7829" rx="31.3915" transform="matrix(-1 0 0 1 331.185 434.708)" stroke="#ECECEC" stroke-opacity="0.08" stroke-width="2.93879"/>
<rect x="-1.46939" y="1.46939" width="138.551" height="62.7829" rx="31.3915" transform="matrix(-1 0 0 1 329.57 109.382)" stroke="#ECECEC" stroke-opacity="0.08" stroke-width="2.93879"/>
<rect x="-1.46939" y="1.46939" width="138.551" height="62.7829" rx="31.3915" transform="matrix(-1 0 0 1 330.452 26.7938)" stroke="#ECECEC" stroke-opacity="0.08" stroke-width="2.93879"/>
<rect x="-1.46939" y="1.46939" width="138.551" height="62.7829" rx="31.3915" transform="matrix(-1 0 0 1 331.325 597.354)" stroke="#ECECEC" stroke-opacity="0.08" stroke-width="2.93879"/>
<rect x="-1.46939" y="1.46939" width="138.551" height="62.7829" rx="31.3915" transform="matrix(-1 0 0 1 419.936 312.577)" stroke="#ECECEC" stroke-opacity="0.08" stroke-width="2.93879"/>
<rect x="-1.46939" y="1.46939" width="138.551" height="62.7829" rx="31.3915" transform="matrix(-1 0 0 1 329.716 272.012)" stroke="#ECECEC" stroke-opacity="0.08" stroke-width="2.93879"/>
<rect x="-1.46939" y="1.46939" width="138.551" height="62.7829" rx="31.3915" transform="matrix(-1 0 0 1 331.325 353.594)" stroke="#ECECEC" stroke-opacity="0.08" stroke-width="2.93879"/>
<rect x="-1.46939" y="1.46939" width="138.551" height="62.7829" rx="31.3915" transform="matrix(-1 0 0 1 239.789 -13.911)" stroke="#ECECEC" stroke-opacity="0.08" stroke-width="2.93879"/>
<rect x="-1.46939" y="1.46939" width="138.551" height="62.7829" rx="31.3915" transform="matrix(-1 0 0 1 240.674 556.641)" stroke="#ECECEC" stroke-opacity="0.08" stroke-width="2.93879"/>
<rect x="-1.46939" y="1.46939" width="138.551" height="62.7829" rx="31.3915" transform="matrix(-1 0 0 1 687.834 -54.4758)" stroke="#ECECEC" stroke-opacity="0.08" stroke-width="2.93879"/>
<rect x="-1.46939" y="1.46939" width="138.551" height="62.7829" rx="31.3915" transform="matrix(-1 0 0 1 688.716 516.068)" stroke="#ECECEC" stroke-opacity="0.08" stroke-width="2.93879"/>
<rect x="-1.46939" y="1.46939" width="138.551" height="62.7829" rx="31.3915" transform="matrix(-1 0 0 1 239.055 231.356)" stroke="#ECECEC" stroke-opacity="0.08" stroke-width="2.93879"/>
<rect x="-1.46939" y="1.46939" width="138.551" height="62.7829" rx="31.3915" transform="matrix(-1 0 0 1 687.101 190.792)" stroke="#ECECEC" stroke-opacity="0.08" stroke-width="2.93879"/>
<rect x="-1.46939" y="1.46939" width="138.551" height="62.7829" rx="31.3915" transform="matrix(-1 0 0 1 240.521 475.24)" stroke="#ECECEC" stroke-opacity="0.08" stroke-width="2.93879"/>
<rect x="-1.46939" y="1.46939" width="138.551" height="62.7829" rx="31.3915" transform="matrix(-1 0 0 1 688.57 434.708)" stroke="#ECECEC" stroke-opacity="0.08" stroke-width="2.93879"/>
<rect x="-1.46939" y="1.46939" width="138.551" height="62.7829" rx="31.3915" transform="matrix(-1 0 0 1 238.904 149.897)" stroke="#ECECEC" stroke-opacity="0.08" stroke-width="2.93879"/>
<rect x="-1.46939" y="1.46939" width="138.551" height="62.7829" rx="31.3915" transform="matrix(-1 0 0 1 686.949 109.382)" stroke="#ECECEC" stroke-opacity="0.08" stroke-width="2.93879"/>
<rect x="-1.46939" y="1.46939" width="138.551" height="62.7829" rx="31.3915" transform="matrix(-1 0 0 1 239.789 67.3586)" stroke="#ECECEC" stroke-opacity="0.08" stroke-width="2.93879"/>
<rect x="-1.46939" y="1.46939" width="138.551" height="62.7829" rx="31.3915" transform="matrix(-1 0 0 1 687.834 26.7938)" stroke="#ECECEC" stroke-opacity="0.08" stroke-width="2.93879"/>
<rect x="-1.46939" y="1.46939" width="138.551" height="62.7829" rx="31.3915" transform="matrix(-1 0 0 1 688.716 597.354)" stroke="#ECECEC" stroke-opacity="0.08" stroke-width="2.93879"/>
<rect x="-1.46939" y="1.46939" width="138.551" height="62.7829" rx="31.3915" transform="matrix(-1 0 0 1 239.055 312.577)" stroke="#ECECEC" stroke-opacity="0.08" stroke-width="2.93879"/>
<rect x="-1.46939" y="1.46939" width="138.551" height="62.7829" rx="31.3915" transform="matrix(-1 0 0 1 687.101 272.012)" stroke="#ECECEC" stroke-opacity="0.08" stroke-width="2.93879"/>
<rect x="-1.46939" y="1.46939" width="138.551" height="62.7829" rx="31.3915" transform="matrix(-1 0 0 1 240.674 394.151)" stroke="#ECECEC" stroke-opacity="0.08" stroke-width="2.93879"/>
<rect x="-1.46939" y="1.46939" width="138.551" height="62.7829" rx="31.3915" transform="matrix(-1 0 0 1 150.609 353.594)" stroke="#ECECEC" stroke-opacity="0.08" stroke-width="2.93879"/>
<rect x="-1.46939" y="1.46939" width="138.551" height="62.7829" rx="31.3915" transform="matrix(-1 0 0 1 688.716 353.594)" stroke="#ECECEC" stroke-opacity="0.08" stroke-width="2.93879"/>
<path d="M436.259 472.341V462.056H446.544V472.341H436.259Z" fill="#FFF5F4"/>
<path d="M434.641 147.024V136.738H444.927V147.024H434.641Z" fill="#FFF5F4"/>
<path d="M435.524 64.4194V54.1337H445.81V64.4194H435.524Z" fill="#FFF5F4"/>
<path d="M525.011 350.235V339.949H535.297V350.235H525.011Z" fill="#FFF5F4"/>
<path d="M434.792 309.679V299.393H445.078V309.679H434.792Z" fill="#FFF5F4"/>
<path d="M436.406 391.187V380.901H446.691V391.187H436.406Z" fill="#FFF5F4"/>
<path d="M347.069 432.65V422.364H357.355V432.65H347.069Z" fill="#FFF5F4"/>
<path d="M346.332 24.8929V14.6072H356.618V24.8929H346.332Z" fill="#FFF5F4"/>
<path d="M347.218 595.445V585.159H357.503V595.445H347.218Z" fill="#FFF5F4"/>
<path d="M346.624 106.434V96.1487H356.91V106.434H346.624Z" fill="#FFF5F4"/>
<path d="M76.9955 147.024V136.738H87.2812V147.024H76.9955Z" fill="#FFF5F4"/>
<path d="M525.011 106.434V96.1487H535.297V106.434H525.011Z" fill="#FFF5F4"/>
<path d="M345.599 270.127V259.842H355.885V270.127H345.599Z" fill="#FFF5F4"/>
<path d="M257.434 472.341V462.056H267.72V472.341H257.434Z" fill="#FFF5F4"/>
<path d="M255.818 147.024V136.738H266.104V147.024H255.818Z" fill="#FFF5F4"/>
<path d="M256.7 64.4194V54.1337H266.985V64.4194H256.7Z" fill="#FFF5F4"/>
<path d="M346.186 350.235V339.949H356.472V350.235H346.186Z" fill="#FFF5F4"/>
<path d="M255.966 309.679V299.393H266.252V309.679H255.966Z" fill="#FFF5F4"/>
<path d="M257.581 391.187V380.901H267.867V391.187H257.581Z" fill="#FFF5F4"/>
<path d="M257.434 553.867V543.581H267.72V553.867H257.434Z" fill="#FFF5F4"/>
<path d="M255.818 228.574V218.288H266.104V228.574H255.818Z" fill="#FFF5F4"/>
<path d="M77.432 473.042V462.756H87.7178V473.042H77.432Z" fill="#FFF5F4"/>
<path d="M525.451 432.477V422.191H535.736V432.477H525.451Z" fill="#FFF5F4"/>
<path d="M76.7006 65.3011V55.0154H86.9863V65.3011H76.7006Z" fill="#FFF5F4"/>
<path d="M524.719 24.7611V14.4753H535.004V24.7611H524.719Z" fill="#FFF5F4"/>
<path d="M525.602 595.264V584.978H535.888V595.264H525.602Z" fill="#FFF5F4"/>
<path d="M75.9647 310.544V300.258H86.2505V310.544H75.9647Z" fill="#FFF5F4"/>
<path d="M523.982 269.987V259.701H534.268V269.987H523.982Z" fill="#FFF5F4"/>
<path d="M435.966 553.867V543.581H446.252V553.867H435.966Z" fill="#FFF5F4"/>
<path d="M434.352 228.574V218.288H444.638V228.574H434.352Z" fill="#FFF5F4"/>
<path d="M347.069 514.01V503.725H357.355V514.01H347.069Z" fill="#FFF5F4"/>
<path d="M345.451 188.701V178.415H355.737V188.701H345.451Z" fill="#FFF5F4"/>
<path d="M166.185 23.8711V13.5853H176.471V23.8711H166.185Z" fill="#FFF5F4"/>
<path d="M167.07 594.407V584.121H177.355V594.407H167.07Z" fill="#FFF5F4"/>
<path d="M615.115 553.867V543.581H625.4V553.867H615.115Z" fill="#FFF5F4"/>
<path d="M165.45 269.081V258.795H175.735V269.081H165.45Z" fill="#FFF5F4"/>
<path d="M613.495 228.574V218.288H623.781V228.574H613.495Z" fill="#FFF5F4"/>
<path d="M167.07 512.898V502.612H177.355V512.898H167.07Z" fill="#FFF5F4"/>
<path d="M615.115 472.341V462.056H625.4V472.341H615.115Z" fill="#FFF5F4"/>
<path d="M165.45 187.539V177.254H175.735V187.539H165.45Z" fill="#FFF5F4"/>
<path d="M613.495 147.024V136.738H623.781V147.024H613.495Z" fill="#FFF5F4"/>
<path d="M166.333 104.976V94.6902H176.619V104.976H166.333Z" fill="#FFF5F4"/>
<path d="M614.38 64.4194V54.1337H624.666V64.4194H614.38Z" fill="#FFF5F4"/>
<path d="M165.597 350.235V339.949H175.883V350.235H165.597Z" fill="#FFF5F4"/>
<path d="M613.644 309.679V299.393H623.93V309.679H613.644Z" fill="#FFF5F4"/>
<path d="M167.216 431.768V421.483H177.502V431.768H167.216Z" fill="#FFF5F4"/>
<path d="M77.1537 391.187V380.901H87.4395V391.187H77.1537Z" fill="#FFF5F4"/>
<path d="M615.258 391.187V380.901H625.543V391.187H615.258Z" fill="#FFF5F4"/>
<path d="M77.432 554.616V544.331H87.7178V554.616H77.432Z" fill="#FFF5F4"/>
<path d="M525.451 514.01V503.725H535.736V514.01H525.451Z" fill="#FFF5F4"/>
<path d="M75.8168 229.291V219.005H86.1025V229.291H75.8168Z" fill="#FFF5F4"/>
<path d="M523.835 188.701V178.415H534.121V188.701H523.835Z" fill="#FFF5F4"/>
</g>
</g>
<defs>
<clipPath id="clip0_999_108">
<rect width="1754.59" height="617" rx="308.5" fill="white"/>
</clipPath>
<clipPath id="clip1_999_108">
<rect width="1843.78" height="1165.83" fill="white" transform="translate(-257 -217)"/>
</clipPath>
</defs>
</svg>
