<svg width="231" height="104" viewBox="0 0 261 144" fill="none" xmlns="http://www.w3.org/2000/svg">
<path d="M234.477 57.1809C236.174 57.952 238.961 59.2481 242.399 60.9129C245.842 62.6322 249.961 64.6791 254.348 66.8677C263.138 71.322 273.292 76.1408 281.603 79.2247C291.166 82.858 301.351 85.5171 311.865 86.0958L313.835 86.1981C314.491 86.2322 315.154 86.1912 315.803 86.1922L319.744 86.1267C321.061 86.1519 322.365 85.9382 323.673 85.8221L327.589 85.4086L331.456 84.6881C332.733 84.4181 334.044 84.259 335.298 83.8682L339.083 82.838C339.704 82.6528 340.354 82.5133 340.967 82.2951L342.807 81.6404C352.672 78.2612 361.831 73.2761 370.214 67.371C378.578 61.4211 386.156 54.5504 393.087 47.1598C395.291 44.8819 398.116 41.662 400.158 38.873C402.14 36.0249 403.359 33.6417 402.347 32.9504C400.179 31.4907 394.762 36.0799 387.366 43.7337C378.377 52.9712 368.409 61.369 357.279 67.7977C355.92 68.6554 354.478 69.3438 353.052 70.0877C351.629 70.8102 350.222 71.5882 348.734 72.1862C347.264 72.8182 345.813 73.4735 344.336 74.0724L339.822 75.6572C333.759 77.5534 327.517 78.8724 321.23 79.1822C312.036 79.7532 302.851 78.2926 293.941 75.7634C285.011 73.2108 276.377 69.4724 267.845 65.4184C259.314 61.343 250.885 56.8436 242.178 52.6882C233.468 48.5651 224.512 44.6698 215.043 41.9742C210.798 40.7814 206.463 39.7541 202.051 39.131C197.638 38.5186 193.155 38.2138 188.66 38.3187C184.104 38.4943 179.581 39.1807 175.193 40.3111C170.82 41.5184 166.58 43.1911 162.543 45.281C158.535 47.4166 154.765 50.0482 151.328 53.0972C147.891 56.1462 144.953 59.7999 142.57 63.8032C142.018 64.8375 141.383 65.8215 140.913 66.8952L139.546 70.1414C138.847 72.3849 138.083 74.6337 137.798 76.9772C136.928 81.6278 137.174 86.3626 137.864 90.8538C138.542 95.0953 139.666 99.1693 140.975 103.108C141.651 105.079 142.269 106.969 143.193 109.08C144.091 111.113 145.135 113.072 146.426 114.933C147.706 116.793 149.187 118.584 151.052 120.169C152.898 121.731 155.219 123.171 158.094 123.686C159.509 123.957 161.027 123.913 162.467 123.635C163.191 123.513 163.852 123.234 164.531 123.01C165.21 122.776 165.816 122.384 166.461 122.05C167.095 121.714 167.648 121.178 168.227 120.729C168.787 120.247 169.238 119.647 169.729 119.084C170.157 118.493 170.514 117.853 170.881 117.225C171.152 116.588 171.434 115.931 171.663 115.28C172.479 112.668 172.543 110.133 172.332 107.769C172.101 105.403 171.556 103.162 170.82 101.002C170.083 98.864 169.127 96.7504 167.972 94.8144C166.847 93.0432 165.79 91.2237 164.607 89.5015C159.898 82.5611 154.306 76.2267 148.03 70.6777C137.211 61.0888 124.367 53.8362 110.603 49.5112C96.8319 45.1531 82.1298 43.9918 67.9152 45.7477C61.2214 46.531 53.1241 47.8007 46.0949 50.2421C45.3708 50.4942 44.5804 50.7623 43.7453 51.0482C42.9102 51.3341 42.0678 51.7059 41.1726 52.0624C40.2882 52.4198 39.3698 52.7959 38.4298 53.1702C37.4997 53.5561 36.5847 54.0191 35.6617 54.4489C34.7378 54.8894 33.8139 55.3298 32.9124 55.7615C32.0287 56.2378 31.1664 56.716 30.3275 57.1746C29.4876 57.6439 28.6826 58.0838 27.9216 58.5165C27.1899 58.9842 26.4924 59.4331 25.8521 59.8437C24.7631 60.5729 23.6232 61.2653 22.5306 62.0375C21.4487 62.8106 20.3579 63.5613 19.2726 64.2476C18.0083 65.0052 16.9629 65.8571 15.9939 66.5749C15.0337 67.3151 14.1685 67.9552 13.4662 68.5875C12.0812 69.8754 11.1402 70.8984 10.6533 71.6679C9.66865 73.206 10.4793 73.718 12.8432 73.5078C13.8775 73.4226 13.6878 74.6391 16.016 73.1933C16.1073 73.1362 16.3016 73.0122 16.3921 72.9658C18.2177 71.9639 20.0523 70.9844 21.7708 69.8437C23.5759 68.8292 25.2738 67.6761 27.0424 66.5828C30.5767 64.4286 34.1291 62.1895 37.9821 60.4839C56.7124 51.8893 78.1821 49.1057 98.3117 53.3223C118.439 57.5604 137.103 68.4746 150.834 83.7595C155.042 88.4411 158.825 93.5516 162.022 98.9367C163.455 101.415 164.514 104.23 165.034 107.009C165.274 108.392 165.384 109.774 165.317 111.066C165.21 112.332 164.917 113.486 164.43 114.385C163.943 115.284 163.293 115.932 162.348 116.371C161.412 116.821 160.443 117.031 159.501 116.918C157.578 116.647 155.332 115.094 153.56 112.911C151.741 110.778 150.267 108.145 149.166 105.446L148.767 104.418L148.365 103.291L147.594 101.042C147.094 99.5402 146.649 98.0429 146.235 96.5482C144.469 89.9656 143.887 83.3212 145.016 77.0275L144.996 77.1341C145.727 73.8662 146.874 70.6768 148.664 67.8016C149.429 66.2989 150.557 64.9891 151.508 63.5887L153.196 61.6562C153.483 61.3346 153.749 61.0004 154.046 60.6904L156.742 58.0975L158.657 56.5517L159.621 55.7687L160.653 55.0671L162.708 53.663C165.576 51.9711 168.534 50.3627 171.711 49.2269C174.835 47.9676 178.125 47.1549 181.424 46.5051C183.085 46.3001 184.737 45.943 186.417 45.891L188.918 45.7248L192.745 45.7253L194.025 45.8014L196.575 45.9423C198.275 46.1622 199.975 46.2632 201.657 46.5681L204.185 46.9773L206.693 47.4929C208.363 47.8076 210.02 48.2834 211.673 48.6831C218.269 50.4538 224.649 52.8548 230.839 55.4667C231.801 55.8511 233.06 56.5525 234.477 57.1809Z" fill="white"/>
<path d="M25.2208 73.1536C25.9502 73.1095 28.5378 72.9746 30.182 72.7085C33.9827 72.1234 37.7172 71.3322 41.604 70.9186C42.2096 70.8499 43.196 70.5693 43.8135 72.6049C44.4534 74.7221 44.1283 76.1676 43.0245 76.4121C40.3395 76.9738 37.5826 77.0966 35.0095 77.9592C31.2132 79.2358 27.2063 79.3896 23.2689 79.6902C21.4867 79.8088 19.7142 79.8564 17.9284 79.8199C17.038 79.8107 16.1491 79.7719 15.2562 79.7536C14.3442 79.7015 13.534 79.6996 12.5098 79.6296C11.6044 79.566 10.6089 79.4588 9.48026 79.115C8.91469 78.9385 8.32015 78.692 7.73197 78.3266C7.14628 77.9703 6.5504 77.4704 6.07411 76.9085C4.98505 75.6073 4.5459 74.079 4.38872 72.9025C4.21909 71.6806 4.26032 70.6936 4.3042 69.8229C4.47726 66.8288 5.42203 63.9447 6.23823 61.1252C6.42605 60.4589 6.23633 59.5548 6.46613 58.8282C6.65076 58.2214 6.96107 57.219 7.31827 56.6721C7.47712 56.4334 7.65903 56.2078 7.66185 55.9338C7.70339 54.6637 8.53352 54.6309 10.6992 55.8023C11.18 56.0606 11.8701 56.1931 12.1298 56.5706C12.1439 56.5862 12.163 56.62 12.177 56.6357C13.3056 57.8674 12.4235 58.4218 12.2252 59.2276C11.2723 63.1482 10.6694 67.2068 10.6194 71.1819C10.5908 72.3216 10.8017 73.054 10.943 73.142C11.0248 73.2269 11.1223 73.2977 11.4031 73.3962C11.6813 73.4857 12.0776 73.5427 12.5661 73.5452C13.105 73.5533 13.7217 73.2767 14.4276 73.5024L14.416 73.4958C15.1479 73.4607 15.8831 73.3662 16.6002 73.3839C19.3442 73.4988 22.2031 73.2505 24.8422 73.2673C24.9313 73.2721 25.0682 73.1663 25.2208 73.1536Z" fill="white"/>
</svg>
