<svg width="28" height="28" viewBox="0 0 28 28" fill="none" xmlns="http://www.w3.org/2000/svg">
<path fill-rule="evenodd" clip-rule="evenodd" d="M20.1249 12.2499C20.1249 13.2841 19.9212 14.3081 19.5255 15.2636C19.1297 16.219 18.5497 17.0871 17.8184 17.8184C17.0871 18.5497 16.219 19.1297 15.2636 19.5255C14.3081 19.9212 13.2841 20.1249 12.2499 20.1249C11.2158 20.1249 10.1917 19.9212 9.23631 19.5255C8.28087 19.1297 7.41274 18.5497 6.68148 17.8184C5.95021 17.0871 5.37015 16.219 4.97439 15.2636C4.57864 14.3081 4.37494 13.2841 4.37494 12.2499C4.37494 10.1614 5.20463 8.15833 6.68148 6.68148C8.15833 5.20463 10.1614 4.37494 12.2499 4.37494C14.3385 4.37494 16.3416 5.20463 17.8184 6.68148C19.2953 8.15833 20.1249 10.1614 20.1249 12.2499ZM18.6899 20.5449C16.5801 22.1829 13.9253 22.9552 11.2661 22.7047C8.60685 22.4541 6.14305 21.1996 4.37625 19.1964C2.60946 17.1932 1.67251 14.592 1.75613 11.9223C1.83975 9.25255 2.93766 6.71506 4.82636 4.82636C6.71506 2.93766 9.25255 1.83975 11.9223 1.75613C14.592 1.67251 17.1932 2.60946 19.1964 4.37625C21.1996 6.14305 22.4541 8.60685 22.7047 11.2661C22.9552 13.9253 22.1829 16.5801 20.5449 18.6899L25.8649 24.0099C25.9939 24.1301 26.0973 24.275 26.1691 24.436C26.2408 24.597 26.2794 24.7708 26.2825 24.947C26.2856 25.1233 26.2532 25.2983 26.1872 25.4617C26.1211 25.6252 26.0229 25.7736 25.8983 25.8983C25.7736 26.0229 25.6252 26.1211 25.4617 26.1872C25.2983 26.2532 25.1233 26.2856 24.947 26.2825C24.7708 26.2794 24.597 26.2408 24.436 26.1691C24.275 26.0973 24.1301 25.9939 24.0099 25.8649L18.6899 20.5449Z" fill="#4B4B4B"/>
</svg>
