<svg width="109" height="110" viewBox="0 0 109 110" fill="none" xmlns="http://www.w3.org/2000/svg">
<path d="M42.8124 6.23082e-07C50.951 -0.00138748 58.9215 2.31658 65.79 6.68233C72.6586 11.0481 78.1408 17.2808 81.5943 24.6504C85.0479 32.0199 86.3298 40.221 85.2898 48.2929C84.2498 56.3648 80.9311 63.9732 75.7224 70.2267L107.854 102.35C108.543 103.037 108.951 103.957 108.996 104.929C109.041 105.901 108.72 106.855 108.097 107.602C107.474 108.35 106.593 108.837 105.629 108.967C104.664 109.097 103.686 108.862 102.887 108.306L102.342 107.863L70.2179 75.7311C64.933 80.1307 58.6662 83.1928 51.9477 84.6584C45.2292 86.124 38.2565 85.95 31.6194 84.1512C24.9823 82.3523 18.8761 78.9815 13.8172 74.3238C8.75823 69.6661 4.89542 63.8586 2.55545 57.3925C0.215478 50.9263 -0.532819 43.9917 0.373846 37.1752C1.28051 30.3587 3.81547 23.8608 7.76431 18.2311C11.7132 12.6015 16.9597 8.00558 23.0603 4.83223C29.1608 1.65888 35.9358 0.00140918 42.8124 6.23082e-07ZM42.8124 7.78566C33.5204 7.78566 24.609 11.4769 18.0386 18.0473C11.4681 24.6177 7.7769 33.5292 7.7769 42.8211C7.7769 52.1131 11.4681 61.0245 18.0386 67.595C24.609 74.1654 33.5204 77.8566 42.8124 77.8566C52.1044 77.8566 61.0158 74.1654 67.5862 67.595C74.1566 61.0245 77.8479 52.1131 77.8479 42.8211C77.8479 33.5292 74.1566 24.6177 67.5862 18.0473C61.0158 11.4769 52.1044 7.78566 42.8124 7.78566ZM42.8124 38.9283C43.8448 38.9283 44.835 39.3384 45.565 40.0685C46.2951 40.7985 46.7052 41.7887 46.7052 42.8211V58.3925C46.7052 59.4249 46.2951 60.4151 45.565 61.1451C44.835 61.8752 43.8448 62.2853 42.8124 62.2853C41.7799 62.2853 40.7898 61.8752 40.0597 61.1451C39.3297 60.4151 38.9195 59.4249 38.9195 58.3925V42.8211C38.9195 41.7887 39.3297 40.7985 40.0597 40.0685C40.7898 39.3384 41.7799 38.9283 42.8124 38.9283ZM46.7052 27.2498C46.7052 28.2823 46.2951 29.2724 45.565 30.0025C44.835 30.7325 43.8448 31.1426 42.8124 31.1426C41.7799 31.1426 40.7898 30.7325 40.0597 30.0025C39.3297 29.2724 38.9195 28.2823 38.9195 27.2498C38.9195 26.2174 39.3297 25.2272 40.0597 24.4972C40.7898 23.7671 41.7799 23.357 42.8124 23.357C43.8448 23.357 44.835 23.7671 45.565 24.4972C46.2951 25.2272 46.7052 26.2174 46.7052 27.2498Z" fill="white"/>
</svg>
