<svg width="80" height="80" viewBox="0 0 80 80" fill="none" xmlns="http://www.w3.org/2000/svg">
<path d="M40 0C50.6087 0 60.7828 4.21427 68.2843 11.7157C75.7857 19.2172 80 29.3913 80 40C80 50.6087 75.7857 60.7828 68.2843 68.2843C60.7828 75.7857 50.6087 80 40 80C29.3913 80 19.2172 75.7857 11.7157 68.2843C4.21427 60.7828 0 50.6087 0 40C0 29.3913 4.21427 19.2172 11.7157 11.7157C19.2172 4.21427 29.3913 0 40 0ZM35.0171 47.8914L26.1314 39C25.8129 38.6814 25.4347 38.4288 25.0185 38.2564C24.6023 38.084 24.1562 37.9952 23.7057 37.9952C23.2552 37.9952 22.8091 38.084 22.3929 38.2564C21.9767 38.4288 21.5985 38.6814 21.28 39C20.6367 39.6433 20.2752 40.5159 20.2752 41.4257C20.2752 42.3355 20.6367 43.2081 21.28 43.8514L32.5943 55.1657C32.9119 55.4859 33.2898 55.74 33.7061 55.9134C34.1225 56.0868 34.569 56.176 35.02 56.176C35.471 56.176 35.9175 56.0868 36.3339 55.9134C36.7502 55.74 37.1281 55.4859 37.4457 55.1657L60.8743 31.7314C61.1971 31.4142 61.4539 31.0362 61.6299 30.6192C61.8059 30.2023 61.8976 29.7546 61.8997 29.302C61.9018 28.8494 61.8143 28.4009 61.6421 27.9823C61.47 27.5637 61.2168 27.1833 60.8969 26.8631C60.5771 26.5429 60.197 26.2892 59.7786 26.1166C59.3602 25.944 58.9118 25.8559 58.4592 25.8575C58.0066 25.8591 57.5588 25.9502 57.1417 26.1257C56.7245 26.3012 56.3462 26.5576 56.0286 26.88L35.0171 47.8914Z" fill="#40BF6B"/>
</svg>
