<svg width="68" height="283" viewBox="0 0 68 283" fill="none" xmlns="http://www.w3.org/2000/svg">
<path d="M39.7248 159.611C38.9828 160.715 37.7428 162.525 36.1666 164.749C34.5508 166.971 32.6252 169.629 30.5679 172.461C26.3971 178.125 21.8112 184.706 18.6688 190.194C14.9929 196.497 11.938 203.353 10.3239 210.683L10.0258 212.057C9.92647 212.515 9.87971 212.986 9.8048 213.442L9.40049 216.223C9.23187 217.146 9.23445 218.089 9.16739 219.023L9.01316 221.827L9.08273 224.631C9.1285 225.561 9.09156 226.502 9.22571 227.431L9.52471 230.214C9.5852 230.673 9.60998 231.146 9.69491 231.603L9.94971 232.974C11.2221 240.31 13.7167 247.336 16.9537 253.924C20.2246 260.505 24.2398 266.639 28.6986 272.379C30.0651 274.196 32.0299 276.559 33.7781 278.322C35.5752 280.049 36.4485 280.363 37.0554 279.732C38.3408 278.377 36.3803 274.852 31.7877 268.754C26.2521 261.35 21.4251 253.356 18.1303 244.774C17.6764 243.717 17.3523 242.622 16.9867 241.532C16.6362 240.446 16.2443 239.366 15.9897 238.249C15.7087 237.14 15.409 236.043 15.1525 234.934L14.5428 231.573C13.8891 227.085 13.666 222.539 14.1651 218.08C14.8113 211.544 16.9001 205.252 19.7168 199.279C22.5523 193.294 26.1967 187.656 30.0536 182.126C33.9256 176.6 38.0872 171.195 42.0362 165.554C45.9627 159.908 49.7554 154.061 52.7542 147.714C54.0875 144.866 55.3134 141.937 56.261 138.905C57.2011 135.871 57.9306 132.753 58.3703 129.578C58.7668 126.352 58.7966 123.089 58.4954 119.87C58.1378 116.652 57.4342 113.474 56.411 110.389C55.3521 107.319 53.9134 104.36 52.1401 101.585C50.3668 98.8105 48.1066 96.317 45.5345 94.1726C44.8628 93.6629 44.2362 93.1013 43.527 92.6455L41.3766 91.3041C39.8623 90.5505 38.3518 89.7504 36.7192 89.2758C33.514 88.1201 30.1213 87.7407 26.8511 87.7009C23.7595 87.6824 20.7359 87.9977 17.7876 88.4586C16.3097 88.704 14.8957 88.918 13.29 89.3212C11.7426 89.7154 10.231 90.2215 8.76094 90.9123C7.29273 91.5956 5.85096 92.4282 4.51093 93.5555C3.18969 94.6718 1.9007 96.1367 1.20624 98.0997C0.851479 99.0635 0.709295 100.136 0.74197 101.182C0.746086 101.705 0.868648 102.203 0.94985 102.707C1.03858 103.212 1.24757 103.685 1.41151 104.177C1.57732 104.662 1.89542 105.115 2.14772 105.574C2.42634 106.024 2.80083 106.412 3.14524 106.823C3.51595 107.194 3.92992 107.52 4.33446 107.851C4.75587 108.116 5.19044 108.391 5.62688 108.628C7.3895 109.508 9.18373 109.849 10.8876 109.977C12.5951 110.09 14.2499 109.969 15.8688 109.703C17.4727 109.434 19.084 109.009 20.5918 108.422C21.9792 107.837 23.393 107.307 24.7522 106.675C30.2227 104.173 35.3637 100.978 40.0248 97.2112C48.0765 90.7191 54.6998 82.529 59.3478 73.3504C64.0203 64.1701 66.5276 53.9614 66.9062 43.755C67.1154 38.9538 67.1397 33.1082 66.2091 27.8774C66.1128 27.3384 66.0127 26.751 65.9051 26.13C65.7975 25.509 65.6297 24.8729 65.4788 24.2014C65.326 23.5374 65.1638 22.8472 65.0054 22.1422C64.8375 21.4427 64.6133 20.7448 64.4135 20.0452C64.2061 19.3437 63.9988 18.6421 63.7953 17.9574C63.5579 17.28 63.3167 16.6174 63.0869 15.9736C62.8495 15.3278 62.629 14.7101 62.4086 14.1241C62.16 13.5547 61.9208 13.0114 61.7023 12.5129C61.3087 11.6616 60.9471 10.7786 60.5234 9.91969C60.0978 9.06817 59.6892 8.21299 59.3257 7.36919C58.932 6.39109 58.4462 5.55609 58.047 4.7904C57.6309 4.02837 57.2751 3.34487 56.9061 2.77684C56.1494 1.65187 55.5301 0.870344 55.039 0.43783C54.0587 -0.434642 53.6022 0.075914 53.4811 1.7637C53.4233 2.50138 52.5806 2.22577 53.3415 4.03278C53.3716 4.10372 53.4375 4.25493 53.4602 4.32397C53.9632 5.72553 54.4494 7.13076 55.0633 8.47315C55.5776 9.86171 56.2028 11.1911 56.7773 12.5631C57.9037 15.3015 59.0884 18.0625 59.8595 20.9728C63.8238 35.1553 63.3454 50.5864 58.046 64.2569C52.7315 77.9236 42.8406 89.7803 30.4082 97.6554C26.6 100.069 22.5357 102.134 18.3433 103.754C16.4181 104.473 14.2972 104.889 12.2625 104.931C11.2527 104.938 10.2579 104.853 9.3476 104.656C8.45985 104.432 7.67356 104.092 7.0903 103.644C6.50704 103.196 6.12118 102.663 5.9176 101.947C5.70462 101.236 5.66655 100.53 5.85416 99.8801C6.26698 98.5588 7.6275 97.1595 9.38134 96.168C11.1051 95.1373 13.1449 94.4078 15.1887 93.9487L15.9652 93.7879L16.8114 93.6368L18.498 93.3569C19.6224 93.1809 20.7374 93.042 21.8468 92.9256C26.7264 92.4522 31.5145 92.8188 35.8576 94.3483L35.7842 94.3218C38.0226 95.2182 40.1578 96.3974 41.9961 97.9928C42.9763 98.7068 43.778 99.6531 44.6643 100.486L45.8444 101.9C46.0401 102.139 46.2471 102.365 46.4334 102.61L47.9675 104.81L48.8468 106.338L49.293 107.108L49.6734 107.916L50.4361 109.526C51.3102 111.741 52.1146 114.01 52.5581 116.379C53.0957 118.724 53.2967 121.134 53.381 123.531C53.3367 124.723 53.4014 125.927 53.2462 127.115L53.0781 128.894L52.6399 131.587L52.4393 132.479L52.0475 134.257C51.6966 135.427 51.4304 136.611 51.0213 137.759L50.4413 139.49L49.788 141.194C49.3732 142.333 48.8456 143.443 48.3724 144.559C46.3595 148.993 43.9234 153.202 41.3592 157.252C40.976 157.884 40.3335 158.688 39.7248 159.611Z" fill="#FEFEFE"/>
<path d="M25.5334 277.405C25.0078 277.383 23.1436 277.322 21.956 277.154C19.2113 276.788 16.5107 276.274 13.7069 276.031C13.27 275.99 12.5554 275.803 12.1458 277.263C11.7215 278.781 11.98 279.808 12.7783 279.967C14.72 280.332 16.7057 280.382 18.5719 280.963C21.3252 281.823 24.2109 281.879 27.0492 282.04C28.3336 282.101 29.6098 282.111 30.8942 282.061C31.5347 282.043 32.1736 282.003 32.8158 281.978C33.4711 281.929 34.0541 281.917 34.7899 281.853C35.4402 281.795 36.1547 281.706 36.9609 281.445C37.3649 281.312 37.7885 281.128 38.2055 280.86C38.6209 280.598 39.0411 280.233 39.3742 279.826C40.1357 278.884 40.4256 277.788 40.5187 276.947C40.6199 276.073 40.5735 275.37 40.527 274.75C40.3515 272.617 40.9534 264.193 40.318 262.194C40.1715 261.721 40.2926 261.074 40.1149 260.559C39.9717 260.129 39.7314 259.418 39.465 259.033C39.3467 258.865 39.2119 258.706 39.2052 258.511C39.1537 257.606 38.5558 257.593 37.0175 258.458C36.676 258.648 36.1817 258.752 36.0012 259.025C35.9913 259.036 35.9782 259.06 35.9683 259.072C34.8593 259.349 35.8214 260.349 35.9778 260.921C36.7303 263.704 35.9024 272.97 36.0061 275.804C36.0461 276.616 35.9068 277.141 35.8067 277.206C35.7492 277.267 35.6803 277.319 35.48 277.393C35.2813 277.461 34.9971 277.507 34.6457 277.515C34.2581 277.528 33.8096 277.339 33.3055 277.509L33.3137 277.504C32.7865 277.489 32.2559 277.432 31.7402 277.454C29.7677 277.573 27.7064 277.434 25.8078 277.481C25.7437 277.486 25.6434 277.412 25.5334 277.405Z" fill="#FEFEFE"/>
</svg>
