<svg width="149" height="32" viewBox="0 0 149 32" fill="none" xmlns="http://www.w3.org/2000/svg">
<g clip-path="url(#clip0_425_1429)">
<path d="M1.21945 23.881C1.01962 23.8999 0.820007 23.8429 0.660322 23.7212C0.575659 23.639 0.51026 23.5391 0.468827 23.4286C0.427393 23.3181 0.410955 23.1998 0.420694 23.0822V2.63398C0.420694 2.39435 0.420694 2.2346 0.660322 2.07485C0.820074 1.9151 0.979826 1.83522 1.21945 1.83522H10.5649C12.3222 1.83522 13.76 2.07485 14.8783 2.63398C15.9965 3.11324 16.7953 3.83212 17.2745 4.79063C17.8337 5.66927 18.0733 6.78753 18.0733 7.98567C18.0733 8.78443 17.9934 9.42344 17.6739 10.0624C17.2072 11.0622 16.4201 11.8774 15.4374 12.3789C16.2361 12.6984 17.0349 13.3374 17.594 14.216C18.233 15.0946 18.5525 16.133 18.5525 17.3312C18.5525 18.6092 18.233 19.8073 17.7538 20.7658C17.1258 21.8326 16.1747 22.6719 15.038 23.1621C13.9197 23.6414 12.482 23.9609 10.8844 23.9609H1.21945V23.881ZM5.45288 20.2067H10.2454C11.2838 20.2067 12.0826 19.9671 12.6417 19.4079C13.121 18.7689 13.4405 18.1299 13.4405 17.3312C13.4405 16.5324 13.121 15.7336 12.5618 15.2544C12.0027 14.6953 11.2838 14.4556 10.2454 14.4556H5.45288V20.2067ZM5.45288 10.7813H9.92594C10.9643 10.7813 11.6832 10.5417 12.1625 9.98257C12.6417 9.58319 12.9612 8.94418 12.9612 8.14542C12.9685 7.7997 12.9009 7.4565 12.763 7.13938C12.6252 6.82226 12.4203 6.53873 12.1625 6.30828C11.6832 5.74914 10.9643 5.50952 9.92594 5.50952H5.45288V10.7813ZM22.8659 23.881C22.693 23.881 22.5249 23.8249 22.3866 23.7212C22.3019 23.639 22.2365 23.5391 22.1951 23.4286C22.1537 23.3181 22.1372 23.1998 22.147 23.0822V8.30518C22.147 8.06555 22.147 7.9058 22.3866 7.74604C22.4665 7.58629 22.7061 7.50642 22.8659 7.50642H26.0609C26.3005 7.50642 26.4603 7.58629 26.62 7.74604C26.7798 7.9058 26.7798 8.06555 26.7798 8.30518V23.0822C26.7798 23.3219 26.7798 23.5615 26.62 23.7212C26.4603 23.8429 26.2607 23.8999 26.0609 23.881H22.8659ZM22.786 5.03026C22.5753 5.02726 22.3743 4.94113 22.2268 4.79063C22.1052 4.63095 22.0482 4.43133 22.0671 4.2315V1.67547C22.0671 1.43584 22.0671 1.27609 22.2268 1.11634C22.3866 0.956585 22.5463 0.876709 22.786 0.876709H26.0609C26.3005 0.876709 26.5401 0.956585 26.6999 1.11634C26.8596 1.27609 26.9395 1.43584 26.9395 1.67547V4.2315C26.9395 4.47113 26.8596 4.63088 26.6999 4.79063C26.6177 4.8753 26.5178 4.94069 26.4073 4.98213C26.2968 5.02356 26.1785 5.04 26.0609 5.03026H22.786ZM38.4417 30.8302C36.8441 30.8302 35.646 30.5906 34.6076 30.1912C33.6951 29.8809 32.8534 29.3921 32.1315 28.7534C31.5946 28.2569 31.1604 27.6599 30.8534 26.9962C30.6138 26.437 30.4541 26.0376 30.4541 25.7181C30.4541 25.4785 30.4541 25.3188 30.6937 25.159C30.8535 24.9993 31.0132 24.9194 31.2528 24.9194H34.6076C34.7674 24.9194 34.9271 24.9194 35.0869 25.0791C35.2466 25.0791 35.3265 25.3188 35.4064 25.5584L35.8856 26.3572L36.6844 27.076C37.0838 27.2358 37.6429 27.3157 38.2819 27.3157C39.0807 27.3157 39.6398 27.2358 40.1191 26.9962C40.5983 26.8364 40.9178 26.437 41.1575 25.9578C41.477 25.4785 41.5568 24.7596 41.5568 23.881V21.8042C41.0776 22.3634 40.4386 22.7627 39.6398 23.1621C37.8173 23.8788 35.7911 23.8788 33.9686 23.1621C33.1757 22.8475 32.4654 22.3557 31.8918 21.7243C31.3124 21.0174 30.8781 20.2031 30.6138 19.3281C30.3152 18.3432 30.1539 17.3218 30.1346 16.2928V14.6953C30.1346 13.577 30.3742 12.5386 30.6138 11.66C30.9333 10.7813 31.4126 9.98257 31.8918 9.26369C32.451 8.62468 33.1699 8.14542 33.9686 7.74604C34.7674 7.42654 35.7259 7.18691 36.8441 7.18691C37.799 7.17447 38.7436 7.38453 39.6032 7.80046C40.4627 8.21638 41.2137 8.82674 41.7965 9.58319V8.2253C41.7965 8.06555 41.8763 7.82592 42.0361 7.66617C42.1958 7.50642 42.3556 7.42654 42.5952 7.42654H45.6305C45.8701 7.42654 46.0299 7.50642 46.1896 7.66617C46.3494 7.82592 46.4293 8.06555 46.4293 8.2253V23.4017C46.4293 24.9993 46.1896 26.2773 45.6305 27.3955C44.9907 28.5014 44.0098 29.3701 42.8348 29.8717C41.7166 30.4308 40.1989 30.7503 38.4417 30.7503V30.8302ZM38.2819 19.9671C39.0807 19.9671 39.6398 19.8073 40.1191 19.4878C40.5983 19.1683 40.9178 18.6891 41.1575 18.2098C41.4005 17.6546 41.536 17.0583 41.5568 16.4525C41.6147 15.7882 41.6147 15.12 41.5568 14.4556C41.5568 13.8965 41.3971 13.3374 41.1575 12.8581C40.9977 12.299 40.5983 11.8197 40.1191 11.5002C39.6398 11.1807 39.0807 11.021 38.2819 11.021C37.4832 11.021 36.8441 11.1807 36.4448 11.5002C35.9655 11.8996 35.646 12.299 35.4064 12.8581C35.1668 13.4172 35.0869 14.0563 35.007 14.7751V16.2129C35.007 16.9318 35.1668 17.5708 35.4064 18.1299C35.646 18.6891 35.9655 19.1683 36.4448 19.4878C36.9944 19.83 37.6351 19.9972 38.2819 19.9671ZM51.2218 23.881C51.022 23.8999 50.8224 23.8429 50.6627 23.7212C50.578 23.639 50.5126 23.5391 50.4712 23.4286C50.4298 23.3181 50.4133 23.1998 50.4231 23.0822V8.30518C50.4231 8.06555 50.5029 7.9058 50.6627 7.74604C50.8224 7.58629 50.9822 7.50642 51.2218 7.50642H54.4169C54.5766 7.50642 54.8162 7.58629 54.8961 7.74604C55.0559 7.9058 55.1358 8.06555 55.1358 8.30518V23.0822C55.1358 23.3219 55.1357 23.5615 54.8961 23.7212C54.7364 23.8429 54.5368 23.8999 54.337 23.881H51.142H51.2218ZM51.142 5.03026C50.9313 5.02726 50.7303 4.94113 50.5828 4.79063C50.4323 4.64316 50.3462 4.44219 50.3432 4.2315V1.67547C50.3432 1.43584 50.4231 1.27609 50.5828 1.11634C50.7426 0.956585 50.9023 0.876709 51.142 0.876709H54.4169C54.6565 0.876709 54.8162 0.956585 54.976 1.11634C55.1358 1.27609 55.2156 1.43584 55.2156 1.67547V4.2315C55.2156 4.47113 55.2156 4.63088 54.976 4.79063C54.8285 4.94113 54.6276 5.02726 54.4169 5.03026H51.142ZM60.2478 23.881C60.048 23.8999 59.8484 23.8429 59.6887 23.7212C59.604 23.639 59.5386 23.5391 59.4972 23.4286C59.4558 23.3181 59.4393 23.1998 59.4491 23.0822V2.63398C59.4491 2.39435 59.4491 2.2346 59.6887 2.07485C59.8484 1.9151 60.0082 1.83522 60.2478 1.83522H69.5933C71.3506 1.83522 72.7884 2.07485 73.8267 2.63398C74.945 3.11324 75.8236 3.83212 76.3029 4.79063C76.862 5.66927 77.1017 6.78753 77.1017 7.98567C77.1017 8.78443 77.0218 9.42344 76.7023 10.0624C76.2356 11.0622 75.4485 11.8774 74.4657 12.3789C75.2645 12.6984 76.0633 13.3374 76.6224 14.216C77.2614 15.0946 77.5809 16.133 77.5809 17.3312C77.5809 18.6092 77.2614 19.8073 76.7023 20.7658C76.0951 21.82 75.1735 22.6579 74.0664 23.1621C72.9481 23.6414 71.5103 23.9609 69.8329 23.9609H60.3277L60.2478 23.881ZM64.4812 20.2067H69.2738C70.3122 20.2067 71.1109 19.9671 71.6701 19.4079C72.1493 18.7689 72.389 18.1299 72.389 17.3312C72.389 16.5324 72.1493 15.7336 71.5902 15.2544C71.0311 14.6953 70.3122 14.4556 69.1939 14.4556H64.4014V20.2067H64.4812ZM64.4812 10.7813H68.9543C69.9927 10.7813 70.7116 10.5417 71.1908 9.98257C71.6701 9.58319 71.9896 8.94418 71.9896 8.14542C71.9969 7.7997 71.9293 7.4565 71.7914 7.13938C71.6535 6.82226 71.4486 6.53873 71.1908 6.30828C70.7116 5.74914 69.9927 5.50952 68.9543 5.50952H64.4812V10.7813ZM81.7345 23.881C81.5346 23.8999 81.335 23.8429 81.1753 23.7212C81.1048 23.6322 81.0541 23.5292 81.0265 23.419C80.999 23.3088 80.9952 23.194 81.0156 23.0822V8.30518C81.0156 8.14543 81.0156 7.9058 81.1753 7.74604C81.3351 7.58629 81.5747 7.50642 81.7345 7.50642H84.8496C85.0094 7.50642 85.249 7.58629 85.4088 7.74604C85.5685 7.9058 85.6484 8.14543 85.6484 8.30518V9.58319C86.1276 8.94418 86.7666 8.38505 87.5654 8.06555C88.3642 7.74605 89.1629 7.50642 90.2013 7.50642H91.5592C91.7988 7.50642 91.9586 7.58629 92.1183 7.74604C92.2781 7.9058 92.358 8.06555 92.358 8.30518V11.021C92.358 11.2606 92.2781 11.4203 92.1183 11.5801C91.9709 11.7306 91.7699 11.8167 91.5592 11.8197H88.8434C87.8849 11.8197 87.166 12.0593 86.6069 12.6185C86.1276 13.0977 85.8081 13.8166 85.8081 14.7751V23.0822C85.8081 23.3219 85.8081 23.5615 85.6484 23.7212C85.4887 23.8429 85.2891 23.8999 85.0892 23.881H81.7345ZM99.2273 24.2005C98.109 24.2005 97.1505 24.0408 96.192 23.5615C95.3656 23.1556 94.6523 22.552 94.1152 21.8042C93.5561 21.0853 93.3165 20.2067 93.3165 19.4079C93.3165 17.8104 93.9555 16.6922 95.1536 15.8135C96.3518 15.0148 97.9493 14.3758 99.9462 14.0562L104.02 13.4971V12.938C104.02 12.1392 103.86 11.5002 103.461 11.021C103.061 10.6216 102.422 10.382 101.464 10.382C100.825 10.382 100.266 10.5417 99.8663 10.7813C99.3871 11.021 99.0676 11.4203 98.8279 11.8197C98.7556 11.9452 98.6505 12.0487 98.5238 12.119C98.3972 12.1894 98.2538 12.224 98.109 12.2191H95.1536C94.914 12.2191 94.7542 12.2191 94.5945 12.0593C94.5367 11.9945 94.4927 11.9186 94.4652 11.8362C94.4378 11.7538 94.4274 11.6666 94.4347 11.5801C94.4347 11.1807 94.5945 10.7813 94.8341 10.3021C95.1536 9.82282 95.553 9.34356 96.1121 8.86431C96.6713 8.38505 97.3902 8.06555 98.2688 7.66617C99.1474 7.34666 100.266 7.18691 101.464 7.18691C102.822 7.18691 103.94 7.34666 104.899 7.66617C105.699 7.90041 106.434 8.31852 107.044 8.88713C107.654 9.45573 108.123 10.1591 108.413 10.9411C108.733 11.7398 108.892 12.5386 108.892 13.3374V23.0822C108.892 23.3219 108.812 23.5615 108.653 23.7212C108.493 23.8429 108.293 23.8999 108.094 23.881H104.978C104.779 23.8999 104.579 23.8429 104.419 23.7212C104.349 23.6322 104.298 23.5292 104.27 23.419C104.243 23.3088 104.239 23.194 104.259 23.0822V21.964C103.573 22.9023 102.587 23.5785 101.464 23.881C100.825 24.1206 100.106 24.2005 99.2273 24.2005ZM100.505 21.0055C101.144 21.0055 101.783 20.7658 102.342 20.5262C102.902 20.2067 103.301 19.7274 103.62 19.1683C103.94 18.5293 104.1 17.8104 104.1 16.8519V16.2928L101.144 16.772C100.026 17.0117 99.2273 17.2513 98.748 17.5708C98.1889 18.0501 97.9493 18.4494 97.9493 19.0086C97.9493 19.4079 97.9493 19.8073 98.2688 20.0469C98.5084 20.3665 98.8279 20.6061 99.2273 20.7658L100.505 20.9256V21.0055ZM113.445 23.881C113.245 23.8999 113.046 23.8429 112.886 23.7212C112.801 23.639 112.736 23.5391 112.695 23.4286C112.653 23.3181 112.637 23.1998 112.646 23.0822V8.30518C112.646 8.06555 112.726 7.9058 112.886 7.74604C113.046 7.58629 113.206 7.50642 113.445 7.50642H116.481C116.72 7.50642 116.96 7.58629 117.12 7.74604L117.279 8.30518V9.58319C117.911 8.80171 118.717 8.17827 119.632 7.76232C120.547 7.34638 121.547 7.14936 122.551 7.18691C123.829 7.18691 124.947 7.50642 125.746 8.06555C126.714 8.62294 127.493 9.45758 127.983 10.4618C128.542 11.5801 128.781 12.8581 128.781 14.2959V23.0822C128.781 23.3219 128.781 23.5615 128.542 23.7212C128.404 23.8249 128.235 23.881 128.063 23.881H124.708C124.508 23.8999 124.308 23.8429 124.149 23.7212C124.064 23.639 123.999 23.5391 123.957 23.4286C123.916 23.3181 123.899 23.1998 123.909 23.0822V14.6154C123.909 13.4971 123.669 12.6185 123.11 12.0593C122.551 11.4203 121.832 11.1008 120.714 11.1008C119.755 11.1008 118.957 11.4203 118.398 12.0593C117.838 12.6185 117.519 13.4971 117.519 14.6154V23.1621C117.519 23.4017 117.519 23.6414 117.279 23.8011C117.141 23.9048 116.973 23.9609 116.8 23.9609H113.445V23.881ZM138.606 24.2005C137.648 24.2005 136.689 24.0407 135.89 23.7212C135.092 23.4017 134.293 22.9225 133.814 22.2036C133.234 21.4967 132.8 20.6824 132.536 19.8073C132.123 18.4901 131.934 17.1132 131.976 15.7336V14.6154C131.976 13.577 132.216 12.5386 132.456 11.66C132.775 10.7813 133.254 9.98257 133.734 9.26369C134.299 8.60329 135.01 8.08366 135.811 7.74604C136.609 7.42654 137.648 7.18691 138.686 7.18691C139.648 7.16037 140.604 7.35151 141.482 7.74604C142.217 8.08113 142.871 8.57165 143.399 9.18381V2.31448C143.399 2.07485 143.479 1.9151 143.638 1.75534C143.798 1.59559 143.958 1.51572 144.197 1.51572H147.393C147.632 1.51572 147.792 1.59559 147.952 1.75534C148.111 1.9151 148.191 2.07485 148.191 2.31448V23.0822C148.191 23.3219 148.191 23.5615 147.952 23.7212C147.813 23.8249 147.645 23.881 147.472 23.881H144.437C144.237 23.8999 144.038 23.8429 143.878 23.7212C143.793 23.639 143.728 23.5391 143.686 23.4286C143.645 23.3181 143.629 23.1998 143.638 23.0822V22.0438C143.087 22.7055 142.408 23.2489 141.641 23.6414C140.843 24.0407 139.884 24.2005 138.686 24.2005H138.606ZM140.204 20.4463C140.923 20.4463 141.562 20.2866 141.961 19.8872C142.44 19.5677 142.76 19.0884 142.999 18.5293C143.239 17.9702 143.399 17.411 143.399 16.772C143.482 15.9754 143.482 15.1724 143.399 14.3758C143.399 13.8166 143.239 13.2575 142.999 12.7782C142.76 12.299 142.44 11.8197 141.961 11.5002C141.482 11.1807 140.923 11.021 140.124 11.021C139.325 11.021 138.686 11.1807 138.207 11.5002C137.807 11.8996 137.408 12.299 137.248 12.8581C136.705 14.7094 136.705 16.678 137.248 18.5293C137.408 19.0884 137.807 19.5677 138.207 19.9671C138.779 20.3254 139.45 20.4932 140.124 20.4463H140.204Z" fill="white"/>
</g>
<defs>
<clipPath id="clip0_425_1429">
<rect width="147.771" height="31.1516" fill="white" transform="translate(0.417969 0.236084)"/>
</clipPath>
</defs>
</svg>
