<svg width="174" height="32" viewBox="0 0 174 32" fill="none" xmlns="http://www.w3.org/2000/svg">
<g clip-path="url(#clip0_425_1431)">
<path d="M16.6789 3.99446C15.7734 2.83313 14.5993 1.90908 13.2577 1.30174C11.8336 0.626947 10.0442 0.289551 7.88944 0.289551H0.00683594V24.3371H7.82068C9.7505 24.3371 11.4174 24.0284 12.8214 23.4109C14.1627 22.8405 15.3552 21.97 16.3072 20.8664C17.2471 19.7524 17.9413 18.4526 18.3444 17.0519C18.7944 15.5021 19.0159 13.8949 19.002 12.2811C19.0085 10.7838 18.836 9.29114 18.4884 7.83476C18.1606 6.44373 17.5474 5.13599 16.6875 3.99446M16.6617 17.4817C16.1749 18.7385 15.4084 19.8681 14.4203 20.7848C13.5329 21.586 12.4811 22.1838 11.3386 22.5362C10.2441 22.8775 9.10467 23.0528 7.95821 23.0563H1.48966V1.57896H7.65305C8.31083 1.5841 8.96789 1.62355 9.62156 1.69716C10.3667 1.77688 11.101 1.93757 11.8114 2.17639C12.5619 2.4359 13.275 2.79282 13.9325 3.23801C14.6573 3.74122 15.2759 4.38239 15.7527 5.12485C16.3327 6.03416 16.7677 7.02814 17.0421 8.07116C17.3886 9.44684 17.5491 10.8628 17.5192 12.2811C17.5192 14.3699 17.2327 16.1035 16.6596 17.4817" fill="white"/>
<path d="M32.8092 9.13576C32.1759 8.35694 31.3762 7.72984 30.4689 7.3005C29.4594 6.83442 28.357 6.60439 27.2454 6.62785C26.0529 6.60108 24.8714 6.86125 23.8005 7.38646C22.8476 7.8713 22.0138 8.56118 21.3592 9.40654C20.6907 10.2796 20.1934 11.2713 19.8936 12.3292C19.5657 13.4619 19.4014 14.6357 19.4058 15.8149C19.3954 17.0039 19.5538 18.1884 19.8764 19.3329C20.16 20.3616 20.6467 21.3232 21.3076 22.161C21.9518 22.9634 22.7696 23.6093 23.6995 24.05C24.751 24.5287 25.897 24.7638 27.052 24.7376C29.1365 24.7376 30.8149 24.1997 32.0871 23.1237C33.3593 22.0478 34.1839 20.4983 34.5606 18.4754H33.2712C32.8887 20.0943 32.191 21.3572 31.1781 22.2641C30.1652 23.171 28.792 23.6259 27.0584 23.6288C26.0924 23.6499 25.1351 23.4423 24.2647 23.0227C23.4824 22.6324 22.8001 22.0678 22.2704 21.3723C21.7254 20.6442 21.3196 19.8216 21.0734 18.946C20.7995 18.0049 20.6627 17.0293 20.6672 16.0492V15.8536H34.6788C34.6788 15.7655 34.6788 15.6387 34.6939 15.499C34.7089 15.3593 34.7111 15.2261 34.7111 15.1143C34.7199 14.0011 34.5554 12.8932 34.2233 11.8306C33.919 10.8507 33.4335 9.9366 32.792 9.13576M20.7188 14.7447C20.7857 13.8483 20.9677 12.9642 21.2604 12.1143C21.5318 11.2964 21.9547 10.5368 22.5068 9.87502C23.0594 9.22722 23.7398 8.70047 24.5054 8.32773C25.3592 7.92185 26.2958 7.72025 27.2411 7.7389C28.1337 7.72357 29.0174 7.91944 29.8199 8.31054C30.5641 8.68129 31.2228 9.20315 31.754 9.84279C32.2921 10.5012 32.6998 11.256 32.9553 12.067C33.2297 12.9349 33.3879 13.8353 33.426 14.7447H20.7188Z" fill="white"/>
<path d="M56.2322 7.18004C55.534 7.35819 54.8652 7.63613 54.2465 8.00526C53.673 8.34838 53.1604 8.78408 52.7293 9.29468C52.3326 9.75496 52.0395 10.2951 51.8697 10.8785H51.7687V7.02961H50.4792V23.1344C50.1788 23.1869 49.875 23.2178 49.5702 23.2268C49.3313 23.2418 49.0941 23.1776 48.8954 23.0441C48.7381 22.9167 48.6209 22.7465 48.558 22.5541C48.4901 22.3359 48.4503 22.1098 48.4398 21.8815C48.4398 21.6344 48.4248 21.3872 48.4248 21.1401V11.0719C48.4458 10.4613 48.3278 9.85392 48.0799 9.29553C47.832 8.73713 47.4605 8.24232 46.9935 7.84838C46.0394 7.02746 44.5186 6.61771 42.4312 6.61914C40.3437 6.62058 38.7384 7.09981 37.6152 8.05684C36.4805 9.011 35.8688 10.4437 35.7799 12.3549H37.0694C37.1467 10.8019 37.6632 9.6464 38.6188 8.88851C39.5744 8.13062 40.8258 7.74881 42.3731 7.74308C43.1228 7.7274 43.8709 7.81784 44.5952 8.01171C45.1341 8.15709 45.6384 8.40921 46.078 8.75312C46.4396 9.03993 46.7282 9.4081 46.9205 9.82763C47.1031 10.2403 47.1954 10.6873 47.1912 11.1385C47.1968 11.6461 47.163 12.1534 47.0902 12.6557C47.0357 13.0343 46.8573 13.3842 46.5831 13.6507C46.2409 13.9492 45.8306 14.1588 45.3882 14.2611C44.6762 14.4341 43.9495 14.5398 43.2177 14.577L41.2299 14.7467C40.5001 14.8202 39.7748 14.9328 39.0572 15.0841C38.3324 15.2303 37.6377 15.4984 37.0027 15.8771C36.3782 16.2511 35.8516 16.7682 35.4662 17.3857C35.0643 18.0304 34.8623 18.8492 34.8623 19.8614C34.8623 21.5233 35.3673 22.7518 36.3774 23.547C37.3874 24.3421 38.8136 24.7404 40.6561 24.7418C41.4286 24.7502 42.1985 24.6489 42.9426 24.441C43.6038 24.2534 44.2338 23.9696 44.8123 23.5986C45.3386 23.2617 45.8103 22.8464 46.2113 22.3672C46.5789 21.9286 46.8748 21.4347 47.0881 20.9037H47.1526V21.8106C47.1508 22.1442 47.1796 22.4772 47.2385 22.8056C47.2847 23.0905 47.3942 23.3614 47.5587 23.5986C47.7347 23.8379 47.9734 24.0238 48.2486 24.1358C48.6405 24.2854 49.0586 24.3541 49.4778 24.3378C49.8185 24.3383 50.1578 24.2957 50.4878 24.211V24.3378H51.7772V14.8821C51.7906 14.3177 51.8473 13.7552 51.947 13.1994C52.0248 12.7579 52.1487 12.3257 52.3167 11.91C52.4686 11.5393 52.6664 11.1892 52.9055 10.8678C53.1631 10.5269 53.4393 10.2005 53.7329 9.88995C54.415 9.18916 55.2684 8.67875 56.2085 8.40928C56.9578 8.1944 57.7414 8.12582 58.5166 8.20727V6.91786C57.7498 6.89473 56.9836 6.98011 56.2408 7.17144M47.1547 17.7403C47.1268 18.1742 47.0658 18.6052 46.972 19.0297C46.8184 19.7422 46.5264 20.4176 46.1124 21.0176C45.6037 21.7593 44.9374 22.3794 44.1611 22.8335C43.3015 23.3622 42.1453 23.6265 40.6926 23.6265C39.2785 23.6265 38.1675 23.3178 37.3595 22.7003C36.5514 22.0828 36.1467 21.1343 36.1453 19.855C36.1152 19.167 36.2782 18.4844 36.6159 17.8843C36.9198 17.3892 37.3432 16.9783 37.8473 16.6895C38.3766 16.3907 38.9517 16.1816 39.5493 16.0705C40.1768 15.948 40.8065 15.8556 41.434 15.7869L43.583 15.5827C44.3007 15.5273 45.0141 15.4268 45.7192 15.2818C46.2711 15.1951 46.7765 14.9212 47.1504 14.5061L47.1547 17.7403Z" fill="white"/>
<path d="M66.8216 0.289551H58.5693V24.3371H66.8216C68.8202 24.3371 70.5487 24.0563 72.0072 23.4947C73.3894 22.9866 74.6265 22.1485 75.6111 21.0534C76.5945 19.9132 77.3085 18.5661 77.6999 17.1121C78.1734 15.3613 78.3998 13.553 78.3726 11.7395C78.3726 7.8713 77.3697 4.99806 75.3639 3.11981C73.3582 1.24157 70.5107 0.298147 66.8216 0.289551ZM74.7214 15.9774C74.4705 16.9024 74.0783 17.7831 73.5588 18.5885C73.1341 19.2348 72.5909 19.7948 71.9577 20.2389C71.3995 20.6234 70.7943 20.9347 70.1569 21.1651C69.6016 21.3663 69.0245 21.5012 68.4376 21.567C67.9903 21.619 67.5405 21.6477 67.0902 21.653H61.7692V2.98442H67.159C68.6418 2.98442 69.8875 3.19216 70.8961 3.60764C71.8639 3.99076 72.7166 4.61693 73.3718 5.42571C74.038 6.27908 74.5097 7.26779 74.7536 8.32259C75.0475 9.58696 75.1882 10.8821 75.1727 12.1801C75.1991 13.4607 75.0472 14.7387 74.7214 15.9774Z" fill="white"/>
<path d="M107.435 15.7583C106.876 15.3728 106.263 15.0716 105.617 14.8644C104.926 14.6386 104.223 14.4478 103.513 14.2927C102.838 14.1358 102.165 13.9854 101.491 13.8371C100.871 13.7075 100.263 13.5278 99.6726 13.2999C99.1822 13.1156 98.7304 12.8415 98.3402 12.4918C98.1705 12.3357 98.0363 12.145 97.9465 11.9326C97.8568 11.7202 97.8137 11.491 97.8202 11.2604C97.8027 10.8691 97.922 10.4839 98.1576 10.1709C98.394 9.88292 98.6932 9.65284 99.0322 9.49825C99.4126 9.32432 99.8155 9.20495 100.229 9.14366C100.656 9.07766 101.087 9.0439 101.519 9.04266C101.989 9.04276 102.458 9.09392 102.918 9.19524C103.361 9.28956 103.786 9.45425 104.177 9.68307C104.584 9.91399 104.925 10.2458 105.167 10.6466C105.409 11.0475 105.544 11.5038 105.559 11.9718H108.423C108.39 11.0533 108.16 10.1526 107.749 9.33063C107.389 8.64763 106.862 8.06716 106.216 7.64365C105.546 7.21703 104.801 6.921 104.02 6.77114C103.12 6.59491 102.205 6.50995 101.289 6.51756C100.511 6.52 99.7372 6.61596 98.9828 6.80338C98.2429 6.97843 97.5371 7.27469 96.8939 7.68018C96.2827 8.07016 95.7683 8.59415 95.3896 9.21243C94.9761 9.88823 94.7643 10.6682 94.7793 11.4603C94.7793 12.5835 95.0601 13.4589 95.6217 14.0864C96.2025 14.7285 96.9221 15.2297 97.7256 15.552C98.6123 15.9138 99.5331 16.1852 100.474 16.3622C101.461 16.5535 102.374 16.7641 103.216 17.0069C103.963 17.2001 104.674 17.5129 105.32 17.9332C105.597 18.1171 105.821 18.3701 105.97 18.6671C106.119 18.9641 106.187 19.2948 106.169 19.6266C106.188 20.1018 106.046 20.5695 105.767 20.9547C105.498 21.3024 105.143 21.5748 104.738 21.7455C104.303 21.9303 103.844 22.0554 103.375 22.1173C102.906 22.1825 102.433 22.2162 101.959 22.2183C101.388 22.2198 100.819 22.163 100.259 22.0485C99.7379 21.9488 99.2373 21.7613 98.7786 21.4941C98.3434 21.2397 97.9785 20.8807 97.717 20.4497C97.4366 19.9626 97.2885 19.4107 97.2872 18.8486H91.8072C91.5558 19.9769 91.0529 20.8214 90.2879 21.3759C89.5228 21.9303 88.5128 22.2054 87.3007 22.2054C86.4569 22.2254 85.6185 22.0642 84.8422 21.7326C84.1812 21.4465 83.5934 21.0145 83.123 20.469C82.6712 19.9399 82.3385 19.3199 82.1474 18.6509C81.9443 17.9483 81.8558 17.2176 81.8852 16.4869H94.919C94.9574 15.3669 94.8607 14.2463 94.631 13.1494C94.402 12.0051 93.9649 10.9125 93.3416 9.92591C92.7221 8.93281 91.8806 8.0971 90.8831 7.48462C89.8645 6.83991 88.5801 6.51756 87.0299 6.51756C85.9 6.50623 84.7807 6.73552 83.7462 7.1902C82.7601 7.6313 81.8772 8.27404 81.1545 9.07704C80.4078 9.91207 79.8305 10.8843 79.4546 11.9395C79.0374 13.1058 78.8315 14.3371 78.8465 15.5757C78.8793 16.8206 79.0773 18.0556 79.4353 19.2484C79.7527 20.3113 80.2868 21.2969 81.0041 22.1431C81.7092 22.9592 82.5912 23.6038 83.5829 24.0278C84.7293 24.5016 85.9618 24.7315 87.2019 24.7026C89.1761 24.7026 90.8151 24.2083 92.1188 23.2197C93.26 22.3601 94.0529 21.1137 94.4827 19.5062C94.555 20.2331 94.7643 20.9397 95.0995 21.5886C95.4821 22.3179 96.0377 22.9422 96.7177 23.4067C97.4219 23.8814 98.2093 24.219 99.0387 24.4017C99.9457 24.6053 100.873 24.7062 101.802 24.7026C102.689 24.7014 103.574 24.6172 104.446 24.4511C105.289 24.299 106.099 23.9961 106.835 23.5571C107.534 23.1411 108.124 22.5642 108.555 21.8745C108.984 21.1782 109.21 20.3057 109.21 19.2484C109.236 18.5218 109.068 17.8014 108.722 17.1617C108.401 16.6057 107.961 16.1279 107.433 15.7626M82.315 12.0577C82.5525 11.478 82.8957 10.9475 83.3272 10.4932C83.7597 10.038 84.2813 9.67666 84.8594 9.43163C85.4929 9.16445 86.1749 9.03199 86.8623 9.04266C87.5391 9.03383 88.2103 9.16631 88.833 9.43163C89.4106 9.67819 89.9363 10.0318 90.3824 10.4739C90.8289 10.9234 91.1837 11.4555 91.4268 12.0405C91.6851 12.6501 91.8384 13.2989 91.8803 13.9596H81.8852C81.9241 13.3065 82.0693 12.6641 82.315 12.0577Z" fill="white"/>
<path d="M112.732 18.1737L113.573 7.70152V0.289551H110.375V7.70152L111.217 18.1737H112.732Z" fill="white"/>
<path d="M113.84 20.5986H110.103V24.3379H113.84V20.5986Z" fill="white"/>
<path d="M128.015 9.41225H127.98C127.502 8.48618 126.752 7.72869 125.831 7.24174C124.893 6.75405 123.849 6.50529 122.792 6.51752C121.288 6.51752 120.02 6.80406 118.989 7.37713C117.999 7.90774 117.143 8.65572 116.485 9.56483C115.856 10.4616 115.403 11.4693 115.148 12.5348C114.886 13.5756 114.751 14.6442 114.744 15.7175C114.738 16.8638 114.903 18.0047 115.234 19.1022C115.535 20.1202 116.032 21.0694 116.698 21.8959C117.358 22.699 118.186 23.3481 119.124 23.7978C120.189 24.2902 121.353 24.5321 122.526 24.5048C123.631 24.509 124.721 24.2497 125.706 23.7484C126.706 23.2455 127.498 22.4093 127.946 21.3844H128.015V22.5277C128.022 23.4227 127.925 24.3156 127.727 25.1882C127.565 25.9355 127.249 26.641 126.8 27.2599C126.377 27.8311 125.824 28.293 125.186 28.6073C124.436 28.9483 123.616 29.1108 122.792 29.0822C122.296 29.0786 121.801 29.0267 121.314 28.9275C120.815 28.833 120.333 28.6681 119.88 28.4375C119.456 28.2229 119.078 27.9256 118.769 27.5629C118.461 27.1934 118.289 26.729 118.282 26.2477H115.411C115.427 27.104 115.686 27.9381 116.158 28.6524C116.603 29.298 117.184 29.8379 117.86 30.2341C118.572 30.648 119.345 30.9441 120.151 31.1109C120.964 31.2866 121.793 31.3767 122.625 31.3795C125.407 31.3795 127.45 30.6725 128.754 29.2585C130.058 27.8444 130.709 25.7083 130.707 22.8501V6.92154H128.015V9.41225ZM127.585 17.6967C127.411 18.466 127.11 19.2009 126.695 19.8715C126.292 20.5074 125.743 21.0379 125.094 21.4188C124.36 21.8309 123.527 22.0345 122.685 22.0077C121.857 22.0408 121.037 21.8365 120.321 21.4188C119.702 21.0315 119.186 20.5007 118.817 19.8715C118.426 19.2066 118.152 18.4798 118.007 17.7225C117.852 16.944 117.773 16.1523 117.772 15.3586C117.77 14.5532 117.866 13.7506 118.06 12.9689C118.232 12.2438 118.54 11.5582 118.969 10.9488C119.386 10.3684 119.934 9.8943 120.568 9.56483C121.301 9.1975 122.113 9.01804 122.932 9.04262C123.729 9.01865 124.518 9.20467 125.221 9.58202C125.838 9.9302 126.364 10.4209 126.753 11.0133C127.154 11.6256 127.445 12.3035 127.613 13.0162C127.79 13.7559 127.878 14.5141 127.875 15.2748C127.874 16.0889 127.779 16.9003 127.591 17.6924" fill="white"/>
<path d="M145.558 8.30413C145.057 7.72169 144.421 7.27086 143.705 6.99108C142.79 6.6512 141.817 6.49139 140.841 6.52045C138.262 6.52045 136.376 7.57561 135.184 9.68595H135.116V6.92446H132.423V24.3315H135.288V14.5019C135.28 13.763 135.39 13.0275 135.612 12.3228C135.811 11.6912 136.135 11.1064 136.566 10.6036C137.002 10.1024 137.551 9.71135 138.167 9.46245C138.889 9.17499 139.662 9.03682 140.439 9.05629C141.537 9.05629 142.403 9.3722 143.03 9.99971C143.658 10.6272 143.974 11.4825 143.974 12.5592V24.3358H146.838V12.8858C146.847 12.0178 146.75 11.1519 146.551 10.307C146.38 9.57043 146.04 8.88382 145.558 8.30198" fill="white"/>
<path d="M162.194 9.91939C161.573 8.92727 160.732 8.09182 159.736 7.4781C158.713 6.8334 157.43 6.51749 155.878 6.51749C154.749 6.50614 153.63 6.73544 152.597 7.19014C151.61 7.63095 150.728 8.27459 150.007 9.07912C149.26 9.91303 148.682 10.8846 148.307 11.9395C147.891 13.106 147.685 14.3371 147.699 15.5756C147.732 16.8205 147.93 18.0555 148.288 19.2483C148.605 20.3114 149.139 21.2971 149.857 22.143C150.562 22.9592 151.444 23.6038 152.435 24.0277C153.582 24.5022 154.816 24.732 156.056 24.7025C158.034 24.7025 159.673 24.2082 160.973 23.2197C162.274 22.2311 163.113 20.7612 163.49 18.8099H160.66C160.415 19.956 159.905 20.8092 159.13 21.3694C158.354 21.9296 157.361 22.2082 156.149 22.2053C155.306 22.2252 154.468 22.0647 153.693 21.7347C153.042 21.4538 152.463 21.0311 151.996 20.4976C151.53 19.964 151.189 19.3331 150.998 18.6509C150.792 17.9464 150.701 17.2137 150.727 16.4804H163.761C163.8 15.3611 163.704 14.2413 163.475 13.1451C163.244 12.0014 162.807 10.9092 162.185 9.92154M150.718 13.9617C150.756 13.3084 150.901 12.6658 151.148 12.0598C151.385 11.4802 151.727 10.9497 152.158 10.4953C152.591 10.0401 153.112 9.67874 153.69 9.43371C154.325 9.16636 155.007 9.0339 155.695 9.04474C156.372 9.0359 157.042 9.16838 157.664 9.43371C158.242 9.68027 158.767 10.0339 159.213 10.476C159.659 10.9258 160.014 11.4579 160.258 12.0426C160.516 12.6524 160.67 13.3011 160.713 13.9617H150.718Z" fill="white"/>
<path d="M169.923 7.46514C168.92 8.13564 168.067 9.17863 167.364 10.5941H167.299V6.92574H164.604V24.3328H167.465V16.5963C167.452 15.5918 167.565 14.5897 167.802 13.6135C167.998 12.81 168.365 12.058 168.877 11.4086C169.396 10.7844 170.07 10.3084 170.832 10.0289C171.771 9.69209 172.764 9.5325 173.761 9.55829V6.52172C172.213 6.47445 170.933 6.78892 169.921 7.46514" fill="white"/>
</g>
<defs>
<clipPath id="clip0_425_1431">
<rect width="173.757" height="31.0856" fill="white" transform="translate(0.00488281 0.269287)"/>
</clipPath>
</defs>
</svg>
