<svg width="101" height="36" viewBox="0 0 101 36" fill="none" xmlns="http://www.w3.org/2000/svg">
<path d="M45.2275 21.7444L42.676 4.70288L39.1559 4.71219H35.4775V31.4199H39.547V9.66635L43.244 31.4106L46.671 31.4199H49.297V4.71219H45.2275V21.7444Z" fill="white"/>
<path d="M54.5459 8.59564H54.5552V31.4294H59.6025H64.0258V27.6114H59.6025V19.9567H63.8396V16.1386H59.6025V8.59564H64.0258V4.77759H54.5459V8.59564Z" fill="white"/>
<path d="M21.3516 8.52093H21.3609V31.3547H26.4082H30.8315V27.5367H26.4082V19.882H30.6453V16.0639H26.4082V8.52093H30.8315V4.70288H21.3516V8.52093Z" fill="white"/>
<path d="M73.3868 27.557L78.2571 8.51326V4.72314H68.1719V8.51326H72.9677L68.3861 27.5663V31.3657H78.462V27.5663H73.4054L73.3868 27.557Z" fill="white"/>
<path d="M91.1936 31.3088L95.6914 31.3274L91.9199 4.69416H91.8827V4.68485H89.4801V4.67554L85.9414 4.68485L82.1699 31.3647L86.6678 31.346L87.4128 24.25H90.4393L91.1936 31.3088ZM87.8504 20.1899L88.9307 9.95562L90.0109 20.1899H87.8504Z" fill="white"/>
<path d="M11.2 14.3786H13.0811H16.2007V9.61068C16.2007 6.93805 14.0403 4.77759 11.377 4.77759H9.17925C6.51593 4.77759 4.35547 6.93805 4.35547 9.61068V26.6336C4.35547 29.2969 6.51593 31.4574 9.17925 31.4574H9.45862C11.079 31.4574 12.4851 30.582 13.2394 29.2876V30.9452H13.5188H16.2007V26.6802C16.2007 26.6615 16.2007 26.6522 16.2007 26.6336V17.9173H11.2H10.4923V21.2231H11.2093V26.736C11.2093 26.8571 11.1907 26.9782 11.1348 27.0806C10.9952 27.4065 10.6692 27.6486 10.2874 27.6486C9.90561 27.6486 9.57968 27.4158 9.44 27.0806C9.38412 26.9782 9.3655 26.8571 9.3655 26.736V12.4882V9.51756C9.3655 9.00538 9.77524 8.59564 10.2874 8.59564C10.7903 8.59564 11.2093 9.00538 11.2093 9.51756V12.8141L11.2 14.3786Z" fill="white"/>
</svg>
