<svg width="141" height="28" viewBox="0 0 141 28" fill="none" xmlns="http://www.w3.org/2000/svg">
<path d="M0.578125 0.00561523V27.2295H5.63399V18.9068H12.2844C19.9071 18.9068 23.5629 15.8733 23.5629 9.4562C23.5629 2.96135 19.9071 0.00561523 11.9733 0.00561523H0.578125ZM11.8566 4.43922C16.368 4.43922 18.3903 6.03377 18.3903 9.49509C18.3903 12.9564 16.368 14.5121 11.8955 14.5121H5.63399V4.43922H11.8566Z" fill="white"/>
<path d="M47.7344 17.5067C47.7344 11.7119 43.3786 7.39496 37.506 7.39496C31.6334 7.39496 27.2776 11.8675 27.2776 17.4678C27.2776 23.0681 31.6723 27.6184 37.6227 27.6184C40.8896 27.6184 43.9231 26.4128 46.2177 24.2738L43.6119 21.8236C42.173 23.1848 40.2284 23.8849 37.7783 23.8849C34.6281 23.8849 32.5279 22.057 32.0223 18.9846H47.7344V17.5067ZM32.0223 16.0288C32.4501 12.9175 34.4725 11.0507 37.5449 11.0507C39.1394 11.0507 40.5006 11.5174 41.5507 12.4897C42.6008 13.4231 43.1452 14.5899 43.1452 16.0288H32.0223Z" fill="white"/>
<path d="M65.1188 7.39496C62.2798 7.39496 59.4018 8.83394 57.185 11.4397V7.78387H52.4403V27.2295H57.185V15.1343C59.3629 12.762 62.1242 11.5174 65.1188 11.5174V7.39496Z" fill="white"/>
<path d="M87.5488 27.2295L80.0427 17.3122L87.1987 7.78387H81.8706L77.2815 14.162L72.6923 7.78387H67.2475L74.4813 17.2733L66.8975 27.2295H72.2256L77.2037 20.4235L82.1429 27.2295H87.5488Z" fill="white"/>
<path d="M109.945 17.5067C109.945 11.7119 105.589 7.39496 99.7169 7.39496C93.8443 7.39496 89.4885 11.8675 89.4885 17.4678C89.4885 23.0681 93.8832 27.6184 99.8335 27.6184C103.1 27.6184 106.134 26.4128 108.429 24.2738L105.823 21.8236C104.384 23.1848 102.439 23.8849 99.9891 23.8849C96.8389 23.8849 94.7388 22.057 94.2332 18.9846H109.945V17.5067ZM94.2332 16.0288C94.661 12.9175 96.6834 11.0507 99.7558 11.0507C101.35 11.0507 102.712 11.5174 103.762 12.4897C104.812 13.4231 105.356 14.5899 105.356 16.0288H94.2332Z" fill="white"/>
<path d="M119.396 0.00561523H114.651V27.2295H119.396V0.00561523Z" fill="white"/>
<path d="M140.262 9.53398C138.084 8.17279 135.129 7.39496 132.29 7.39496C127.428 7.39496 124.472 9.61176 124.472 13.3453C124.472 14.7454 124.939 15.8344 125.872 16.6511C126.845 17.4678 128.517 18.2067 130.889 18.8679L133.34 19.529C135.79 20.268 136.373 20.6958 136.373 21.8236C136.373 23.4182 135.206 24.2349 132.834 24.2349C130.306 24.2349 127.545 23.4182 125.25 22.0181L123.617 25.0127C126.106 26.685 129.373 27.6184 132.678 27.6184C137.812 27.6184 140.807 25.3627 140.807 21.4736C140.807 18.5568 139.057 17.04 134.506 15.7955L132.328 15.2121C129.645 14.4732 128.984 14.0454 128.984 12.9175C128.984 11.4785 130.034 10.7785 132.173 10.7785C134.234 10.7785 136.762 11.4785 138.668 12.6064L140.262 9.53398Z" fill="white"/>
</svg>
