<svg width="188" height="30" viewBox="0 0 188 30" fill="none" xmlns="http://www.w3.org/2000/svg">
<g clip-path="url(#clip0_425_1421)">
<path d="M11.4445 16.38V20.7242L13.8673 24.874L15.122 20.7242L15.5114 10.1338C15.5403 9.64396 15.7277 9.21889 16.0739 8.85868C16.4344 8.49847 16.8526 8.31836 17.3286 8.31836C17.8333 8.31836 18.266 8.49847 18.6265 8.85868C18.9871 9.20449 19.1601 9.62955 19.1457 10.1338L18.7563 21.4375L16.8094 27.8565C16.5354 28.7355 15.9729 29.175 15.122 29.175H13.1751C12.4973 29.175 11.9637 28.8363 11.5743 28.1591L9.58409 24.7443L7.59385 28.1159C7.14679 28.8219 6.6132 29.175 5.99303 29.175H4.08938C3.67114 29.175 3.28897 29.0525 2.94284 28.8075C2.61114 28.5626 2.40202 28.2744 2.31549 27.943L0.411822 21.2862L0.000801212 10.1338C-0.0136206 9.65837 0.166652 9.24048 0.541618 8.88027C0.916584 8.50565 1.35645 8.31836 1.86121 8.31836C2.32271 8.31836 2.72652 8.49124 3.07264 8.83705C3.43319 9.16845 3.62067 9.60074 3.63509 10.1338L4.04611 20.7675L5.23589 24.8307L7.76691 20.5946V16.38C7.76691 15.8757 7.94719 15.4507 8.30772 15.1048C8.66829 14.7446 9.10817 14.5645 9.62735 14.5645C10.1177 14.5645 10.5431 14.7446 10.9037 15.1048C11.2642 15.4507 11.4445 15.8757 11.4445 16.38Z" fill="white"/>
<path d="M45.5582 15.1481V19.5355C45.5582 20.0254 45.3782 20.4505 45.0174 20.8107C44.657 21.1709 44.2316 21.351 43.7412 21.351H30.8914V22.4101C30.8914 23.0296 31.1582 23.5556 31.6918 23.9878L32.7518 24.874C33.3287 25.3206 33.8767 25.544 34.3959 25.544H43.7412C44.2316 25.544 44.657 25.7241 45.0174 26.0843C45.3782 26.4301 45.5582 26.8552 45.5582 27.3595C45.5582 27.8494 45.3711 28.2744 44.9959 28.6346C44.6354 28.9948 44.2171 29.175 43.7412 29.175H34.1579C33.5234 29.175 32.8528 29.0453 32.1461 28.7859C31.4539 28.5122 30.9419 28.2312 30.6102 27.943L28.9877 26.5165C28.483 26.1131 28.0575 25.5512 27.7114 24.8307C27.3797 24.1103 27.2139 23.4475 27.2139 22.8423V14.5213C27.2139 14.0458 27.3942 13.4046 27.7547 12.5978C28.1297 11.7908 28.5984 11.1641 29.1608 10.7174L30.6751 9.52866C31.6702 8.72179 32.7734 8.31836 33.9849 8.31836H39.0902C40.3738 8.31836 41.5852 8.85146 42.7245 9.91769L44.0873 11.2145C45.0681 12.0934 45.5582 13.4046 45.5582 15.1481ZM30.9347 14.8671V17.6768H41.9673V15.1481C41.9673 14.4709 41.7582 13.9522 41.34 13.592L40.28 12.6626C39.732 12.2159 39.2416 11.9926 38.809 11.9926H34.2445C33.682 11.9926 33.1701 12.1871 32.7085 12.5761L31.6485 13.4622C31.1726 13.8225 30.9347 14.2907 30.9347 14.8671Z" fill="white"/>
<path d="M57.76 2.26594V10.8031L59.3609 9.52791C60.3703 8.69223 61.416 8.27439 62.4976 8.27439H65.8291C67.0548 8.27439 68.1436 8.69223 69.0955 9.52791L70.8262 11.0192C71.3023 11.4371 71.6915 12.035 71.9944 12.8131C72.3117 13.5912 72.4701 14.3549 72.4701 15.1041V22.4525C72.4701 23.1153 72.3261 23.8142 72.0375 24.549C71.7494 25.2838 71.4177 25.8242 71.0425 26.17L69.4636 27.6613C69.0596 28.0503 68.4825 28.4033 67.733 28.7203C66.983 29.0229 66.3484 29.1742 65.8291 29.1742H62.7139C61.1996 29.1742 59.5485 28.3313 57.76 26.6455V27.3587C57.76 27.863 57.58 28.2953 57.2192 28.6555C56.8731 29.0013 56.4477 29.1742 55.9428 29.1742C55.4383 29.1742 55.0056 29.0013 54.6448 28.6555C54.2988 28.2953 54.126 27.863 54.126 27.3587V2.26594C54.126 1.76163 54.3059 1.33658 54.6668 0.990765C55.0272 0.630548 55.4527 0.450439 55.9428 0.450439C56.4477 0.450439 56.8731 0.630548 57.2192 0.990765C57.58 1.33658 57.76 1.76163 57.76 2.26594ZM65.5477 11.9486H63.0384C62.4325 11.9486 61.9712 12.0855 61.6538 12.3592L58.3874 15.1473C57.9691 15.5219 57.76 16.0839 57.76 16.8331V20.9396C57.76 21.5448 57.9979 22.0491 58.474 22.4525L61.3944 24.9164C61.8127 25.3055 62.2526 25.5 62.7139 25.5H65.6774C66.0957 25.5 66.4566 25.3703 66.7595 25.111L68.2087 23.8142C68.5983 23.526 68.7926 23.1153 68.7926 22.5822V14.9312C68.7926 14.326 68.5983 13.8649 68.2087 13.5479L66.8892 12.4457C66.4853 12.1143 66.0383 11.9486 65.5477 11.9486Z" fill="white"/>
<path d="M92.636 2.26594V10.8031L94.2369 9.52791C95.2462 8.69223 96.292 8.27439 97.3736 8.27439H100.705C101.931 8.27439 103.02 8.69223 103.972 9.52791L105.702 11.0192C106.178 11.4371 106.567 12.035 106.87 12.8131C107.188 13.5912 107.346 14.3549 107.346 15.1041V22.4525C107.346 23.1153 107.202 23.8142 106.913 24.549C106.625 25.2838 106.294 25.8242 105.918 26.17L104.34 27.6613C103.936 28.0503 103.358 28.4033 102.609 28.7203C101.859 29.0229 101.224 29.1742 100.705 29.1742H97.5899C96.0756 29.1742 94.4245 28.3313 92.636 26.6455V27.3587C92.636 27.863 92.456 28.2953 92.0951 28.6555C91.7491 29.0013 91.3236 29.1742 90.8187 29.1742C90.3143 29.1742 89.8816 29.0013 89.5208 28.6555C89.1747 28.2953 89.002 27.863 89.002 27.3587V2.26594C89.002 1.76163 89.1819 1.33658 89.5428 0.990765C89.9032 0.630548 90.3286 0.450439 90.8187 0.450439C91.3236 0.450439 91.7491 0.630548 92.0951 0.990765C92.456 1.33658 92.636 1.76163 92.636 2.26594ZM100.424 11.9486H97.9144C97.3085 11.9486 96.8471 12.0855 96.5298 12.3592L93.2634 15.1473C92.8451 15.5219 92.636 16.0839 92.636 16.8331V20.9396C92.636 21.5448 92.8738 22.0491 93.35 22.4525L96.2704 24.9164C96.6887 25.3055 97.1285 25.5 97.5899 25.5H100.554C100.972 25.5 101.333 25.3703 101.635 25.111L103.085 23.8142C103.474 23.526 103.669 23.1153 103.669 22.5822V14.9312C103.669 14.326 103.474 13.8649 103.085 13.5479L101.765 12.4457C101.361 12.1143 100.914 11.9486 100.424 11.9486Z" fill="white"/>
<path d="M133.997 14.8634V22.536C133.997 24.1642 133.225 25.6699 131.682 27.0531C130.153 28.4364 128.574 29.128 126.945 29.128H122.683C121.025 29.128 119.438 28.4291 117.924 27.0315C116.409 25.6195 115.652 24.1209 115.652 22.536V14.8634C115.652 13.2784 116.388 11.7871 117.859 10.3895C119.344 8.97741 120.952 8.27139 122.683 8.27139H126.945C128.574 8.24253 130.153 8.91979 131.682 10.303C133.225 11.6862 133.997 13.2064 133.997 14.8634ZM119.33 15.0147V22.3631C119.33 23.0259 119.568 23.5518 120.044 23.9408L121.407 25.108C121.709 25.3673 122.135 25.497 122.683 25.497H126.901C127.522 25.497 128.084 25.2737 128.589 24.827L129.692 23.8544C130.139 23.5086 130.363 23.0259 130.363 22.4063V15.0579C130.363 14.3374 130.139 13.8043 129.692 13.4585L128.416 12.4427C127.983 12.0825 127.478 11.9023 126.901 11.9023H123.137C122.315 11.9023 121.681 12.0969 121.234 12.4859L120 13.5449C119.553 13.9196 119.33 14.4095 119.33 15.0147Z" fill="white"/>
<path d="M147.559 8.31836H155.888C157.186 8.31836 158.333 8.70739 159.328 9.48544C160.323 10.2491 160.82 10.9984 160.82 11.7332C160.82 12.2519 160.633 12.677 160.258 13.0084C159.898 13.3398 159.494 13.5055 159.047 13.5055C158.469 13.5055 157.943 13.2461 157.467 12.7274C156.992 12.2087 156.494 11.9494 155.975 11.9494H147.754C146.947 11.9494 146.543 12.2879 146.543 12.9651C146.543 13.4407 146.81 13.8009 147.343 14.0458L157.013 18.3252C157.994 18.7575 158.794 19.4563 159.414 20.4217C160.049 21.3726 160.366 22.4317 160.366 23.5988C160.366 25.1549 159.811 26.4733 158.701 27.554C157.604 28.6346 156.357 29.175 154.958 29.175H147.603C146.334 29.175 145.151 28.7931 144.055 28.0295C142.973 27.2658 142.433 26.5238 142.433 25.8033C142.433 25.3278 142.606 24.91 142.952 24.5498C143.312 24.1751 143.774 23.9878 144.336 23.9878C144.798 23.9878 145.288 24.2472 145.807 24.7659C146.341 25.2846 147.105 25.544 148.1 25.544H154.871C155.405 25.544 155.852 25.3422 156.213 24.9388C156.573 24.5209 156.754 24.0455 156.754 23.5123C156.754 22.691 156.35 22.1003 155.542 21.7401L145.786 17.3526C144.848 16.9348 144.127 16.3296 143.622 15.5371C143.118 14.7446 142.865 13.9378 142.865 13.1164C142.865 11.8197 143.312 10.6958 144.206 9.74481C145.115 8.79383 146.233 8.31836 147.559 8.31836Z" fill="white"/>
<path d="M174.341 8.31836H182.669C183.967 8.31836 185.114 8.70739 186.109 9.48544C187.104 10.2491 187.602 10.9984 187.602 11.7332C187.602 12.2519 187.414 12.677 187.039 13.0084C186.678 13.3398 186.275 13.5055 185.828 13.5055C185.251 13.5055 184.724 13.2461 184.249 12.7274C183.773 12.2087 183.275 11.9494 182.756 11.9494H174.535C173.728 11.9494 173.324 12.2879 173.324 12.9651C173.324 13.4407 173.591 13.8009 174.124 14.0458L183.794 18.3252C184.775 18.7575 185.575 19.4563 186.195 20.4217C186.83 21.3726 187.147 22.4317 187.147 23.5988C187.147 25.1549 186.592 26.4733 185.481 27.554C184.385 28.6346 183.138 29.175 181.739 29.175H174.384C173.115 29.175 171.932 28.7931 170.836 28.0295C169.755 27.2658 169.214 26.5238 169.214 25.8033C169.214 25.3278 169.387 24.91 169.733 24.5498C170.094 24.1751 170.555 23.9878 171.117 23.9878C171.579 23.9878 172.069 24.2472 172.588 24.7659C173.122 25.2846 173.886 25.544 174.881 25.544H181.653C182.186 25.544 182.633 25.3422 182.994 24.9388C183.354 24.5209 183.534 24.0455 183.534 23.5123C183.534 22.691 183.131 22.1003 182.323 21.7401L172.567 17.3526C171.629 16.9348 170.909 16.3296 170.404 15.5371C169.899 14.7446 169.647 13.9378 169.647 13.1164C169.647 11.8197 170.094 10.6958 170.988 9.74481C171.896 8.79383 173.014 8.31836 174.341 8.31836Z" fill="white"/>
</g>
<defs>
<clipPath id="clip0_425_1421">
<rect width="187.602" height="28.7238" fill="white" transform="translate(0 0.450195)"/>
</clipPath>
</defs>
</svg>
